STARTFONT 2.3
FONT -FontForge-Rajdhani-Book-R-Normal--28-280-72-72-P-171-ISO10646-1
SIZE 28 72 72  4
FONTBOUNDINGBOX 69 35 -12 -10
COMMENT "Generated by fontforge, http://fontforge.sourceforge.net"
COMMENT "Copyright (c) 2014 Indian Type Foundry (info@indiantypefoundry.com)"
STARTPROPERTIES 41
FOUNDRY "FontForge"
FAMILY_NAME "Rajdhani"
WEIGHT_NAME "Book"
SLANT "R"
SETWIDTH_NAME "Normal"
ADD_STYLE_NAME ""
PIXEL_SIZE 28
POINT_SIZE 280
RESOLUTION_X 72
RESOLUTION_Y 72
SPACING "P"
AVERAGE_WIDTH 171
CHARSET_REGISTRY "ISO10646"
CHARSET_ENCODING "1"
FONTNAME_REGISTRY ""
CHARSET_COLLECTIONS "ISO8859-2 ISO8859-9 ISO8859-4 ISO10646-1"
BITS_PER_PIXEL 4
FONT_NAME "Rajdhani-Regular"
FACE_NAME "Rajdhani Regular"
COPYRIGHT "Copyright (c) 2014 Indian Type Foundry (info@indiantypefoundry.com)"
FONT_VERSION "1.201;PS 1.0;hotconv 1.0.78;makeotf.lib2.5.61930; ttfautohint (v1.1) -l 7 -r 28 -G 50 -x 13 -D latn -f deva -w G"
FONT_ASCENT 22
FONT_DESCENT 6
UNDERLINE_POSITION -3
UNDERLINE_THICKNESS 2
X_HEIGHT 13
CAP_HEIGHT 17
DEFAULT_CHAR 3
RAW_ASCENT 800
RAW_DESCENT 200
NORM_SPACE 7
RELATIVE_WEIGHT 40
RELATIVE_SETWIDTH 50
SUPERSCRIPT_X 0
SUPERSCRIPT_Y 9
SUPERSCRIPT_SIZE 16
SUBSCRIPT_X 0
SUBSCRIPT_Y 2
SUBSCRIPT_SIZE 16
AVG_LOWERCASE_WIDTH 126
AVG_UPPERCASE_WIDTH 145
ENDPROPERTIES
CHARS 1043
STARTCHAR NULL.dup1
ENCODING 0
SWIDTH 0 0
DWIDTH 0 0
BBX 1 1 0 0
BITMAP
00
ENDCHAR
STARTCHAR CR
ENCODING 13
SWIDTH 0 0
DWIDTH 0 0
BBX 1 1 0 0
BITMAP
00
ENDCHAR
STARTCHAR space
ENCODING 32
SWIDTH 267 0
DWIDTH 7 0
BBX 1 1 0 0
BITMAP
00
ENDCHAR
STARTCHAR exclam
ENCODING 33
SWIDTH 237 0
DWIDTH 7 0
BBX 3 18 2 0
BITMAP
7F20
7F20
7F20
7F20
7F20
7F10
6F10
6F00
5F00
5E00
4D00
3C00
0000
0000
6F10
6F10
6F10
6F10
ENDCHAR
STARTCHAR quotedbl
ENCODING 34
SWIDTH 330 0
DWIDTH 9 0
BBX 7 6 1 12
BITMAP
3F200E60
3F200D60
2F100C50
1F000C40
0E000B30
0C000920
ENDCHAR
STARTCHAR numbersign
ENCODING 35
SWIDTH 677 0
DWIDTH 19 0
BBX 17 18 1 0
BITMAP
0000001E300006B000
0000004E00000B8000
0000008B00000E4000
000000C700004F0000
000001F300008B0000
009FFFFFFFFFFFFF60
00133BA33334F53310
00000E500006D00000
00003F10000A900000
00008B00000E400000
0000C600004E000000
0002F200009A000000
7FFFFFFFFFFFFF8000
133C933335F4331000
000E400006C0000000
003F00000A80000000
008B00000E40000000
00B600003E10000000
ENDCHAR
STARTCHAR dollar
ENCODING 36
SWIDTH 504 0
DWIDTH 14 0
BBX 12 24 1 -3
BITMAP
000001700000
000004F00000
000004F00000
005CFFFFC600
05FA54459F60
0DA0000009E0
0F60000005F1
1F50000003D1
1F5000000000
0F8000000000
0AE620000000
01AFFFFFD700
000123359F90
0000000008F1
0000000004F2
0510000003F3
1F50000003F3
0F60000005F2
0CB0000009E0
04FA54459F60
004CFFFFC600
000004F00000
000004F00000
000001700000
ENDCHAR
STARTCHAR percent
ENCODING 37
SWIDTH 717 0
DWIDTH 20 0
BBX 18 18 1 0
BITMAP
05CFFC400000D40000
3F7448F20005D00000
7B0000C6000B700000
990000A8003E100000
990000A80099000000
8A0000B701E2000000
4E4115F307B0000000
08FFFF700D40000000
001331005D00000000
00000000C600000000
00000003E103BDEC60
0000000A801E6224E4
0000002F205C000089
0000008A007B00007A
000000E4007B00007A
000006C0005D000099
00000C60002E9447E4
00003D000004CEFD60
ENDCHAR
STARTCHAR ampersand
ENCODING 38
SWIDTH 597 0
DWIDTH 17 0
BBX 14 18 2 0
BITMAP
0007DFEC600000
00AF8448E90000
02F700007F1000
05F200003F4000
05F100002F4000
04F20000051000
00E60000000000
006D1000000000
1AFFC000000000
8F85EA00000000
DA003EFFFFFFF1
F60004F9333330
F600006F400000
F6000007E30000
F70000009E2000
CB0000008FD100
4FA54448F6CC10
04CFFFFC501DA0
ENDCHAR
STARTCHAR quotesingle
ENCODING 39
SWIDTH 186 0
DWIDTH 5 0
BBX 3 5 1 13
BITMAP
1F40
1F30
0F20
0E20
0C10
ENDCHAR
STARTCHAR parenleft
ENCODING 40
SWIDTH 283 0
DWIDTH 8 0
BBX 6 21 1 -3
BITMAP
007DF1
09E740
2F4000
6E0000
7D0000
7D0000
7D0000
7D0000
7D0000
7D0000
7D0000
7D0000
7D0000
7D0000
7D0000
7D0000
6E0000
3F3000
0CD410
01BFF1
000130
ENDCHAR
STARTCHAR parenright
ENCODING 41
SWIDTH 283 0
DWIDTH 8 0
BBX 6 21 1 -3
BITMAP
6EB400
15AF40
000AC0
0005F0
0003F1
0003F1
0003F1
0003F1
0003F1
0003F1
0003F1
0003F1
0003F1
0003F1
0003F1
0003F1
0004F0
0008D0
027F60
6FE700
130000
ENDCHAR
STARTCHAR asterisk
ENCODING 42
SWIDTH 406 0
DWIDTH 11 0
BBX 8 8 2 10
BITMAP
000E4000
000D3000
850B2283
9CB88EA3
00275000
02D2C600
0C903F30
03100300
ENDCHAR
STARTCHAR plus
ENCODING 43
SWIDTH 523 0
DWIDTH 15 0
BBX 12 11 1 3
BITMAP
000005E00000
000005F00000
000005F00000
000005F00000
000005F00000
1FFFFFFFFFFA
033337F33332
000005F00000
000005F00000
000005F00000
000005E00000
ENDCHAR
STARTCHAR comma
ENCODING 44
SWIDTH 191 0
DWIDTH 5 0
BBX 3 7 1 -3
BITMAP
2F60
2F70
2F60
2F40
2E10
2A00
1500
ENDCHAR
STARTCHAR hyphen
ENCODING 45
SWIDTH 312 0
DWIDTH 9 0
BBX 7 2 1 7
BITMAP
DFFFFF90
23333320
ENDCHAR
STARTCHAR period
ENCODING 46
SWIDTH 191 0
DWIDTH 5 0
BBX 3 4 1 0
BITMAP
2F60
2F70
2F70
2F60
ENDCHAR
STARTCHAR slash
ENCODING 47
SWIDTH 396 0
DWIDTH 11 0
BBX 9 18 1 0
BITMAP
0000002F40
0000007E00
000000D900
000003F400
000009D000
00000E8000
00004F3000
0000AD0000
0001E70000
0005F20000
000BB00000
001F600000
006F100000
00CA000000
02F5000000
07E1000000
0D90000000
3F40000000
ENDCHAR
STARTCHAR zero
ENCODING 48
SWIDTH 514 0
DWIDTH 14 0
BBX 12 18 1 0
BITMAP
006CFFFFE910
06F954447EC0
0EA0000004F4
2F50000000E7
2F40000000D8
2F40000000D8
2F40000000D8
2F40000000D8
2F40000000D8
2F40000000D8
2F40000000D8
2F40000000D8
2F40000000D8
2F40000000D8
2F50000000E7
0EA0000004F4
06F954447EC0
006CFFFFE910
ENDCHAR
STARTCHAR one
ENCODING 49
SWIDTH 317 0
DWIDTH 9 0
BBX 6 18 1 0
BITMAP
0019E7
06EDE8
CE70E8
8100E8
0000E8
0000E8
0000E8
0000E8
0000E8
0000E8
0000E8
0000E8
0000E8
0000E8
0000E8
0000E8
0000E8
0000D7
ENDCHAR
STARTCHAR two
ENCODING 50
SWIDTH 478 0
DWIDTH 13 0
BBX 11 18 1 0
BITMAP
018DFFFEA200
0BE74446CE10
3F5000001E70
6F1000000CA0
7F0000000BB0
380000000BA0
000000001F70
00000001BD10
0000003DD200
000006EB1000
00009F700000
002CE4000000
03EC20000000
0DC000000000
3F4000000000
5F3000000000
5F6444444430
4FFFFFFFFFB0
ENDCHAR
STARTCHAR three
ENCODING 51
SWIDTH 496 0
DWIDTH 14 0
BBX 12 18 1 0
BITMAP
006DFFFFC400
07F95445AF40
0E8000000BC0
3F40000007F0
3F20000005F1
2910000005F1
0000000006F0
000000000AC0
000000027F50
00000FFFF500
000003349E40
0000000009D0
0200000006F0
3F20000005F1
3F30000006F0
1F7000000AD0
09E844459F60
007CEFFEC500
ENDCHAR
STARTCHAR four
ENCODING 52
SWIDTH 520 0
DWIDTH 15 0
BBX 13 18 1 0
BITMAP
00000003EF3000
0000000CCF3000
0000006E4F3000
000001E73F3000
000009D03F3000
00003F403F3000
0000CA003F3000
0006E2003F3000
001E70003F3000
009D00003F3000
03F400003F3000
0CA000003F3000
6E2000003F3000
AFFFFFFFFFFF90
233333335F6320
000000003F3000
000000003F3000
000000002F3000
ENDCHAR
STARTCHAR five
ENCODING 53
SWIDTH 482 0
DWIDTH 14 0
BBX 11 18 1 0
BITMAP
2FFFFFFFFF90
2F7444444420
2F4000000000
2F4000000000
2F4000000000
2F4000000000
2F4000000000
2F7CFFFEC400
2FD64335AF50
194000000CB0
0000000008E0
0000000007E0
0200000007E0
3F30000007E0
2F40000008D0
0E9000000CB0
07F95445BF40
006DFFFEB400
ENDCHAR
STARTCHAR six
ENCODING 54
SWIDTH 497 0
DWIDTH 14 0
BBX 12 18 1 0
BITMAP
008DFFFFFF30
0AE844444400
2F6000000000
5F2000000000
6F1000000000
6F1000000000
6F1000000000
6FFFFFFFD500
6F4333349F60
6F1000000AD0
6F10000006F1
6F10000004F2
6F10000004F2
6F10000004F2
5F20000006F1
2F7000000AD0
0AF84445AF50
008DFFFFC500
ENDCHAR
STARTCHAR seven
ENCODING 55
SWIDTH 380 0
DWIDTH 11 0
BBX 11 18 0 0
BITMAP
8FFFFFFFFF10
24444444AE00
00000000D900
00000004F400
0000000AD000
0000001F7000
0000006F2000
000000CB0000
000002F60000
000008E10000
00000D900000
00004F400000
0000AD000000
0001F7000000
0006F2000000
000CB0000000
002F60000000
008E10000000
ENDCHAR
STARTCHAR eight
ENCODING 56
SWIDTH 519 0
DWIDTH 15 0
BBX 12 18 1 0
BITMAP
005CFFFFEA20
06F954446DD1
0DA0000002F6
2F50000000C9
2F40000000BA
2F40000000BA
2F50000000C9
0E80000001E6
06F610013BD1
008FFFFFFE20
06F843335CD1
0E80000001E7
2F50000000B9
2F40000000BA
2F50000000BA
1F80000001E8
08F854446CE2
006CEFFFDA20
ENDCHAR
STARTCHAR nine
ENCODING 57
SWIDTH 497 0
DWIDTH 14 0
BBX 12 18 1 0
BITMAP
008DFFFFC500
0AE84445AF50
3F6000000BC0
6F10000006F0
7F00000005F1
7F00000005F1
7F00000005F1
6F10000005F1
4F40000005F1
0CD4100005F1
02BFFFFFFFF1
0001333337F1
0000000005F1
0000000005F1
0000000006F0
000000000AC0
024444459F50
08FFFFFFC500
ENDCHAR
STARTCHAR colon
ENCODING 58
SWIDTH 191 0
DWIDTH 5 0
BBX 3 14 1 0
BITMAP
2F60
2F70
2F70
2F60
0000
0000
0000
0000
0000
0000
2F60
2F70
2F70
2F60
ENDCHAR
STARTCHAR semicolon
ENCODING 59
SWIDTH 191 0
DWIDTH 5 0
BBX 3 17 1 -3
BITMAP
2F60
2F70
2F70
2F60
0000
0000
0000
0000
0000
0000
2F60
2F70
2F60
2F40
2E10
2A00
1400
ENDCHAR
STARTCHAR less
ENCODING 60
SWIDTH 513 0
DWIDTH 14 0
BBX 12 10 1 4
BITMAP
000000000165
00000004AFE5
000028DEA400
016BFB610000
2EC720000000
2ED720000000
005BFC610000
000027DFA500
000000049EE5
000000000165
ENDCHAR
STARTCHAR equal
ENCODING 61
SWIDTH 531 0
DWIDTH 15 0
BBX 11 7 2 5
BITMAP
EFFFFFFFFFC0
333333333320
000000000000
000000000000
000000000000
EFFFFFFFFFC0
333333333320
ENDCHAR
STARTCHAR greater
ENCODING 62
SWIDTH 531 0
DWIDTH 15 0
BBX 11 10 2 4
BITMAP
840000000000
9FD820000000
016CFB610000
000028DE9400
000000049EA0
000000049EA0
000038DE9300
027CFB500000
AFD720000000
840000000000
ENDCHAR
STARTCHAR question
ENCODING 63
SWIDTH 473 0
DWIDTH 13 0
BBX 10 18 2 0
BITMAP
04CFFFD700
5FA5448F80
CB000007F1
F7000003F3
F6000002F4
62000005F2
0000002DA0
000003DA10
00002E9000
0000AB0000
0000D80000
0000D70000
0000210000
0000000000
0000E90000
0000F90000
0000F90000
0000E90000
ENDCHAR
STARTCHAR at
ENCODING 64
SWIDTH 753 0
DWIDTH 21 0
BBX 17 19 2 -2
BITMAP
00017CEFFFFFFEA200
004ED743333335BE20
03E800000000000C80
0D80000000000006C0
4E1002AEFFFF7004C0
89001DC5333D7004C0
A7007E10000C7004C0
A6009B00000C7004C0
A600AA00000C7004C0
A600AA00000C7004C0
A6009B00000C7005C0
A7008D00001F7008A0
89002FA214CE816F40
5D0004DFFE5AFFE600
1E6000023001330000
05F500000000000000
006FA4100000000000
0003AEFFFFFFB00000
000000233333200000
ENDCHAR
STARTCHAR A
ENCODING 65
SWIDTH 533 0
DWIDTH 15 0
BBX 14 18 0 0
BITMAP
0000009F800000
000000EED00000
000004F5F30000
000009C0E80000
00000E709D0000
00004F304F3000
00009D000E7000
0000D8000AC000
0003F40005F200
0008E00001F700
000D900000BC00
003F5000006F10
007FFFFFFFFF60
00CB3333333CB0
02F500000007F1
07E100000002F6
0CA000000000CB
1F50000000006F
ENDCHAR
STARTCHAR B
ENCODING 66
SWIDTH 546 0
DWIDTH 15 0
BBX 12 18 2 0
BITMAP
9FFFFFFFC600
9D4444459F70
9C00000009E0
9C00000005F1
9C00000004F2
9C00000004F2
9C00000008E0
9C0000026E60
9FFFFFFFF700
9D3333348E60
9C00000007E1
9C00000002F4
9C00000001F5
9C00000001F5
9C00000002F4
9C00000006F1
9D4444448E90
9FFFFFFFD700
ENDCHAR
STARTCHAR C
ENCODING 67
SWIDTH 542 0
DWIDTH 15 0
BBX 12 18 2 0
BITMAP
03BEFFFFD810
3FB544447EB0
AD00000005F3
D900000000F6
E800000000E7
E80000000095
E80000000000
E80000000000
E80000000000
E80000000000
E80000000000
E80000000000
E80000000094
E800000000E7
D900000000F6
AD00000005F4
3FB544447EB0
03BEFFFFD910
ENDCHAR
STARTCHAR D
ENCODING 68
SWIDTH 557 0
DWIDTH 16 0
BBX 12 18 2 0
BITMAP
9FFFFFFFD910
9D4444447EB0
9C00000004F4
9C00000000F7
9C00000000E8
9C00000000E8
9C00000000E8
9C00000000E8
9C00000000E8
9C00000000E8
9C00000000E8
9C00000000E8
9C00000000E8
9C00000000E8
9C00000000F7
9C00000004F4
9D4444447EB0
9FFFFFFFE910
ENDCHAR
STARTCHAR E
ENCODING 69
SWIDTH 481 0
DWIDTH 13 0
BBX 10 18 2 0
BITMAP
9FFFFFFFF9
9D44444442
9C00000000
9C00000000
9C00000000
9C00000000
9C00000000
9C00000000
9FFFFFFFC0
9D33333320
9C00000000
9C00000000
9C00000000
9C00000000
9C00000000
9C00000000
9D44444442
9FFFFFFFF9
ENDCHAR
STARTCHAR F
ENCODING 70
SWIDTH 459 0
DWIDTH 13 0
BBX 10 18 2 0
BITMAP
9FFFFFFFF9
9D44444442
9C00000000
9C00000000
9C00000000
9C00000000
9C00000000
9C00000000
9C00000000
9FFFFFFFC0
9D33333320
9C00000000
9C00000000
9C00000000
9C00000000
9C00000000
9C00000000
9B00000000
ENDCHAR
STARTCHAR G
ENCODING 71
SWIDTH 539 0
DWIDTH 15 0
BBX 11 18 2 0
BITMAP
03BEFFFEC400
3FB54445BF40
AD0000000CB0
D900000007F0
E800000006F0
E800000004A0
E80000000000
E80000000000
E80000000000
E80003FFFFE0
E800003339F0
E800000006F0
E800000006F0
E800000006F0
D900000007F0
AD0000000BC0
3FB54445AF50
03BEFFFFC500
ENDCHAR
STARTCHAR H
ENCODING 72
SWIDTH 570 0
DWIDTH 16 0
BBX 12 18 2 0
BITMAP
9B00000000C8
9C00000000C9
9C00000000C9
9C00000000C9
9C00000000C9
9C00000000C9
9C00000000C9
9C00000000D9
9FFFFFFFFFF9
9D33333333D9
9C00000000C9
9C00000000C9
9C00000000C9
9C00000000C9
9C00000000C9
9C00000000C9
9C00000000C9
9B00000000C8
ENDCHAR
STARTCHAR I
ENCODING 73
SWIDTH 230 0
DWIDTH 6 0
BBX 2 18 2 0
BITMAP
7D
7E
7E
7E
7E
7E
7E
7E
7E
7E
7E
7E
7E
7E
7E
7E
7E
7D
ENDCHAR
STARTCHAR J
ENCODING 74
SWIDTH 499 0
DWIDTH 14 0
BBX 11 18 1 0
BITMAP
000000000AB0
000000000AB0
000000000AB0
000000000AB0
000000000AB0
000000000AB0
000000000AB0
000000000AB0
000000000AB0
000000000AB0
000000000AB0
840000000AB0
E70000000AB0
E70000000AB0
E80000000BA0
BD0000001E80
3FB54446DE10
04BEFFFEA200
ENDCHAR
STARTCHAR K
ENCODING 75
SWIDTH 530 0
DWIDTH 15 0
BBX 12 18 2 0
BITMAP
9B00000009E1
9C0000005F50
9C000002E900
9C00001CC000
9C00009E2000
9C0006F50000
9C003E900000
9C01DC000000
9C0AFD100000
9C6F5E900000
9DE605F40000
9F8000AD1000
9D00001E9000
9C000005F400
9C000000AD10
9C0000001E90
9C00000005F4
9B000000009D
ENDCHAR
STARTCHAR L
ENCODING 76
SWIDTH 451 0
DWIDTH 13 0
BBX 10 18 2 0
BITMAP
9B00000000
9C00000000
9C00000000
9C00000000
9C00000000
9C00000000
9C00000000
9C00000000
9C00000000
9C00000000
9C00000000
9C00000000
9C00000000
9C00000000
9C00000000
9C00000000
9D44444443
9FFFFFFFFD
ENDCHAR
STARTCHAR M
ENCODING 77
SWIDTH 696 0
DWIDTH 19 0
BBX 16 18 2 0
BITMAP
9F80000000001EF1
9FE1000000008FF2
9CE600000000ECF2
9B8D00000006E6F2
9B2F4000000C94F2
9B0AB000003F34F2
9B04F20000AB04F2
9B00C80002F504F2
9B006E1008D004F2
9B000E600E7004F2
9B0008D06E1004F2
9B0002F4C90004F2
9B0000ADF30004F2
9B00003FB00004F2
9B000001000004F2
9B000000000004F2
9B000000000004F2
9B000000000004F1
ENDCHAR
STARTCHAR N
ENCODING 78
SWIDTH 579 0
DWIDTH 16 0
BBX 12 18 2 0
BITMAP
9D100000008D
9F800000008D
9FF20000008D
9CDA0000008D
9C4F4000008D
9C0AC000008D
9C02F600008D
9C008E10008D
9C001D90008D
9C0005F3008D
9C0000BB008D
9C00003F508D
9C000009D18D
9C000001E78D
9C0000006EAD
9C0000000CFD
9C00000004FD
9B00000000AD
ENDCHAR
STARTCHAR O
ENCODING 79
SWIDTH 553 0
DWIDTH 15 0
BBX 12 18 2 0
BITMAP
03BEFFFFD800
3FB544448EA0
AD00000006F2
D900000001F5
E800000000F6
E800000000F6
E800000000F6
E800000000F6
E800000000F6
E800000000F6
E800000000F6
E800000000F6
E800000000F6
E800000000F6
D900000001F5
AD00000006F2
3FB544448EA0
03BEFFFFD800
ENDCHAR
STARTCHAR P
ENCODING 80
SWIDTH 524 0
DWIDTH 15 0
BBX 12 18 2 0
BITMAP
9FFFFFFFC500
9D444445AF50
9C0000000BC0
9C00000007F0
9C00000006F1
9C00000006F1
9C00000006F1
9C00000006F0
9C0000000AD0
9C0000027F70
9FFFFFFFF800
9D3333331000
9C0000000000
9C0000000000
9C0000000000
9C0000000000
9C0000000000
9B0000000000
ENDCHAR
STARTCHAR Q
ENCODING 81
SWIDTH 556 0
DWIDTH 16 0
BBX 12 22 2 -4
BITMAP
03BEFFFFD800
3EC544447EA0
AD10000005F3
DA00000001F6
D800000000E7
D800000000E7
D800000000E7
D800000000E7
D800000000E7
D800000000E7
D800000000E7
D800000000E7
D800000000E7
D800000000E7
DA00000001F6
AD10000005F3
3EC544447EA0
03BEFFFFE910
0000007E1000
0000001D9000
00000005F300
00000000BB00
ENDCHAR
STARTCHAR R
ENCODING 82
SWIDTH 534 0
DWIDTH 15 0
BBX 12 18 2 0
BITMAP
9FFFFFFEB400
9D444445BF30
9C0000000CB0
9C00000008E0
9C00000006F0
9C00000006F0
9C00000006F0
9C00000007E0
9C0000000BB0
9C0000028F40
9FFFFFFFE600
9D33337F3000
9C00000DA000
9C000005F300
9C000000DB00
9C0000005F30
9C0000000CB0
9B00000004F4
ENDCHAR
STARTCHAR S
ENCODING 83
SWIDTH 562 0
DWIDTH 16 0
BBX 12 18 2 0
BITMAP
02AEFFFFD800
1ED644448EA0
8F20000006F3
AC00000001F6
BB00000000F6
BB0000000010
8E2000000000
2ED610000000
02BFFC951000
000159CFF910
000000018FC0
0000000005F4
3300000000F7
BB00000000E7
AC00000001F6
8E20000005F4
1ED644447EB0
02AEFFFFD810
ENDCHAR
STARTCHAR T
ENCODING 84
SWIDTH 420 0
DWIDTH 12 0
BBX 12 18 0 0
BITMAP
7FFFFFFFFFF3
14444DB44441
00000C900000
00000C900000
00000C900000
00000C900000
00000C900000
00000C900000
00000C900000
00000C900000
00000C900000
00000C900000
00000C900000
00000C900000
00000C900000
00000C900000
00000C900000
00000C800000
ENDCHAR
STARTCHAR U
ENCODING 85
SWIDTH 552 0
DWIDTH 15 0
BBX 12 18 2 0
BITMAP
B900000002F3
CA00000003F3
CA00000003F3
CA00000003F3
CA00000003F3
CA00000003F3
CA00000003F3
CA00000003F3
CA00000003F3
CA00000003F3
CA00000003F3
CA00000003F3
CA00000003F3
CA00000003F3
BB00000004F3
8E10000008E0
2EC644459F70
02AEFFFFD600
ENDCHAR
STARTCHAR V
ENCODING 86
SWIDTH 500 0
DWIDTH 14 0
BBX 14 18 0 0
BITMAP
2F4000000004F2
0D9000000009D0
09D00000000D90
04F30000003F40
00E70000007E00
00AC000000CA00
006F100001F600
001F500006F100
000CA0000AC000
0007E0000E7000
0003F4004F2000
0000D8008D0000
00009C00D90000
00004F22F40000
00000E66E00000
00000ABBA00000
000006FF500000
000001FF100000
ENDCHAR
STARTCHAR W
ENCODING 87
SWIDTH 794 0
DWIDTH 22 0
BBX 22 18 0 0
BITMAP
1F70000000DF10000004F4
0DB0000002FF50000008F1
0AE0000006EA9000000BD0
06F200000AA6D000000EA0
03F500000E62F200002F60
00E800003F20D600005F30
00BB00007D009A00008E00
008E0000B9005E0000BB00
005F2000E5002F3000E800
001F6004F1000D7002F500
000D9008C00009B005F100
000AC00C800005E008D000
0006F01F400001F40CA000
0003F35F000000C80E6000
0000E68B0000008C3F3000
0000B9C70000004F7E0000
00008EF30000000FEB0000
00004FE00000000BF80000
ENDCHAR
STARTCHAR X
ENCODING 88
SWIDTH 504 0
DWIDTH 14 0
BBX 13 18 1 0
BITMAP
9D10000000CB00
2E70000006F300
07E200001E9000
00DA00008E1000
004F4002F60000
000AC00AC00000
0002F64F300000
00008EC9000000
00001FF3000000
00006EE9000000
0001E86F200000
0008E10DA00000
002F6005F40000
00AD0000BC0000
04F400003F5000
0CB000000AD000
5F30000002F700
D9000000008E10
ENDCHAR
STARTCHAR Y
ENCODING 89
SWIDTH 493 0
DWIDTH 14 0
BBX 13 18 0 0
BITMAP
2F600000000AE0
0AD00000002F70
03F60000009E10
00AD000002F700
003F600009E100
000AD0002F7000
0003F5009E1000
0000AD01E70000
00003F58E10000
00000ADE700000
000003FE100000
000000C9000000
000000C9000000
000000C9000000
000000C9000000
000000C9000000
000000C9000000
000000C9000000
ENDCHAR
STARTCHAR Z
ENCODING 90
SWIDTH 482 0
DWIDTH 14 0
BBX 12 18 1 0
BITMAP
7FFFFFFFFFF1
244444444DE0
000000005F60
00000001DC00
00000008F300
0000002F9000
000000BE1000
000005F60000
00001DC00000
00008F300000
0002F9000000
000BE1000000
005F60000000
01DC00000000
08F300000000
2F9000000000
AF5444444441
CFFFFFFFFFF4
ENDCHAR
STARTCHAR bracketleft
ENCODING 91
SWIDTH 287 0
DWIDTH 8 0
BBX 6 21 1 -3
BITMAP
3FFFF1
3F5440
3F1000
3F1000
3F1000
3F1000
3F1000
3F1000
3F1000
3F1000
3F1000
3F1000
3F1000
3F1000
3F1000
3F1000
3F1000
3F1000
3F2000
3FFFF1
033330
ENDCHAR
STARTCHAR backslash
ENCODING 92
SWIDTH 396 0
DWIDTH 11 0
BBX 9 18 1 0
BITMAP
3F30000000
0D90000000
07E0000000
02F5000000
00CA000000
006F100000
001F600000
000BC00000
0005F20000
0001E70000
0000AD0000
00004F3000
00000E8000
000009D000
000003F400
000000D900
0000008E00
0000002F40
ENDCHAR
STARTCHAR bracketright
ENCODING 93
SWIDTH 287 0
DWIDTH 8 0
BBX 5 21 1 -3
BITMAP
4FFFF0
1447F0
0004F0
0004F0
0004F0
0004F0
0004F0
0004F0
0004F0
0004F0
0004F0
0004F0
0004F0
0004F0
0004F0
0004F0
0004F0
0004F0
0004F0
4FFFF0
133330
ENDCHAR
STARTCHAR asciicircum
ENCODING 94
SWIDTH 465 0
DWIDTH 13 0
BBX 11 8 1 10
BITMAP
0000AFB00000
0004F5F50000
000C909D0000
006E101E6000
00D80007E100
07E10001D700
1E6000006E10
270000000730
ENDCHAR
STARTCHAR underscore
ENCODING 95
SWIDTH 372 0
DWIDTH 10 0
BBX 11 2 0 -4
BITMAP
FFFFFFFFFF60
333333333310
ENDCHAR
STARTCHAR grave
ENCODING 96
SWIDTH 269 0
DWIDTH 8 0
BBX 4 4 2 15
BITMAP
DD10
2E90
03E3
0044
ENDCHAR
STARTCHAR a
ENCODING 97
SWIDTH 502 0
DWIDTH 14 0
BBX 11 14 1 0
BITMAP
006DFFFFFFE0
07F9544449E0
0E90000007E0
2F40000007E0
3F30000007E0
3F30000007E0
3F30000007E0
3F30000007E0
3F30000007E0
3F30000007E0
2F40000008E0
0E9000000CE0
07F95446CDE0
006DFFFD86E0
ENDCHAR
STARTCHAR b
ENCODING 98
SWIDTH 504 0
DWIDTH 14 0
BBX 11 19 2 0
BITMAP
D70000000000
E80000000000
E80000000000
E80000000000
E80000000000
E86DFFFD7000
ECC64448F900
ED0000007F20
E80000003F40
E80000002F40
E80000002F40
E80000002F40
E80000002F40
E80000002F40
E80000002F40
E80000003F40
E80000007F10
EA444448F900
DFFFFFFD7000
ENDCHAR
STARTCHAR c
ENCODING 99
SWIDTH 394 0
DWIDTH 11 0
BBX 10 14 1 0
BITMAP
006DFFFFF1
07F9544440
0E90000000
2F40000000
3F30000000
3F30000000
3F30000000
3F30000000
3F30000000
3F30000000
2F40000000
0E90000000
07F9544440
006DFFFFF1
ENDCHAR
STARTCHAR d
ENCODING 100
SWIDTH 504 0
DWIDTH 14 0
BBX 11 19 1 0
BITMAP
0000000006F0
0000000006F0
0000000006F0
0000000006F0
0000000006F0
006DFFFD76F0
07F95445BCF0
0E9000000CF0
2F40000007F0
3F30000006F0
3F30000006F0
3F30000006F0
3F30000006F0
3F30000006F0
3F30000006F0
2F40000007F0
0E9000000CF0
07F95445BDF0
006DFFFD86F0
ENDCHAR
STARTCHAR e
ENCODING 101
SWIDTH 492 0
DWIDTH 14 0
BBX 12 14 1 0
BITMAP
006DFFFFC500
07F95445AF50
0E9000000AC0
2F50000006F1
3F30000004F1
3F30000004F1
3F40000005F1
3FFFFFFFFFF1
3F6333333330
3F3000000000
2F4000000000
0E8000000000
07F844444430
006DFFFFFFD0
ENDCHAR
STARTCHAR f
ENCODING 102
SWIDTH 303 0
DWIDTH 8 0
BBX 7 19 1 0
BITMAP
0004BED0
002FB530
007E1000
009C0000
00AC0000
EFFFFFD0
34BD4430
00AC0000
00AC0000
00AC0000
00AC0000
00AC0000
00AC0000
00AC0000
00AC0000
00AC0000
00AC0000
00AC0000
009B0000
ENDCHAR
STARTCHAR g
ENCODING 103
SWIDTH 506 0
DWIDTH 14 0
BBX 12 18 1 -4
BITMAP
005CFFFFFFF1
05FA544448F1
0DA0000005F1
0F60000005F1
1F50000005F1
1F50000005F1
1F50000005F1
1F50000005F1
1F50000005F1
1F50000006F1
0E90000009F1
08F620028EF1
008FFFFFC7F1
0001333205F1
0000000006F1
000000000BD0
01444445AF60
03FFFFFFC500
ENDCHAR
STARTCHAR h
ENCODING 104
SWIDTH 507 0
DWIDTH 14 0
BBX 11 19 2 0
BITMAP
D70000000000
E80000000000
E80000000000
E80000000000
E80000000000
E86DFFFD7000
ECC64459F800
ED1000008F10
E90000003F30
E80000002F40
E80000002F40
E80000002F40
E80000002F40
E80000002F40
E80000002F40
E80000002F40
E80000002F40
E80000002F40
D70000002F30
ENDCHAR
STARTCHAR i
ENCODING 105
SWIDTH 210 0
DWIDTH 6 0
BBX 2 19 2 0
BITMAP
B9
CA
B9
00
00
B9
CA
CA
CA
CA
CA
CA
CA
CA
CA
CA
CA
CA
B9
ENDCHAR
STARTCHAR j
ENCODING 106
SWIDTH 210 0
DWIDTH 6 0
BBX 6 23 -2 -4
BITMAP
0000B9
0000CA
0000B9
000000
000000
0000B9
0000CA
0000CA
0000CA
0000CA
0000CA
0000CA
0000CA
0000CA
0000CA
0000CA
0000CA
0000CA
0000CA
0000D9
0002F6
146DD1
6FEA20
ENDCHAR
STARTCHAR k
ENCODING 107
SWIDTH 431 0
DWIDTH 12 0
BBX 10 19 2 0
BITMAP
D700000000
E800000000
E800000000
E800000000
E800000000
E8000008E1
E800004F60
E80001DB00
E80009E200
E8004F6000
E801DB0000
E808F20000
E804F50000
E8009E1000
E8001DB000
E80003F600
E800008F20
E800000CC0
D7000002E8
ENDCHAR
STARTCHAR l
ENCODING 108
SWIDTH 210 0
DWIDTH 6 0
BBX 2 19 2 0
BITMAP
B9
CA
CA
CA
CA
CA
CA
CA
CA
CA
CA
CA
CA
CA
CA
CA
CA
CA
B9
ENDCHAR
STARTCHAR m
ENCODING 109
SWIDTH 769 0
DWIDTH 22 0
BBX 18 14 2 0
BITMAP
D76DFFE9106CFFE910
ECC6447EB7D6447ED0
ED100003FE100003F5
E9000000EA000000E8
E8000000D8000000D9
E8000000D8000000D9
E8000000D8000000D9
E8000000D8000000D9
E8000000D8000000D9
E8000000D8000000D9
E8000000D8000000D9
E8000000D8000000D9
E8000000D8000000D9
D7000000D8000000D8
ENDCHAR
STARTCHAR n
ENCODING 110
SWIDTH 507 0
DWIDTH 14 0
BBX 11 14 2 0
BITMAP
D76DFFFD7000
ECC64459F800
ED1000008F10
E90000003F30
E80000002F40
E80000002F40
E80000002F40
E80000002F40
E80000002F40
E80000002F40
E80000002F40
E80000002F40
E80000002F40
D70000002F30
ENDCHAR
STARTCHAR o
ENCODING 111
SWIDTH 496 0
DWIDTH 14 0
BBX 12 14 1 0
BITMAP
006DFFFFC500
07F95445AF60
0E9000000AD0
2F40000005F1
3F30000004F1
3F30000004F1
3F30000004F1
3F30000004F1
3F30000004F1
3F30000004F1
2F40000005F1
0E9000000AD0
07F954459F60
006DFFFFC500
ENDCHAR
STARTCHAR p
ENCODING 112
SWIDTH 504 0
DWIDTH 14 0
BBX 11 18 2 -4
BITMAP
D76DFFFD7000
ECC64448F900
ED1000007F10
E90000003F40
E80000002F40
E80000002F40
E80000002F40
E80000002F40
E80000002F40
E80000002F40
E90000003F40
ED1000007F10
EDC64448F900
E87DFFFD7000
E80000000000
E80000000000
E80000000000
D70000000000
ENDCHAR
STARTCHAR q
ENCODING 113
SWIDTH 502 0
DWIDTH 14 0
BBX 11 18 1 -4
BITMAP
006DFFFFFFE0
07F9544449E0
0E90000007E0
2F40000007E0
3F30000007E0
3F30000007E0
3F30000007E0
3F30000007E0
3F30000007E0
3F30000007E0
2F40000008E0
0E9000001DE0
07F95446CDE0
006DFFFE77E0
0000000007E0
0000000007E0
0000000007E0
0000000006E0
ENDCHAR
STARTCHAR r
ENCODING 114
SWIDTH 313 0
DWIDTH 9 0
BBX 6 14 2 0
BITMAP
D75CFF
ECD644
EE1000
E90000
E80000
E80000
E80000
E80000
E80000
E80000
E80000
E80000
E80000
D70000
ENDCHAR
STARTCHAR s
ENCODING 115
SWIDTH 431 0
DWIDTH 12 0
BBX 10 14 1 0
BITMAP
04CEFFFFD0
3FB5444430
7E00000000
8D00000000
5F30000000
0AE9300000
004BFC6100
000027DE60
00000008F2
00000000F7
00000000E8
00000001F7
1444445CE2
6FFFFFEB40
ENDCHAR
STARTCHAR t
ENCODING 116
SWIDTH 347 0
DWIDTH 10 0
BBX 9 17 0 0
BITMAP
000F500000
000F600000
001F600000
4FFFFFFF40
145F944410
000F600000
000F600000
000F600000
000F600000
000F600000
000F600000
000F600000
000F600000
000F700000
000CB00000
0005FB5420
00004BEF80
ENDCHAR
STARTCHAR u
ENCODING 117
SWIDTH 507 0
DWIDTH 14 0
BBX 12 14 1 0
BITMAP
1F50000004F1
1F50000004F1
1F50000004F1
1F50000004F1
1F50000004F1
1F50000004F1
1F50000004F1
1F50000004F1
1F50000004F1
1F50000004F1
0F60000006F1
0DB000000BF1
05FA5445BDF1
005CFFFE95F1
ENDCHAR
STARTCHAR v
ENCODING 118
SWIDTH 416 0
DWIDTH 12 0
BBX 11 14 0 0
BITMAP
5F10000006E0
1F6000000BA0
0BA000001F60
07E000006F10
02F40000AB00
00C90000E600
007E0004F200
003F3009C000
000D800D7000
0008D03F2000
0003F28D0000
0000E7C80000
00009DF30000
00004FD00000
ENDCHAR
STARTCHAR w
ENCODING 119
SWIDTH 683 0
DWIDTH 19 0
BBX 19 14 0 0
BITMAP
5F2000004F6000001E70
1F6000008FA000004F30
0CA00000CBE000009D00
07E00001F3F30000D900
03F30006D0C70002F400
00D8000A908B0006E100
009C000E504F000AB000
004F103F100E400E6000
001F507C000A804F2000
000B90B80006C08C0000
0006D0F40002F1C80000
0002F6E00000D6F40000
0000CEB000009EE00000
00008F6000005FA00000
ENDCHAR
STARTCHAR x
ENCODING 120
SWIDTH 413 0
DWIDTH 12 0
BBX 11 14 0 0
BITMAP
0DA000003F60
06F30000BC00
00CC0004F400
003F500CA000
0009D05F2000
0001E7D80000
00007FE10000
00008FE20000
0002F6CA0000
000BC03F4000
005F300AD100
01DA0002E800
08E200007F20
2F7000000DB0
ENDCHAR
STARTCHAR y
ENCODING 121
SWIDTH 459 0
DWIDTH 13 0
BBX 12 18 0 -4
BITMAP
2F500000006E
0CA0000000CA
06F1000002F4
01F6000008E0
00BB00000D90
005F20003F40
001E70009D00
0009C000E800
0004F204F300
0000E809D000
00008D1E7000
00003F8F2000
00000DFC0000
000002E60000
000006F10000
00001D900000
0246CD100000
08FEA2000000
ENDCHAR
STARTCHAR z
ENCODING 122
SWIDTH 405 0
DWIDTH 11 0
BBX 10 14 1 0
BITMAP
DFFFFFFFF2
3444444DE1
0000005F50
000001EB00
000009E200
00004F7000
0000DC0000
0008F30000
003F800000
00CD000000
06F4000000
2E90000000
AF54444441
FFFFFFFFF5
ENDCHAR
STARTCHAR braceleft
ENCODING 123
SWIDTH 298 0
DWIDTH 8 0
BBX 6 21 1 -3
BITMAP
0007EA
005E72
00B800
00D500
00E500
00E500
00E500
00E500
00F400
18E100
FF4000
3AD100
00F400
00E500
00E500
00E500
00E500
00C700
008D30
001BFA
000012
ENDCHAR
STARTCHAR bar
ENCODING 124
SWIDTH 207 0
DWIDTH 6 0
BBX 2 18 2 0
BITMAP
A7
B7
B7
B7
B7
B7
B7
B7
B7
B7
B7
B7
B7
B7
B7
B7
B7
A7
ENDCHAR
STARTCHAR braceright
ENCODING 125
SWIDTH 298 0
DWIDTH 8 0
BBX 6 21 1 -3
BITMAP
ED4000
49E100
00D700
00A900
009A00
009A00
009A00
009A00
008B00
004F40
0008FA
003F72
008B00
009A00
009A00
009A00
009900
00B800
15F400
EF8000
310000
ENDCHAR
STARTCHAR asciitilde
ENCODING 126
SWIDTH 523 0
DWIDTH 15 0
BBX 12 3 1 7
BITMAP
07DFEB74128A
1E8458CFFFE5
010000002300
ENDCHAR
STARTCHAR uni00A0
ENCODING 160
SWIDTH 267 0
DWIDTH 7 0
BBX 1 1 0 0
BITMAP
00
ENDCHAR
STARTCHAR exclamdown
ENCODING 161
SWIDTH 237 0
DWIDTH 7 0
BBX 3 18 2 0
BITMAP
6F10
6F10
6F10
6F10
0000
0000
3B00
4D00
5E00
5F00
6F00
6F10
7F10
7F20
7F20
7F20
7F20
7F20
ENDCHAR
STARTCHAR cent
ENCODING 162
SWIDTH 414 0
DWIDTH 12 0
BBX 10 20 1 -3
BITMAP
000005D000
000006D000
000006D000
006DFFFFF8
07F9544442
0E90000000
2F40000000
3F30000000
3F30000000
3F30000000
3F30000000
3F30000000
3F30000000
2F40000000
0E90000000
07F9544442
006DFFFFF8
000006D000
000006D000
0000026000
ENDCHAR
STARTCHAR sterling
ENCODING 163
SWIDTH 528 0
DWIDTH 15 0
BBX 12 18 1 0
BITMAP
0004BEFFEA30
004FA5446CE2
00BC000001E8
00E8000000BB
00E70000009A
00E700000000
00E700000000
00E700000000
00E700000000
FFFFFFFF5000
33E933331000
00E700000000
00E700000000
00E700000000
00E700000000
01F500000000
4BE444444443
EFFFFFFFFFFD
ENDCHAR
STARTCHAR yen
ENCODING 165
SWIDTH 499 0
DWIDTH 14 0
BBX 14 18 0 0
BITMAP
1F8000000008E1
08E10000001F80
01E80000008E10
008E100001E800
001E700008E100
0008E1001E8000
0001E7008E1000
00008E11E70000
0EEEEF77FEEED0
022228EE822220
000001EE100000
000000BB000000
0EFFFFFFFFFFE0
033333CB333330
000000BA000000
000000BA000000
000000BA000000
000000BA000000
ENDCHAR
STARTCHAR brokenbar
ENCODING 166
SWIDTH 201 0
DWIDTH 6 0
BBX 2 18 2 0
BITMAP
C6
C6
C6
C6
C6
C6
C6
00
00
00
00
C6
C6
C6
C6
C6
C6
C6
ENDCHAR
STARTCHAR section
ENCODING 167
SWIDTH 454 0
DWIDTH 13 0
BBX 10 18 1 0
BITMAP
029DFFFFF2
0CE6444440
3F40000000
4F20000000
5F40000000
5FE7310000
5F7DFFD930
5F00147CF5
4F100000AD
2F5000006F
08F952005F
005ADFEB9F
00000148FF
000000009F
000000006F
00000000AD
04444458F6
2FFFFFEC60
ENDCHAR
STARTCHAR dieresis
ENCODING 168
SWIDTH 345 0
DWIDTH 10 0
BBX 7 4 1 15
BITMAP
2F3008B0
2F3008C0
2F3008C0
2F3008B0
ENDCHAR
STARTCHAR copyright
ENCODING 169
SWIDTH 723 0
DWIDTH 20 0
BBX 17 18 2 0
BITMAP
05CFFFFFFFFFFD7000
4F954444444447E800
C80000000000005F00
E30000000000000F20
F20006CFFD70000E30
F2004E7447E6000E30
F2009900007B000E30
F200B600005C000E30
F200B6000002000E30
F200B6000000000E30
F200B6000001000E30
F200B600005C000E30
F2009800006B000E30
F2004D3003C6000E30
E30006CEED70000F20
C80000000000004F00
5F954444444447E800
05CEFFFFFFFFFD7000
ENDCHAR
STARTCHAR guillemotleft
ENCODING 171
SWIDTH 431 0
DWIDTH 12 0
BBX 10 10 1 2
BITMAP
0000540063
0006E206E1
006E307D20
06E307D200
2E303E2000
1E602E5000
03E603E500
003E603E60
0002E303E2
0000220032
ENDCHAR
STARTCHAR registered
ENCODING 174
SWIDTH 439 0
DWIDTH 12 0
BBX 10 9 1 10
BITMAP
02AEFFFC40
0BAAFFC7E2
1D0684C095
1B0661C076
1B06FFA076
1C06867085
0D632054D2
04EFFFFF70
0003333100
ENDCHAR
STARTCHAR macron
ENCODING 175
SWIDTH 358 0
DWIDTH 10 0
BBX 8 2 1 16
BITMAP
2FFFFFF2
04444440
ENDCHAR
STARTCHAR degree
ENCODING 176
SWIDTH 298 0
DWIDTH 8 0
BBX 5 7 2 12
BITMAP
7FFB00
C74E20
C20C20
C20C20
C41D20
9FFD00
033100
ENDCHAR
STARTCHAR plusminus
ENCODING 177
SWIDTH 523 0
DWIDTH 15 0
BBX 12 12 1 2
BITMAP
000005E00000
000005F00000
000005F00000
1FFFFFFFFFFA
033337F33332
000005F00000
000005F00000
000005E00000
000000000000
000000000000
0FFFFFFFFFFA
033333333332
ENDCHAR
STARTCHAR acute
ENCODING 180
SWIDTH 269 0
DWIDTH 8 0
BBX 4 4 2 15
BITMAP
06F6
1E80
AA00
7100
ENDCHAR
STARTCHAR paragraph
ENCODING 182
SWIDTH 513 0
DWIDTH 14 0
BBX 11 18 1 0
BITMAP
04BEFFFFFFE0
2FFFF54448E0
7FFFF10005E0
9FFFF10005E0
9FFFF10005E0
9FFFF10005E0
7FFFF10005E0
3FFFF10005E0
04CEF10005E0
0003F10005E0
0003F10005E0
0003F10005E0
0003F10005E0
0003F10005E0
0003F10005E0
0003F10005E0
0003F10005E0
0003F10005D0
ENDCHAR
STARTCHAR periodcentered
ENCODING 183
SWIDTH 207 0
DWIDTH 6 0
BBX 2 4 2 7
BITMAP
DA
EA
EA
DA
ENDCHAR
STARTCHAR cedilla
ENCODING 184
SWIDTH 257 0
DWIDTH 7 0
BBX 5 7 1 -6
BITMAP
002300
04A100
1EE900
001C40
002C40
0EFC10
032000
ENDCHAR
STARTCHAR guillemotright
ENCODING 187
SWIDTH 431 0
DWIDTH 12 0
BBX 10 10 1 2
BITMAP
2700360000
1D701D6000
02D802D700
002D802D70
0002D402D3
0004E205E2
004E405E30
05E405E300
2E402E3000
1300230000
ENDCHAR
STARTCHAR questiondown
ENCODING 191
SWIDTH 473 0
DWIDTH 13 0
BBX 10 18 2 0
BITMAP
0005F30000
0005F30000
0005F30000
0005F30000
0000000000
0000200000
0004F20000
0004F10000
0008E00000
006F500000
08F5000000
7F40000000
D900000161
F6000003F4
F7000003F3
CB000007F1
5F94348F80
05CFFFD700
ENDCHAR
STARTCHAR Agrave
ENCODING 192
SWIDTH 532 0
DWIDTH 15 0
BBX 14 23 0 0
BITMAP
0000BE20000000
00001CB0000000
000002E5000000
00000026000000
00000000000000
0000009F800000
000000EED00000
000004F5F30000
000009C0E80000
00000E709D0000
00004F304F3000
00009D000E7000
0000D8000AC000
0003F40005F200
0008E00001F700
000D900000BC00
003F5000006F10
007FFFFFFFFF60
00CB3333333CB0
02F500000007F1
07E100000002F6
0CA000000000CB
1F50000000006F
ENDCHAR
STARTCHAR Aacute
ENCODING 193
SWIDTH 532 0
DWIDTH 15 0
BBX 14 23 0 0
BITMAP
000000003F9000
00000000CB0000
00000007D10000
00000006200000
00000000000000
0000009F800000
000000EED00000
000004F5F30000
000009C0E80000
00000E709D0000
00004F304F3000
00009D000E7000
0000D8000AC000
0003F40005F200
0008E00001F700
000D900000BC00
003F5000006F10
007FFFFFFFFF60
00CB3333333CB0
02F500000007F1
07E100000002F6
0CA000000000CB
1F50000000006F
ENDCHAR
STARTCHAR Acircumflex
ENCODING 194
SWIDTH 532 0
DWIDTH 15 0
BBX 14 23 0 0
BITMAP
0000008E600000
000003E3E20000
00000B708A0000
00001700171000
00000000000000
0000009F800000
000000EED00000
000004F5F30000
000009C0E80000
00000E709D0000
00004F304F3000
00009D000E7000
0000D8000AC000
0003F40005F200
0008E00001F700
000D900000BC00
003F5000006F10
007FFFFFFFFF60
00CB3333333CB0
02F500000007F1
07E100000002F6
0CA000000000CB
1F50000000006F
ENDCHAR
STARTCHAR Atilde
ENCODING 195
SWIDTH 532 0
DWIDTH 15 0
BBX 14 23 0 0
BITMAP
00008505ED1000
0000850C6A5000
0000673C076000
00001CC4066000
00000000000000
0000009F800000
000000EED00000
000004F5F30000
000009C0E80000
00000E709D0000
00004F304F3000
00009D000E7000
0000D8000AC000
0003F40005F200
0008E00001F700
000D900000BC00
003F5000006F10
007FFFFFFFFF60
00CB3333333CB0
02F500000007F1
07E100000002F6
0CA000000000CB
1F50000000006F
ENDCHAR
STARTCHAR Adieresis
ENCODING 196
SWIDTH 532 0
DWIDTH 15 0
BBX 14 23 0 0
BITMAP
00007D000E6000
00008D000E6000
00008D000E6000
00007D000E6000
00000000000000
0000009F800000
000000EED00000
000004F5F30000
000009C0E80000
00000E709D0000
00004F304F3000
00009D000E7000
0000D8000AC000
0003F40005F200
0008E00001F700
000D900000BC00
003F5000006F10
007FFFFFFFFF60
00CB3333333CB0
02F500000007F1
07E100000002F6
0CA000000000CB
1F50000000006F
ENDCHAR
STARTCHAR Aring
ENCODING 197
SWIDTH 532 0
DWIDTH 15 0
BBX 14 24 0 0
BITMAP
000004EFD30000
00000C749A0000
00000D002B0000
00000C416A0000
000006FFF40000
00000023100000
0000009F800000
000000EED00000
000004F5F30000
000009C0E80000
00000E709D0000
00004F304F3000
00009D000E7000
0000D8000AC000
0003F40005F200
0008E00001F700
000D900000BC00
003F5000006F10
007FFFFFFFFF60
00CB3333333CB0
02F500000007F1
07E100000002F6
0CA000000000CB
1F50000000006F
ENDCHAR
STARTCHAR AE
ENCODING 198
SWIDTH 773 0
DWIDTH 22 0
BBX 20 18 0 0
BITMAP
0000000008FFFFFFFFFC
000000002FDF44444443
00000000AD7F00000000
00000003F57F00000000
0000000BC07F00000000
0000004F407F00000000
000000CB007F00000000
000006F3007F10000000
00000DA0007FFFFFFFF1
00007F20007F33333330
0001E800007F00000000
0008E200007F00000000
002FFFFFFFFF00000000
00AE3333338F00000000
03F60000007F00000000
0BC00000007F00000000
4F400000007F44444443
CA000000006FFFFFFFFC
ENDCHAR
STARTCHAR Ccedilla
ENCODING 199
SWIDTH 542 0
DWIDTH 15 0
BBX 12 24 2 -6
BITMAP
03BEFFFFD810
3FB544447EB0
AD00000005F3
D900000000F6
E800000000E7
E80000000095
E80000000000
E80000000000
E80000000000
E80000000000
E80000000000
E80000000000
E80000000094
E800000000E7
D900000000F6
AD00000005F4
3FB544447EB0
03BEFFFFD910
00000A700000
00007E820000
0000137B0000
0000014D0000
00006FF80000
000013200000
ENDCHAR
STARTCHAR Egrave
ENCODING 200
SWIDTH 481 0
DWIDTH 13 0
BBX 10 23 2 0
BITMAP
00BE200000
001DA00000
0002E40000
0000350000
0000000000
9FFFFFFFF9
9D44444442
9C00000000
9C00000000
9C00000000
9C00000000
9C00000000
9C00000000
9FFFFFFFC0
9D33333320
9C00000000
9C00000000
9C00000000
9C00000000
9C00000000
9C00000000
9D44444442
9FFFFFFFF9
ENDCHAR
STARTCHAR Eacute
ENCODING 201
SWIDTH 481 0
DWIDTH 13 0
BBX 10 23 2 0
BITMAP
000001EC00
000009D200
00003E3000
0000530000
0000000000
9FFFFFFFF9
9D44444442
9C00000000
9C00000000
9C00000000
9C00000000
9C00000000
9C00000000
9FFFFFFFC0
9D33333320
9C00000000
9C00000000
9C00000000
9C00000000
9C00000000
9C00000000
9D44444442
9FFFFFFFF9
ENDCHAR
STARTCHAR Ecircumflex
ENCODING 202
SWIDTH 481 0
DWIDTH 13 0
BBX 10 23 2 0
BITMAP
0001DD1000
0009889000
004E11E300
0054004500
0000000000
9FFFFFFFF9
9D44444442
9C00000000
9C00000000
9C00000000
9C00000000
9C00000000
9C00000000
9FFFFFFFC0
9D33333320
9C00000000
9C00000000
9C00000000
9C00000000
9C00000000
9C00000000
9D44444442
9FFFFFFFF9
ENDCHAR
STARTCHAR Edieresis
ENCODING 203
SWIDTH 481 0
DWIDTH 13 0
BBX 10 23 2 0
BITMAP
00E6006E00
00F6006F00
00F6006F00
00E6006E00
0000000000
9FFFFFFFF9
9D44444442
9C00000000
9C00000000
9C00000000
9C00000000
9C00000000
9C00000000
9FFFFFFFC0
9D33333320
9C00000000
9C00000000
9C00000000
9C00000000
9C00000000
9C00000000
9D44444442
9FFFFFFFF9
ENDCHAR
STARTCHAR Igrave
ENCODING 204
SWIDTH 230 0
DWIDTH 6 0
BBX 4 23 0 0
BITMAP
CE10
1D90
03E3
0035
0000
007D
007E
007E
007E
007E
007E
007E
007E
007E
007E
007E
007E
007E
007E
007E
007E
007E
007D
ENDCHAR
STARTCHAR Iacute
ENCODING 205
SWIDTH 231 0
DWIDTH 6 0
BBX 5 23 2 0
BITMAP
008F40
03F700
0C9000
160000
000000
7D0000
7E0000
7E0000
7E0000
7E0000
7E0000
7E0000
7E0000
7E0000
7E0000
7E0000
7E0000
7E0000
7E0000
7E0000
7E0000
7E0000
7D0000
ENDCHAR
STARTCHAR Icircumflex
ENCODING 206
SWIDTH 229 0
DWIDTH 6 0
BBX 6 23 0 0
BITMAP
00BE30
06B5C0
1E30C6
350026
000000
007D00
007E00
007E00
007E00
007E00
007E00
007E00
007E00
007E00
007E00
007E00
007E00
007E00
007E00
007E00
007E00
007E00
007D00
ENDCHAR
STARTCHAR Idieresis
ENCODING 207
SWIDTH 230 0
DWIDTH 6 0
BBX 7 23 0 0
BITMAP
B9002F20
B9003F30
B9003F30
B9002F20
00000000
007D0000
007E0000
007E0000
007E0000
007E0000
007E0000
007E0000
007E0000
007E0000
007E0000
007E0000
007E0000
007E0000
007E0000
007E0000
007E0000
007E0000
007D0000
ENDCHAR
STARTCHAR Eth
ENCODING 208
SWIDTH 514 0
DWIDTH 14 0
BBX 14 18 0 0
BITMAP
008FFFFFFFE910
008E4444446EC0
008D00000003F5
008D00000000D8
008D00000000C9
008D00000000C9
008D00000000C9
008D10000000C9
4FFFFFFF8000C9
13AE33331000C9
008D00000000C9
008D00000000C9
008D00000000C9
008D00000000C9
008D00000000D8
008D00000003F5
008E4444446DC0
008FFFFFFFE910
ENDCHAR
STARTCHAR Ntilde
ENCODING 209
SWIDTH 579 0
DWIDTH 16 0
BBX 12 23 2 0
BITMAP
000D009F9000
000D03D5E000
000C3970C100
0007FE10B200
000021002000
9D100000008D
9F800000008D
9FF20000008D
9CDA0000008D
9C4F4000008D
9C0AC000008D
9C02F600008D
9C008E10008D
9C001D90008D
9C0005F3008D
9C0000BB008D
9C00003F508D
9C000009D18D
9C000001E78D
9C0000006EAD
9C0000000CFD
9C00000004FD
9B00000000AD
ENDCHAR
STARTCHAR Ograve
ENCODING 210
SWIDTH 553 0
DWIDTH 15 0
BBX 12 23 2 0
BITMAP
003F90000000
0006F4000000
00008C000000
000006200000
000000000000
03BEFFFFD800
3FB544448EA0
AD00000006F2
D900000001F5
E800000000F6
E800000000F6
E800000000F6
E800000000F6
E800000000F6
E800000000F6
E800000000F6
E800000000F6
E800000000F6
E800000000F6
D900000001F5
AD00000006F2
3FB544448EA0
03BEFFFFD800
ENDCHAR
STARTCHAR Oacute
ENCODING 211
SWIDTH 553 0
DWIDTH 15 0
BBX 12 23 2 0
BITMAP
0000004F9000
000000DB0000
000007D10000
000006200000
000000000000
03BEFFFFD800
3FB544448EA0
AD00000006F2
D900000001F5
E800000000F6
E800000000F6
E800000000F6
E800000000F6
E800000000F6
E800000000F6
E800000000F6
E800000000F6
E800000000F6
E800000000F6
D900000001F5
AD00000006F2
3FB544448EA0
03BEFFFFD800
ENDCHAR
STARTCHAR Ocircumflex
ENCODING 212
SWIDTH 553 0
DWIDTH 15 0
BBX 12 23 2 0
BITMAP
00004EA00000
0000D5C50000
0007B04E1000
000620063000
000000000000
03BEFFFFD800
3FB544448EA0
AD00000006F2
D900000001F5
E800000000F6
E800000000F6
E800000000F6
E800000000F6
E800000000F6
E800000000F6
E800000000F6
E800000000F6
E800000000F6
E800000000F6
D900000001F5
AD00000006F2
3FB544448EA0
03BEFFFFD800
ENDCHAR
STARTCHAR Otilde
ENCODING 213
SWIDTH 553 0
DWIDTH 15 0
BBX 12 23 2 0
BITMAP
004902DE4000
004908989000
003C2E22B000
000DFA02B000
000130002000
03BEFFFFD800
3FB544448EA0
AD00000006F2
D900000001F5
E800000000F6
E800000000F6
E800000000F6
E800000000F6
E800000000F6
E800000000F6
E800000000F6
E800000000F6
E800000000F6
E800000000F6
D900000001F5
AD00000006F2
3FB544448EA0
03BEFFFFD800
ENDCHAR
STARTCHAR Odieresis
ENCODING 214
SWIDTH 553 0
DWIDTH 15 0
BBX 12 23 2 0
BITMAP
003F200AA000
004F200AB000
004F200AB000
003F200AA000
000000000000
03BEFFFFD800
3FB544448EA0
AD00000006F2
D900000001F5
E800000000F6
E800000000F6
E800000000F6
E800000000F6
E800000000F6
E800000000F6
E800000000F6
E800000000F6
E800000000F6
E800000000F6
D900000001F5
AD00000006F2
3FB544448EA0
03BEFFFFD800
ENDCHAR
STARTCHAR multiply
ENCODING 215
SWIDTH 493 0
DWIDTH 14 0
BBX 9 10 2 4
BITMAP
0100000010
3F500008E0
09F5008F50
009F58F500
0009FF5000
0008FF5000
008F58F500
08F5008F50
3F500009E0
0100000010
ENDCHAR
STARTCHAR Oslash
ENCODING 216
SWIDTH 559 0
DWIDTH 16 0
BBX 14 18 1 0
BITMAP
003BEFFFFD8182
02EC544446EDD1
09D10000006F50
0CA0000001DF60
0D80000009BE70
0D8000005E1E80
0D800002E40E80
0D80000B800E80
0D80007C000E80
0D8003E2000E80
0D801D60000E80
0D809A00000E80
0D85D100000E80
0DAE4000000E80
0CF80000000F70
0AE10000005F40
3EEB544447EB00
753BEFFFFE9100
ENDCHAR
STARTCHAR Ugrave
ENCODING 217
SWIDTH 552 0
DWIDTH 15 0
BBX 12 23 2 0
BITMAP
002EB0000000
0004F6000000
00005E100000
000005300000
000000000000
B900000002F3
CA00000003F3
CA00000003F3
CA00000003F3
CA00000003F3
CA00000003F3
CA00000003F3
CA00000003F3
CA00000003F3
CA00000003F3
CA00000003F3
CA00000003F3
CA00000003F3
CA00000003F3
BB00000004F3
8E10000008E0
2EC644459F70
02AEFFFFD600
ENDCHAR
STARTCHAR Uacute
ENCODING 218
SWIDTH 552 0
DWIDTH 15 0
BBX 12 23 2 0
BITMAP
0000003F9000
000000CB0000
000007D10000
000006200000
000000000000
B900000002F3
CA00000003F3
CA00000003F3
CA00000003F3
CA00000003F3
CA00000003F3
CA00000003F3
CA00000003F3
CA00000003F3
CA00000003F3
CA00000003F3
CA00000003F3
CA00000003F3
CA00000003F3
BB00000004F3
8E10000008E0
2EC644459F70
02AEFFFFD600
ENDCHAR
STARTCHAR Ucircumflex
ENCODING 219
SWIDTH 552 0
DWIDTH 15 0
BBX 12 23 2 0
BITMAP
00004EA00000
0000D5C50000
0007B04E1000
000720063000
000000000000
B900000002F3
CA00000003F3
CA00000003F3
CA00000003F3
CA00000003F3
CA00000003F3
CA00000003F3
CA00000003F3
CA00000003F3
CA00000003F3
CA00000003F3
CA00000003F3
CA00000003F3
CA00000003F3
BB00000004F3
8E10000008E0
2EC644459F70
02AEFFFFD600
ENDCHAR
STARTCHAR Udieresis
ENCODING 220
SWIDTH 552 0
DWIDTH 15 0
BBX 12 23 2 0
BITMAP
003F200AA000
004F200AB000
004F200AB000
003F200AA000
000000000000
B900000002F3
CA00000003F3
CA00000003F3
CA00000003F3
CA00000003F3
CA00000003F3
CA00000003F3
CA00000003F3
CA00000003F3
CA00000003F3
CA00000003F3
CA00000003F3
CA00000003F3
CA00000003F3
BB00000004F3
8E10000008E0
2EC644459F70
02AEFFFFD600
ENDCHAR
STARTCHAR Yacute
ENCODING 221
SWIDTH 493 0
DWIDTH 14 0
BBX 13 23 0 0
BITMAP
00000001EC0000
00000009E20000
0000003E300000
00000053000000
00000000000000
2F600000000AE0
0AD00000002F70
03F60000009E10
00AD000002F700
003F600009E100
000AD0002F7000
0003F5009E1000
0000AD01E70000
00003F58E10000
00000ADE700000
000003FE100000
000000C9000000
000000C9000000
000000C9000000
000000C9000000
000000C9000000
000000C9000000
000000C9000000
ENDCHAR
STARTCHAR Thorn
ENCODING 222
SWIDTH 501 0
DWIDTH 14 0
BBX 10 18 3 0
BITMAP
B900000000
CA00000000
CA00000000
CA00000000
CFFFFFC500
CB4445AF60
CA00000AD0
CA000006F0
CA000005F1
CA000005F1
CA000005F1
CA000009E0
CA00026F80
CFFFFFF800
CB33331000
CA00000000
CA00000000
B900000000
ENDCHAR
STARTCHAR germandbls
ENCODING 223
SWIDTH 540 0
DWIDTH 15 0
BBX 12 18 2 0
BITMAP
03BEFFFEB300
2EC64445BF30
8E1000000DA0
BA00000009D0
C900000008D0
C900000008D0
C90000000CA0
C90000129E30
C9002FFFF400
C9000335BE30
C90000000BC0
C900000005F1
C900000004F2
C900000004F2
C900000005F2
C90000000AE0
C90024459F60
B900BFFFC600
ENDCHAR
STARTCHAR agrave
ENCODING 224
SWIDTH 502 0
DWIDTH 14 0
BBX 11 19 1 0
BITMAP
0002EA000000
00004F500000
000006E10000
000000420000
000000000000
006DFFFFFFE0
07F9544449E0
0E90000007E0
2F40000007E0
3F30000007E0
3F30000007E0
3F30000007E0
3F30000007E0
3F30000007E0
3F30000007E0
2F40000008E0
0E9000000CE0
07F95446CDE0
006DFFFD86E0
ENDCHAR
STARTCHAR aacute
ENCODING 225
SWIDTH 502 0
DWIDTH 14 0
BBX 11 19 1 0
BITMAP
00000009F300
0000004F5000
000001D70000
000001400000
000000000000
006DFFFFFFE0
07F9544449E0
0E90000007E0
2F40000007E0
3F30000007E0
3F30000007E0
3F30000007E0
3F30000007E0
3F30000007E0
3F30000007E0
2F40000008E0
0E9000000CE0
07F95446CDE0
006DFFFD86E0
ENDCHAR
STARTCHAR acircumflex
ENCODING 226
SWIDTH 502 0
DWIDTH 14 0
BBX 11 19 1 0
BITMAP
000009E50000
00004D3E1000
0001D409A000
000140015000
000000000000
006DFFFFFFE0
07F9544449E0
0E90000007E0
2F40000007E0
3F30000007E0
3F30000007E0
3F30000007E0
3F30000007E0
3F30000007E0
3F30000007E0
2F40000008E0
0E9000000CE0
07F95446CDE0
006DFFFD86E0
ENDCHAR
STARTCHAR atilde
ENCODING 227
SWIDTH 504 0
DWIDTH 14 0
BBX 11 19 1 0
BITMAP
0005705EE400
000591D69800
0001BD704800
000000000000
000000000000
006DFFFFFFE0
07F9544449E0
0E90000007E0
2F40000007E0
3F30000007E0
3F30000007E0
3F30000007E0
3F30000007E0
3F30000007E0
3F30000007E0
2F40000008E0
0E9000000CE0
07F95446CDE0
006DFFFD86E0
ENDCHAR
STARTCHAR adieresis
ENCODING 228
SWIDTH 502 0
DWIDTH 14 0
BBX 11 19 1 0
BITMAP
0007D000D600
0007D000E700
0007D000E700
0007D000D600
000000000000
006DFFFFFFE0
07F9544449E0
0E90000007E0
2F40000007E0
3F30000007E0
3F30000007E0
3F30000007E0
3F30000007E0
3F30000007E0
3F30000007E0
2F40000008E0
0E9000000CE0
07F95446CDE0
006DFFFD86E0
ENDCHAR
STARTCHAR aring
ENCODING 229
SWIDTH 502 0
DWIDTH 14 0
BBX 11 20 1 0
BITMAP
00009FFC1000
0001D44B5000
0002A0066000
0001C1195000
0000BFFE2000
000003310000
006DFFFFFFE0
07F9544449E0
0E90000007E0
2F40000007E0
3F30000007E0
3F30000007E0
3F30000007E0
3F30000007E0
3F30000007E0
3F30000007E0
2F40000008E0
0E9000000CE0
07F95446CDE0
006DFFFD86E0
ENDCHAR
STARTCHAR ae
ENCODING 230
SWIDTH 795 0
DWIDTH 22 0
BBX 20 14 1 0
BITMAP
00CFFFFEA207DFFFD910
00344445CE9E74446DC0
000000001EF4000002F4
0000000009E0000000D7
0000000008E0000000C7
0000000009E0000000C7
007DFFFFFFE0000000C7
09D4000008FFFFFFFFF7
1F50000008E333333331
3F30000008E000000000
3F30000008F000000000
1F7000000DF400000000
08F84446CCBE74444441
006CEFFD9119EFFFFFF7
ENDCHAR
STARTCHAR ccedilla
ENCODING 231
SWIDTH 394 0
DWIDTH 11 0
BBX 10 20 1 -6
BITMAP
006DFFFFF1
07F9544440
0E90000000
2F40000000
3F30000000
3F30000000
3F30000000
3F30000000
3F30000000
3F30000000
2F40000000
0E90000000
07F9544440
006DFFFFF1
00001C5000
00009D8200
0000138A00
0000016C00
00007FF600
0000131000
ENDCHAR
STARTCHAR egrave
ENCODING 232
SWIDTH 492 0
DWIDTH 14 0
BBX 12 19 1 0
BITMAP
000CE1000000
0001DA000000
00002E400000
000002300000
000000000000
006DFFFFC500
07F95445AF50
0E9000000AC0
2F50000006F1
3F30000004F1
3F30000004F1
3F40000005F1
3FFFFFFFFFF1
3F6333333330
3F3000000000
2F4000000000
0E8000000000
07F844444430
006DFFFFFFD0
ENDCHAR
STARTCHAR eacute
ENCODING 233
SWIDTH 492 0
DWIDTH 14 0
BBX 12 19 1 0
BITMAP
0000004F8000
000001DA0000
000008B00000
000004100000
000000000000
006DFFFFC500
07F95445AF50
0E9000000AC0
2F50000006F1
3F30000004F1
3F30000004F1
3F40000005F1
3FFFFFFFFFF1
3F6333333330
3F3000000000
2F4000000000
0E8000000000
07F844444430
006DFFFFFFD0
ENDCHAR
STARTCHAR ecircumflex
ENCODING 234
SWIDTH 492 0
DWIDTH 14 0
BBX 12 19 1 0
BITMAP
00002DD10000
0000A78A0000
0005D01D4000
000320023000
000000000000
006DFFFFC500
07F95445AF50
0E9000000AC0
2F50000006F1
3F30000004F1
3F30000004F1
3F40000005F1
3FFFFFFFFFF1
3F6333333330
3F3000000000
2F4000000000
0E8000000000
07F844444430
006DFFFFFFD0
ENDCHAR
STARTCHAR edieresis
ENCODING 235
SWIDTH 492 0
DWIDTH 14 0
BBX 12 19 1 0
BITMAP
000F5006E000
000F6006E000
000F6006E000
000F5006E000
000000000000
006DFFFFC500
07F95445AF50
0E9000000AC0
2F50000006F1
3F30000004F1
3F30000004F1
3F40000005F1
3FFFFFFFFFF1
3F6333333330
3F3000000000
2F4000000000
0E8000000000
07F844444430
006DFFFFFFD0
ENDCHAR
STARTCHAR igrave
ENCODING 236
SWIDTH 210 0
DWIDTH 6 0
BBX 5 19 -1 0
BITMAP
2EA000
04F500
005E10
000320
000000
000B90
000CA0
000CA0
000CA0
000CA0
000CA0
000CA0
000CA0
000CA0
000CA0
000CA0
000CA0
000CA0
000B90
ENDCHAR
STARTCHAR iacute
ENCODING 237
SWIDTH 208 0
DWIDTH 6 0
BBX 5 19 2 0
BITMAP
01DD10
08E200
3E3000
330000
000000
B90000
CA0000
CA0000
CA0000
CA0000
CA0000
CA0000
CA0000
CA0000
CA0000
CA0000
CA0000
CA0000
B90000
ENDCHAR
STARTCHAR icircumflex
ENCODING 238
SWIDTH 210 0
DWIDTH 6 0
BBX 6 19 0 0
BITMAP
02DD10
0B7990
5D01E3
420033
000000
00B900
00CA00
00CA00
00CA00
00CA00
00CA00
00CA00
00CA00
00CA00
00CA00
00CA00
00CA00
00CA00
00B900
ENDCHAR
STARTCHAR idieresis
ENCODING 239
SWIDTH 210 0
DWIDTH 6 0
BBX 6 19 0 0
BITMAP
F5007D
F5007E
F5007E
F5007D
000000
00B900
00CA00
00CA00
00CA00
00CA00
00CA00
00CA00
00CA00
00CA00
00CA00
00CA00
00CA00
00CA00
00B900
ENDCHAR
STARTCHAR eth
ENCODING 240
SWIDTH 488 0
DWIDTH 14 0
BBX 11 19 1 0
BITMAP
001E40007800
0007E309E300
00009EBC2000
00002FF20000
0004E8BC1000
005E501CC100
00330002DB00
000000002F60
007DFFFE89B0
08F94335BED0
0E9000000DE0
2F40000008E0
3F30000008E0
3F30000008E0
3F30000008E0
2F40000008D0
0E8000000CB0
08F95445BF40
006DFFFEB400
ENDCHAR
STARTCHAR ntilde
ENCODING 241
SWIDTH 507 0
DWIDTH 14 0
BBX 11 19 2 0
BITMAP
00D00BFA0000
00D27C4E1000
009FF30B2000
000310020000
000000000000
D76DFFFD7000
ECC64459F800
ED1000008F10
E90000003F30
E80000002F40
E80000002F40
E80000002F40
E80000002F40
E80000002F40
E80000002F40
E80000002F40
E80000002F40
E80000002F40
D70000002F30
ENDCHAR
STARTCHAR ograve
ENCODING 242
SWIDTH 496 0
DWIDTH 14 0
BBX 12 19 1 0
BITMAP
001EC0000000
0003E7000000
00004E200000
000003200000
000000000000
006DFFFFC500
07F95445AF60
0E9000000AD0
2F40000005F1
3F30000004F1
3F30000004F1
3F30000004F1
3F30000004F1
3F30000004F1
3F30000004F1
2F40000005F1
0E9000000AD0
07F954459F60
006DFFFFC500
ENDCHAR
STARTCHAR oacute
ENCODING 243
SWIDTH 496 0
DWIDTH 14 0
BBX 12 19 1 0
BITMAP
0000000CD100
0000008E2000
000003E40000
000003300000
000000000000
006DFFFFC500
07F95445AF60
0E9000000AD0
2F40000005F1
3F30000004F1
3F30000004F1
3F30000004F1
3F30000004F1
3F30000004F1
3F30000004F1
2F40000005F1
0E9000000AD0
07F954459F60
006DFFFFC500
ENDCHAR
STARTCHAR ocircumflex
ENCODING 244
SWIDTH 496 0
DWIDTH 14 0
BBX 12 19 1 0
BITMAP
00002DD10000
0000B7990000
0005C01E3000
000420033000
000000000000
006DFFFFC500
07F95445AF60
0E9000000AD0
2F40000005F1
3F30000004F1
3F30000004F1
3F30000004F1
3F30000004F1
3F30000004F1
3F30000004F1
2F40000005F1
0E9000000AD0
07F954459F60
006DFFFFC500
ENDCHAR
STARTCHAR otilde
ENCODING 245
SWIDTH 496 0
DWIDTH 14 0
BBX 12 19 1 0
BITMAP
001B02DE7000
001D2AA5D000
000DFE10D000
000131002000
000000000000
006DFFFFC500
07F95445AF60
0E9000000AD0
2F40000005F1
3F30000004F1
3F30000004F1
3F30000004F1
3F30000004F1
3F30000004F1
3F30000004F1
2F40000005F1
0E9000000AD0
07F954459F60
006DFFFFC500
ENDCHAR
STARTCHAR odieresis
ENCODING 246
SWIDTH 496 0
DWIDTH 14 0
BBX 12 19 1 0
BITMAP
000F5006D000
000F5007E000
000F5007E000
000F5006D000
000000000000
006DFFFFC500
07F95445AF60
0E9000000AD0
2F40000005F1
3F30000004F1
3F30000004F1
3F30000004F1
3F30000004F1
3F30000004F1
3F30000004F1
2F40000005F1
0E9000000AD0
07F954459F60
006DFFFFC500
ENDCHAR
STARTCHAR divide
ENCODING 247
SWIDTH 510 0
DWIDTH 14 0
BBX 11 10 2 4
BITMAP
00006B000000
00007B000000
000011000000
000000000000
EFFFFFFFFF30
333333333300
000000000000
000011000000
00007B000000
00006B000000
ENDCHAR
STARTCHAR oslash
ENCODING 248
SWIDTH 521 0
DWIDTH 15 0
BBX 14 14 0 0
BITMAP
0003BEFFFD8002
002EC54447E9AA
009D1000006FB1
00C9000001BF60
00D800001BAF70
00D80001CA0F70
00D8001C900F70
00D801C9000F70
00D81D90000F70
00DAD800000F70
00CF8000001F60
02EE0000005F30
1E8EB54447EB00
0403BEFFFD8100
ENDCHAR
STARTCHAR ugrave
ENCODING 249
SWIDTH 507 0
DWIDTH 14 0
BBX 12 19 1 0
BITMAP
001DD1000000
0002E9000000
00003E300000
000002300000
000000000000
1F50000004F1
1F50000004F1
1F50000004F1
1F50000004F1
1F50000004F1
1F50000004F1
1F50000004F1
1F50000004F1
1F50000004F1
1F50000004F1
0F60000006F1
0DB000000BF1
05FA5445BDF1
005CFFFE95F1
ENDCHAR
STARTCHAR uacute
ENCODING 250
SWIDTH 507 0
DWIDTH 14 0
BBX 12 19 1 0
BITMAP
0000000CE100
0000007E3000
000002E40000
000002300000
000000000000
1F50000004F1
1F50000004F1
1F50000004F1
1F50000004F1
1F50000004F1
1F50000004F1
1F50000004F1
1F50000004F1
1F50000004F1
1F50000004F1
0F60000006F1
0DB000000BF1
05FA5445BDF1
005CFFFE95F1
ENDCHAR
STARTCHAR ucircumflex
ENCODING 251
SWIDTH 507 0
DWIDTH 14 0
BBX 12 19 1 0
BITMAP
00001DD20000
0000987A0000
0004D10D5000
000330023000
000000000000
1F50000004F1
1F50000004F1
1F50000004F1
1F50000004F1
1F50000004F1
1F50000004F1
1F50000004F1
1F50000004F1
1F50000004F1
1F50000004F1
0F60000006F1
0DB000000BF1
05FA5445BDF1
005CFFFE95F1
ENDCHAR
STARTCHAR udieresis
ENCODING 252
SWIDTH 507 0
DWIDTH 14 0
BBX 12 19 1 0
BITMAP
000E6005F000
000E7006F000
000E7006F000
000E6005F000
000000000000
1F50000004F1
1F50000004F1
1F50000004F1
1F50000004F1
1F50000004F1
1F50000004F1
1F50000004F1
1F50000004F1
1F50000004F1
1F50000004F1
0F60000006F1
0DB000000BF1
05FA5445BDF1
005CFFFE95F1
ENDCHAR
STARTCHAR yacute
ENCODING 253
SWIDTH 459 0
DWIDTH 13 0
BBX 12 23 0 -4
BITMAP
00000005F700
0000001E9000
000000AA0000
000000500000
000000000000
2F500000006E
0CA0000000CA
06F1000002F4
01F6000008E0
00BB00000D90
005F20003F40
001E70009D00
0009C000E800
0004F204F300
0000E809D000
00008D1E7000
00003F8F2000
00000DFC0000
000002E60000
000006F10000
00001D900000
0246CD100000
08FEA2000000
ENDCHAR
STARTCHAR thorn
ENCODING 254
SWIDTH 508 0
DWIDTH 14 0
BBX 11 23 2 -4
BITMAP
B90000000000
C90000000000
C90000000000
C90000000000
C90000000000
C95CFFFD8000
CCD64447EA00
CE1000005F30
CA0000001F60
C90000000F60
C90000000F60
C90000000F60
C90000000F60
C90000000F60
C90000000F60
CA0000001F60
CE1000005F30
CDD64447EA00
C96DFFFD8000
C90000000000
C90000000000
C90000000000
B90000000000
ENDCHAR
STARTCHAR ydieresis
ENCODING 255
SWIDTH 459 0
DWIDTH 13 0
BBX 12 23 0 -4
BITMAP
0008C000E600
0008D000F600
0008D000F600
0008C000E600
000000000000
2F500000006E
0CA0000000CA
06F1000002F4
01F6000008E0
00BB00000D90
005F20003F40
001E70009D00
0009C000E800
0004F204F300
0000E809D000
00008D1E7000
00003F8F2000
00000DFC0000
000002E60000
000006F10000
00001D900000
0246CD100000
08FEA2000000
ENDCHAR
STARTCHAR Amacron
ENCODING 256
SWIDTH 532 0
DWIDTH 15 0
BBX 14 22 0 0
BITMAP
0000AFFFFF9000
00002333332000
00000000000000
00000000000000
0000009F800000
000000EED00000
000004F5F30000
000009C0E80000
00000E709D0000
00004F304F3000
00009D000E7000
0000D8000AC000
0003F40005F200
0008E00001F700
000D900000BC00
003F5000006F10
007FFFFFFFFF60
00CB3333333CB0
02F500000007F1
07E100000002F6
0CA000000000CB
1F50000000006F
ENDCHAR
STARTCHAR amacron
ENCODING 257
SWIDTH 502 0
DWIDTH 14 0
BBX 11 18 1 0
BITMAP
0006FFFFFD00
000144444300
000000000000
000000000000
006DFFFFFFE0
07F9544449E0
0E90000007E0
2F40000007E0
3F30000007E0
3F30000007E0
3F30000007E0
3F30000007E0
3F30000007E0
3F30000007E0
2F40000008E0
0E9000000CE0
07F95446CDE0
006DFFFD86E0
ENDCHAR
STARTCHAR Abreve
ENCODING 258
SWIDTH 532 0
DWIDTH 15 0
BBX 14 23 0 0
BITMAP
00005A000B3000
00004B000D2000
00001E304D0000
000004CDB30000
00000000000000
0000009F800000
000000EED00000
000004F5F30000
000009C0E80000
00000E709D0000
00004F304F3000
00009D000E7000
0000D8000AC000
0003F40005F200
0008E00001F700
000D900000BC00
003F5000006F10
007FFFFFFFFF60
00CB3333333CB0
02F500000007F1
07E100000002F6
0CA000000000CB
1F50000000006F
ENDCHAR
STARTCHAR abreve
ENCODING 259
SWIDTH 502 0
DWIDTH 14 0
BBX 11 19 1 0
BITMAP
0003C000A400
0001E201D200
00005CDC5000
000000000000
000000000000
006DFFFFFFE0
07F9544449E0
0E90000007E0
2F40000007E0
3F30000007E0
3F30000007E0
3F30000007E0
3F30000007E0
3F30000007E0
3F30000007E0
2F40000008E0
0E9000000CE0
07F95446CDE0
006DFFFD86E0
ENDCHAR
STARTCHAR Aogonek
ENCODING 260
SWIDTH 532 0
DWIDTH 15 0
BBX 14 22 0 -4
BITMAP
0000009F800000
000000EED00000
000004F5F30000
000009C0E80000
00000E709D0000
00004F304F3000
00009D000E7000
0000D8000AC000
0003F40005F200
0008E00001F700
000D900000BC00
003F5000006F10
007FFFFFFFFF60
00CB3333333CB0
02F500000007F1
07E100000002F6
0CA000000000CB
1F50000000008F
000000000003B0
00000000000B20
00000000005FF6
00000000000310
ENDCHAR
STARTCHAR aogonek
ENCODING 261
SWIDTH 502 0
DWIDTH 14 0
BBX 11 18 1 -4
BITMAP
006DFFFFFFE0
07F9544449E0
0E90000007E0
2F40000007E0
3F30000007E0
3F30000007E0
3F30000007E0
3F30000007E0
3F30000007E0
3F30000007E0
2F40000008E0
0E9000000CE0
07F95446CDE0
006DFFFD88E0
000000003B00
00000001C200
00000004FF50
000000003100
ENDCHAR
STARTCHAR Cacute
ENCODING 262
SWIDTH 542 0
DWIDTH 15 0
BBX 12 23 2 0
BITMAP
0000003F9000
000000CB0000
000007D10000
000006200000
000000000000
03BEFFFFD810
3FB544447EB0
AD00000005F3
D900000000F6
E800000000E7
E80000000095
E80000000000
E80000000000
E80000000000
E80000000000
E80000000000
E80000000000
E80000000094
E800000000E7
D900000000F6
AD00000005F4
3FB544447EB0
03BEFFFFD910
ENDCHAR
STARTCHAR cacute
ENCODING 263
SWIDTH 394 0
DWIDTH 11 0
BBX 10 19 1 0
BITMAP
0000009F30
000004F500
00001D7000
0000140000
0000000000
006DFFFFF1
07F9544440
0E90000000
2F40000000
3F30000000
3F30000000
3F30000000
3F30000000
3F30000000
3F30000000
2F40000000
0E90000000
07F9544440
006DFFFFF1
ENDCHAR
STARTCHAR Cdotaccent
ENCODING 266
SWIDTH 542 0
DWIDTH 15 0
BBX 12 23 2 0
BITMAP
00000E700000
00000E700000
00000E700000
000000000000
000000000000
03BEFFFFD810
3FB544447EB0
AD00000005F3
D900000000F6
E800000000E7
E80000000095
E80000000000
E80000000000
E80000000000
E80000000000
E80000000000
E80000000000
E80000000094
E800000000E7
D900000000F6
AD00000005F4
3FB544447EB0
03BEFFFFD910
ENDCHAR
STARTCHAR cdotaccent
ENCODING 267
SWIDTH 394 0
DWIDTH 11 0
BBX 10 19 1 0
BITMAP
00004F2000
00004F2000
00004F2000
0000000000
0000000000
006DFFFFF1
07F9544440
0E90000000
2F40000000
3F30000000
3F30000000
3F30000000
3F30000000
3F30000000
3F30000000
2F40000000
0E90000000
07F9544440
006DFFFFF1
ENDCHAR
STARTCHAR Ccaron
ENCODING 268
SWIDTH 542 0
DWIDTH 15 0
BBX 12 23 2 0
BITMAP
000A700D4000
0002E27B0000
00008AE20000
000017400000
000000000000
03BEFFFFD810
3FB544447EB0
AD00000005F3
D900000000F6
E800000000E7
E80000000095
E80000000000
E80000000000
E80000000000
E80000000000
E80000000000
E80000000000
E80000000094
E800000000E7
D900000000F6
AD00000005F4
3FB544447EB0
03BEFFFFD910
ENDCHAR
STARTCHAR ccaron
ENCODING 269
SWIDTH 394 0
DWIDTH 11 0
BBX 10 19 1 0
BITMAP
000D402E20
0004D0B700
0000ABC000
0000151000
0000000000
006DFFFFF1
07F9544440
0E90000000
2F40000000
3F30000000
3F30000000
3F30000000
3F30000000
3F30000000
3F30000000
2F40000000
0E90000000
07F9544440
006DFFFFF1
ENDCHAR
STARTCHAR Dcaron
ENCODING 270
SWIDTH 557 0
DWIDTH 16 0
BBX 12 23 2 0
BITMAP
000C501E3000
0004D1990000
00009AE10000
000017300000
000000000000
9FFFFFFFD910
9D4444447EB0
9C00000004F4
9C00000000F7
9C00000000E8
9C00000000E8
9C00000000E8
9C00000000E8
9C00000000E8
9C00000000E8
9C00000000E8
9C00000000E8
9C00000000E8
9C00000000E8
9C00000000F7
9C00000004F4
9D4444447EB0
9FFFFFFFE910
ENDCHAR
STARTCHAR dcaron
ENCODING 271
SWIDTH 534 0
DWIDTH 15 0
BBX 15 19 1 0
BITMAP
0000000005F05F20
0000000006F05F20
0000000006F05F20
0000000006F05E00
0000000006F05B00
006DFFFC46F05700
07FFFFFFF8F05300
0EE510027EF00000
2F60000009F00000
3F40000006F00000
3F30000006F00000
3F30000006F00000
3F30000006F00000
3F30000006F00000
3F30000006F00000
2F40000007F00000
0E8000000BF00000
07F85445BDF00000
006DFFFD86F00000
ENDCHAR
STARTCHAR Dcroat
ENCODING 272
SWIDTH 514 0
DWIDTH 14 0
BBX 14 18 0 0
BITMAP
008FFFFFFFE910
008E4444446EC0
008D00000003F5
008D00000000D8
008D00000000C9
008D00000000C9
008D10000000C9
4FFFFFFF8000C9
13AE33332000C9
008D00000000C9
008D00000000C9
008D00000000C9
008D00000000C9
008D00000000C9
008D00000000D8
008D00000003F5
008E4444446DC0
008FFFFFFFE910
ENDCHAR
STARTCHAR dcroat
ENCODING 273
SWIDTH 539 0
DWIDTH 15 0
BBX 14 19 1 0
BITMAP
0000000005F000
0000000006F000
0000000006F100
00007FFFFFFFF6
0000133338F431
0000000006F000
0000000006F000
007DFFFE96F000
08F84335BEF000
0E8000000BF000
2F40000007F000
3F30000006F000
3F30000006F000
3F30000006F000
3F30000006F000
2F40000007F000
0E9000000CF000
07F95445BDF000
006DFFFD86F000
ENDCHAR
STARTCHAR Emacron
ENCODING 274
SWIDTH 481 0
DWIDTH 13 0
BBX 10 22 2 0
BITMAP
02FFFFFF20
0033333300
0000000000
0000000000
9FFFFFFFF9
9D44444442
9C00000000
9C00000000
9C00000000
9C00000000
9C00000000
9C00000000
9FFFFFFFC0
9D33333320
9C00000000
9C00000000
9C00000000
9C00000000
9C00000000
9C00000000
9D44444442
9FFFFFFFF9
ENDCHAR
STARTCHAR emacron
ENCODING 275
SWIDTH 492 0
DWIDTH 14 0
BBX 12 18 1 0
BITMAP
002FFFFFF200
000444444000
000000000000
000000000000
006DFFFFC500
07F95445AF50
0E9000000AC0
2F50000006F1
3F30000004F1
3F30000004F1
3F40000005F1
3FFFFFFFFFF1
3F6333333330
3F3000000000
2F4000000000
0E8000000000
07F844444430
006DFFFFFFD0
ENDCHAR
STARTCHAR Ebreve
ENCODING 276
SWIDTH 481 0
DWIDTH 13 0
BBX 10 23 2 0
BITMAP
00E1005900
00D2006800
009801C400
0019DC7000
0000000000
9FFFFFFFF9
9D44444442
9C00000000
9C00000000
9C00000000
9C00000000
9C00000000
9C00000000
9FFFFFFFC0
9D33333320
9C00000000
9C00000000
9C00000000
9C00000000
9C00000000
9C00000000
9D44444442
9FFFFFFFF9
ENDCHAR
STARTCHAR ebreve
ENCODING 277
SWIDTH 492 0
DWIDTH 14 0
BBX 12 19 1 0
BITMAP
000D2005A000
000B700A7000
0002ADD91000
000000000000
000000000000
006DFFFFC500
07F95445AF50
0E9000000AC0
2F50000006F1
3F30000004F1
3F30000004F1
3F40000005F1
3FFFFFFFFFF1
3F6333333330
3F3000000000
2F4000000000
0E8000000000
07F844444430
006DFFFFFFD0
ENDCHAR
STARTCHAR Edotaccent
ENCODING 278
SWIDTH 496 0
DWIDTH 14 0
BBX 10 23 2 0
BITMAP
0000AA0000
0000BB0000
0000AA0000
0000000000
0000000000
9FFFFFFFF9
9D44444442
9C00000000
9C00000000
9C00000000
9C00000000
9C00000000
9C00000000
9FFFFFFFC0
9D33333320
9C00000000
9C00000000
9C00000000
9C00000000
9C00000000
9C00000000
9D44444442
9FFFFFFFF9
ENDCHAR
STARTCHAR edotaccent
ENCODING 279
SWIDTH 492 0
DWIDTH 14 0
BBX 12 19 1 0
BITMAP
00000BA00000
00000BB00000
00000BA00000
000000000000
000000000000
006DFFFFC500
07F95445AF50
0E9000000AC0
2F50000006F1
3F30000004F1
3F30000004F1
3F40000005F1
3FFFFFFFFFF1
3F6333333330
3F3000000000
2F4000000000
0E8000000000
07F844444430
006DFFFFFFD0
ENDCHAR
STARTCHAR Eogonek
ENCODING 280
SWIDTH 481 0
DWIDTH 13 0
BBX 10 22 2 -4
BITMAP
9FFFFFFFF9
9D44444442
9C00000000
9C00000000
9C00000000
9C00000000
9C00000000
9C00000000
9FFFFFFFC0
9D33333320
9C00000000
9C00000000
9C00000000
9C00000000
9C00000000
9C00000000
9D44444442
9FFFFFFFF9
0000007800
000003B000
000009FE20
0000013000
ENDCHAR
STARTCHAR eogonek
ENCODING 281
SWIDTH 492 0
DWIDTH 14 0
BBX 12 18 1 -4
BITMAP
006DFFFFC500
07F95445AF50
0E9000000AC0
2F50000006F1
3F30000004F1
3F30000004F1
3F40000005F1
3FFFFFFFFFF1
3F6333333330
3F3000000000
2F4000000000
0E8000000000
07F844444430
006DFFFFFFD0
000000069000
0000002C1000
0000007FE200
000000031000
ENDCHAR
STARTCHAR Ecaron
ENCODING 282
SWIDTH 481 0
DWIDTH 13 0
BBX 10 23 2 0
BITMAP
007B009800
000D53D100
0004DC5000
0000560000
0000000000
9FFFFFFFF9
9D44444442
9C00000000
9C00000000
9C00000000
9C00000000
9C00000000
9C00000000
9FFFFFFFC0
9D33333320
9C00000000
9C00000000
9C00000000
9C00000000
9C00000000
9C00000000
9D44444442
9FFFFFFFF9
ENDCHAR
STARTCHAR ecaron
ENCODING 283
SWIDTH 492 0
DWIDTH 14 0
BBX 12 19 1 0
BITMAP
0007A00B7000
0000D45D0000
00004DD30000
000004300000
000000000000
006DFFFFC500
07F95445AF50
0E9000000AC0
2F50000006F1
3F30000004F1
3F30000004F1
3F40000005F1
3FFFFFFFFFF1
3F6333333330
3F3000000000
2F4000000000
0E8000000000
07F844444430
006DFFFFFFD0
ENDCHAR
STARTCHAR Gcircumflex
ENCODING 284
SWIDTH 539 0
DWIDTH 15 0
BBX 11 23 2 0
BITMAP
00006E800000
0001E3E30000
000A806B0000
000710071000
000000000000
03BEFFFEC400
3FB54445BF40
AD0000000CB0
D900000007F0
E800000006F0
E800000004A0
E80000000000
E80000000000
E80000000000
E80003FFFFE0
E800003339F0
E800000006F0
E800000006F0
E800000006F0
D900000007F0
AD0000000BC0
3FB54445AF50
03BEFFFFC500
ENDCHAR
STARTCHAR gcircumflex
ENCODING 285
SWIDTH 506 0
DWIDTH 14 0
BBX 12 23 1 -4
BITMAP
000007E80000
00002E2E3000
0000B606C000
000150005100
000000000000
005CFFFFFFF1
05FA544448F1
0DA0000005F1
0F60000005F1
1F50000005F1
1F50000005F1
1F50000005F1
1F50000005F1
1F50000005F1
1F50000006F1
0E90000009F1
08F620028EF1
008FFFFFC7F1
0001333205F1
0000000006F1
000000000BD0
01444445AF60
03FFFFFFC500
ENDCHAR
STARTCHAR Gbreve
ENCODING 286
SWIDTH 539 0
DWIDTH 15 0
BBX 11 23 2 0
BITMAP
003C00095000
002D000B4000
000D403D1000
0003BDC40000
000000000000
03BEFFFEC400
3FB54445BF40
AD0000000CB0
D900000007F0
E800000006F0
E800000004A0
E80000000000
E80000000000
E80000000000
E80003FFFFE0
E800003339F0
E800000006F0
E800000006F0
E800000006F0
D900000007F0
AD0000000BC0
3FB54445AF50
03BEFFFFC500
ENDCHAR
STARTCHAR gbreve
ENCODING 287
SWIDTH 506 0
DWIDTH 14 0
BBX 12 23 1 -4
BITMAP
0000E0006800
0000C501B600
00003BDC8000
000000000000
000000000000
005CFFFFFFF1
05FA544448F1
0DA0000005F1
0F60000005F1
1F50000005F1
1F50000005F1
1F50000005F1
1F50000005F1
1F50000005F1
1F50000006F1
0E90000009F1
08F620028EF1
008FFFFFC7F1
0001333205F1
0000000006F1
000000000BD0
01444445AF60
03FFFFFFC500
ENDCHAR
STARTCHAR Gdotaccent
ENCODING 288
SWIDTH 539 0
DWIDTH 15 0
BBX 11 23 2 0
BITMAP
00002F300000
00003F400000
00002F300000
000000000000
000000000000
03BEFFFEC400
3FB54445BF40
AD0000000CB0
D900000007F0
E800000006F0
E800000004A0
E80000000000
E80000000000
E80000000000
E80003FFFFE0
E800003339F0
E800000006F0
E800000006F0
E800000006F0
D900000007F0
AD0000000BC0
3FB54445AF50
03BEFFFFC500
ENDCHAR
STARTCHAR gdotaccent
ENCODING 289
SWIDTH 506 0
DWIDTH 14 0
BBX 12 23 1 -4
BITMAP
000000F60000
000000F60000
000000F60000
000000000000
000000000000
005CFFFFFFF1
05FA544448F1
0DA0000005F1
0F60000005F1
1F50000005F1
1F50000005F1
1F50000005F1
1F50000005F1
1F50000005F1
1F50000006F1
0E90000009F1
08F620028EF1
008FFFFFC7F1
0001333205F1
0000000006F1
000000000BD0
01444445AF60
03FFFFFFC500
ENDCHAR
STARTCHAR uni0122
ENCODING 290
SWIDTH 539 0
DWIDTH 15 0
BBX 11 25 2 -7
BITMAP
03BEFFFEC400
3FB54445BF40
AD0000000CB0
D900000007F0
E800000006F0
E800000004A0
E80000000000
E80000000000
E80000000000
E80003FFFFE0
E800003339F0
E800000006F0
E800000006F0
E800000006F0
D900000007F0
AD0000000BC0
3FB54445AF50
03BEFFFFC500
000000000000
00000AB00000
00000BB00000
00000BA00000
00000B600000
00000B200000
000008000000
ENDCHAR
STARTCHAR uni0123
ENCODING 291
SWIDTH 506 0
DWIDTH 14 0
BBX 12 25 1 -4
BITMAP
000000350000
000000750000
000000C50000
000001F50000
000002F50000
000002F50000
000000000000
005CFFFFFFF1
05FA544448F1
0DA0000005F1
0F60000005F1
1F50000005F1
1F50000005F1
1F50000005F1
1F50000005F1
1F50000005F1
1F50000006F1
0E90000009F1
08F620028EF1
008FFFFFC7F1
0001333205F1
0000000006F1
000000000BD0
01444445AF60
03FFFFFFC500
ENDCHAR
STARTCHAR hcircumflex
ENCODING 293
SWIDTH 507 0
DWIDTH 14 0
BBX 11 21 2 0
BITMAP
00005E900000
0000D5D30000
D707B06C0000
E80920092000
E80000000000
E80000000000
E80000000000
E86DFFFD7000
ECC64459F800
ED1000008F10
E90000003F30
E80000002F40
E80000002F40
E80000002F40
E80000002F40
E80000002F40
E80000002F40
E80000002F40
E80000002F40
E80000002F40
D70000002F30
ENDCHAR
STARTCHAR Hbar
ENCODING 294
SWIDTH 523 0
DWIDTH 15 0
BBX 16 18 0 0
BITMAP
007D00000000AA00
008E00000000BB00
008E00000000BB00
008E00000000BB00
4FFFFFFFFFFFFFF7
14AE44444444CC42
008E00000000BB00
008E00000000BB00
008E10000000BB00
008FFFFFFFFFFB00
008E33333333CB00
008E00000000BB00
008E00000000BB00
008E00000000BB00
008E00000000BB00
008E00000000BB00
008E00000000BB00
007D00000000AA00
ENDCHAR
STARTCHAR hbar
ENCODING 295
SWIDTH 544 0
DWIDTH 15 0
BBX 14 19 0 0
BITMAP
000E7000000000
000E7000000000
001F8000000000
4FFFFFFFF80000
134F9333310000
000E7000000000
000E7000000000
000E77EFFFD700
000EDC53348F90
000ED0000007F1
000E80000003F4
000E70000002F4
000E70000002F4
000E70000002F4
000E70000002F4
000E70000002F4
000E70000002F4
000E70000002F4
000E70000002F4
ENDCHAR
STARTCHAR Itilde
ENCODING 296
SWIDTH 230 0
DWIDTH 6 0
BBX 7 23 0 0
BITMAP
C108FA00
C21E4D20
B4890A30
6FE20A30
02100200
007D0000
007E0000
007E0000
007E0000
007E0000
007E0000
007E0000
007E0000
007E0000
007E0000
007E0000
007E0000
007E0000
007E0000
007E0000
007E0000
007E0000
007D0000
ENDCHAR
STARTCHAR itilde
ENCODING 297
SWIDTH 210 0
DWIDTH 6 0
BBX 7 19 -1 0
BITMAP
1C01CE70
0D2AB5D0
0CFE10D0
00310020
00000000
000B9000
000CA000
000CA000
000CA000
000CA000
000CA000
000CA000
000CA000
000CA000
000CA000
000CA000
000CA000
000CA000
000B9000
ENDCHAR
STARTCHAR Imacron
ENCODING 298
SWIDTH 230 0
DWIDTH 6 0
BBX 7 22 0 0
BITMAP
EFFFFF60
33333310
00000000
00000000
007D0000
007E0000
007E0000
007E0000
007E0000
007E0000
007E0000
007E0000
007E0000
007E0000
007E0000
007E0000
007E0000
007E0000
007E0000
007E0000
007E0000
007D0000
ENDCHAR
STARTCHAR imacron
ENCODING 299
SWIDTH 208 0
DWIDTH 6 0
BBX 8 18 -1 0
BITMAP
3FFFFFF1
14444440
00000000
00000000
000B9000
000CA000
000CA000
000CA000
000CA000
000CA000
000CA000
000CA000
000CA000
000CA000
000CA000
000CA000
000CA000
000B9000
ENDCHAR
STARTCHAR Ibreve
ENCODING 300
SWIDTH 231 0
DWIDTH 6 0
BBX 6 23 0 0
BITMAP
87000E
78001E
3D107A
06CDA1
000000
007D00
007E00
007E00
007E00
007E00
007E00
007E00
007E00
007E00
007E00
007E00
007E00
007E00
007E00
007E00
007E00
007E00
007D00
ENDCHAR
STARTCHAR ibreve
ENCODING 301
SWIDTH 211 0
DWIDTH 6 0
BBX 6 19 0 0
BITMAP
C3003A
980098
1ADD91
000000
000000
00B900
00CA00
00CA00
00CA00
00CA00
00CA00
00CA00
00CA00
00CA00
00CA00
00CA00
00CA00
00CA00
00B900
ENDCHAR
STARTCHAR Iogonek
ENCODING 302
SWIDTH 230 0
DWIDTH 6 0
BBX 4 22 0 -4
BITMAP
007D
007E
007E
007E
007E
007E
007E
007E
007E
007E
007E
007E
007E
007E
007E
007E
007E
007D
01C2
0950
1FFA
0220
ENDCHAR
STARTCHAR iogonek
ENCODING 303
SWIDTH 210 0
DWIDTH 6 0
BBX 4 23 0 -4
BITMAP
00B9
00CA
00B9
0000
0000
00B9
00CA
00CA
00CA
00CA
00CA
00CA
00CA
00CA
00CA
00CA
00CA
00CA
00C9
03B0
1C20
5FF4
0310
ENDCHAR
STARTCHAR Idotaccent
ENCODING 304
SWIDTH 230 0
DWIDTH 6 0
BBX 2 22 2 0
BITMAP
7E
7E
7E
00
7D
7E
7E
7E
7E
7E
7E
7E
7E
7E
7E
7E
7E
7E
7E
7E
7E
7D
ENDCHAR
STARTCHAR dotlessi
ENCODING 305
SWIDTH 212 0
DWIDTH 6 0
BBX 2 14 2 0
BITMAP
BA
BA
BA
BA
BA
BA
BA
BA
BA
BA
BA
BA
BA
BA
ENDCHAR
STARTCHAR IJ
ENCODING 306
SWIDTH 721 0
DWIDTH 20 0
BBX 16 18 2 0
BITMAP
6E0000000000005F
7E0000000000006F
7E0000000000006F
7E0000000000006F
7E0000000000006F
7E0000000000006F
7E0000000000006F
7E0000000000006F
7E0000000000006F
7E0000000000006F
7E0000000000006F
7E0005700000006F
7E000AC00000006F
7E000AC00000006F
7E0009D00000007F
7E0006F3000000BC
7E0001DD64445AF5
6E00001AEFFFFC50
ENDCHAR
STARTCHAR ij
ENCODING 307
SWIDTH 419 0
DWIDTH 12 0
BBX 8 23 2 -4
BITMAP
B90000D7
CA0000E7
B90000D7
00000000
00000000
B90000D7
CA0000E7
CA0000E7
CA0000E7
CA0000E7
CA0000E7
CA0000E7
CA0000E7
CA0000E7
CA0000E7
CA0000E7
CA0000E7
CA0000E7
B90000E7
000000F7
000004F4
00247EB0
009FE910
ENDCHAR
STARTCHAR Jcircumflex
ENCODING 308
SWIDTH 494 0
DWIDTH 14 0
BBX 13 23 1 0
BITMAP
000000002DC100
00000000A89800
00000004D11E30
00000005300440
00000000000000
000000000AB000
000000000AB000
000000000AB000
000000000AB000
000000000AB000
000000000AB000
000000000AB000
000000000AB000
000000000AB000
000000000AB000
000000000AB000
840000000AB000
E70000000AB000
E70000000AB000
E80000000BA000
BD0000001E8000
3FB54446DE1000
04BEFFFEA20000
ENDCHAR
STARTCHAR jcircumflex
ENCODING 309
SWIDTH 209 0
DWIDTH 6 0
BBX 8 23 -2 -4
BITMAP
0002DD10
000B6990
005C01E3
00420033
00000000
0000B900
0000CA00
0000CA00
0000CA00
0000CA00
0000CA00
0000CA00
0000CA00
0000CA00
0000CA00
0000CA00
0000CA00
0000CA00
0000CA00
0000D900
0002F600
146DD100
6FEA2000
ENDCHAR
STARTCHAR uni0136
ENCODING 310
SWIDTH 530 0
DWIDTH 15 0
BBX 12 25 2 -7
BITMAP
9B00000009E1
9C0000005F50
9C000002E900
9C00001CC000
9C00009E2000
9C0006F50000
9C003E900000
9C01DC000000
9C0AFD100000
9C6F5E900000
9DE605F40000
9F8000AD1000
9D00001E9000
9C000005F400
9C000000AD10
9C0000001E90
9C00000005F4
9B000000009D
000000000000
000008E00000
000008E00000
000008C00000
000008800000
000008400000
000005000000
ENDCHAR
STARTCHAR uni0137
ENCODING 311
SWIDTH 431 0
DWIDTH 12 0
BBX 10 26 2 -7
BITMAP
D700000000
E800000000
E800000000
E800000000
E800000000
E8000008E1
E800004F60
E80001DB00
E80009E200
E8004F6000
E801DB0000
E808F20000
E804F50000
E8009E1000
E8001DB000
E80003F600
E800008F20
E800000CC0
D7000002E8
0000000000
0001F60000
0001F60000
0001F50000
0001F10000
0001C00000
0001700000
ENDCHAR
STARTCHAR Lacute
ENCODING 313
SWIDTH 451 0
DWIDTH 13 0
BBX 10 23 2 0
BITMAP
00AE200000
05F5000000
1D70000000
2600000000
0000000000
9B00000000
9C00000000
9C00000000
9C00000000
9C00000000
9C00000000
9C00000000
9C00000000
9C00000000
9C00000000
9C00000000
9C00000000
9C00000000
9C00000000
9C00000000
9C00000000
9D44444443
9FFFFFFFFD
ENDCHAR
STARTCHAR lacute
ENCODING 314
SWIDTH 207 0
DWIDTH 6 0
BBX 5 24 2 0
BITMAP
00DD10
08E200
2E4000
440000
000000
B90000
CA0000
CA0000
CA0000
CA0000
CA0000
CA0000
CA0000
CA0000
CA0000
CA0000
CA0000
CA0000
CA0000
CA0000
CA0000
CA0000
CA0000
B90000
ENDCHAR
STARTCHAR uni013B
ENCODING 315
SWIDTH 451 0
DWIDTH 13 0
BBX 10 25 2 -7
BITMAP
9B00000000
9C00000000
9C00000000
9C00000000
9C00000000
9C00000000
9C00000000
9C00000000
9C00000000
9C00000000
9C00000000
9C00000000
9C00000000
9C00000000
9C00000000
9C00000000
9D44444443
9FFFFFFFFD
0000000000
00009D0000
00009D0000
00009B0000
0000980000
0000930000
0000700000
ENDCHAR
STARTCHAR uni013C
ENCODING 316
SWIDTH 211 0
DWIDTH 6 0
BBX 2 26 2 -7
BITMAP
B9
CA
CA
CA
CA
CA
CA
CA
CA
CA
CA
CA
CA
CA
CA
CA
CA
CA
B9
00
BA
CA
C9
C5
C1
80
ENDCHAR
STARTCHAR Lcaron
ENCODING 317
SWIDTH 451 0
DWIDTH 13 0
BBX 10 18 2 0
BITMAP
9B00005F20
9C00005F20
9C00005F20
9C00005E00
9C00005B00
9C00005700
9C00005200
9C00000000
9C00000000
9C00000000
9C00000000
9C00000000
9C00000000
9C00000000
9C00000000
9C00000000
9D44444443
9FFFFFFFFD
ENDCHAR
STARTCHAR lcaron
ENCODING 318
SWIDTH 274 0
DWIDTH 8 0
BBX 6 19 2 0
BITMAP
B904F3
CA04F3
CA04F3
CA04F1
CA04C0
CA0480
CA0440
CA0000
CA0000
CA0000
CA0000
CA0000
CA0000
CA0000
CA0000
CA0000
CA0000
CA0000
B90000
ENDCHAR
STARTCHAR Ldot
ENCODING 319
SWIDTH 500 0
DWIDTH 14 0
BBX 10 18 2 0
BITMAP
9C00000000
9D00000000
9D00000000
9D00000000
9D00000000
9D00000000
9D00000000
9D0003F500
9D0004F500
9D0004F500
9D0003F500
9D00000000
9D00000000
9D00000000
9D00000000
9D00000000
9E44444443
9FFFFFFFFE
ENDCHAR
STARTCHAR ldot
ENCODING 320
SWIDTH 314 0
DWIDTH 9 0
BBX 6 19 2 0
BITMAP
BA0000
BB0000
BB0000
BB0000
BB0000
BB0000
BB0000
BB0000
BB00E9
BB00F9
BB00F9
BB00E9
BB0000
BB0000
BB0000
BB0000
BB0000
BB0000
BA0000
ENDCHAR
STARTCHAR Lslash
ENCODING 321
SWIDTH 504 0
DWIDTH 14 0
BBX 13 18 0 0
BITMAP
006F0000000000
006F0000000000
006F0000000000
006F0010000000
006F06E2000000
006FDD50000000
03CF7100000000
7FDF0000000000
736F0000000000
006F0000000000
006F0000000000
006F0000000000
006F0000000000
006F0000000000
006F0000000000
006F0000000000
006F4444444400
006FFFFFFFFF10
ENDCHAR
STARTCHAR lslash
ENCODING 322
SWIDTH 296 0
DWIDTH 8 0
BBX 8 19 0 0
BITMAP
0008C000
0009D000
0009D000
0009D000
0009D000
0009D035
0009DAF5
001BFA20
07EED000
4D59D000
0009D000
0009D000
0009D000
0009D000
0009D000
0009D000
0009D000
0009D000
0008C000
ENDCHAR
STARTCHAR Nacute
ENCODING 323
SWIDTH 579 0
DWIDTH 16 0
BBX 12 23 2 0
BITMAP
00000007F500
0000002E8000
000000AA0000
000001710000
000000000000
9D100000008D
9F800000008D
9FF20000008D
9CDA0000008D
9C4F4000008D
9C0AC000008D
9C02F600008D
9C008E10008D
9C001D90008D
9C0005F3008D
9C0000BB008D
9C00003F508D
9C000009D18D
9C000001E78D
9C0000006EAD
9C0000000CFD
9C00000004FD
9B00000000AD
ENDCHAR
STARTCHAR nacute
ENCODING 324
SWIDTH 507 0
DWIDTH 14 0
BBX 11 19 2 0
BITMAP
000000AF3000
000005F50000
00001D600000
000014000000
000000000000
D76DFFFD7000
ECC64459F800
ED1000008F10
E90000003F30
E80000002F40
E80000002F40
E80000002F40
E80000002F40
E80000002F40
E80000002F40
E80000002F40
E80000002F40
E80000002F40
D70000002F30
ENDCHAR
STARTCHAR uni0145
ENCODING 325
SWIDTH 579 0
DWIDTH 16 0
BBX 12 25 2 -7
BITMAP
9D100000008D
9F800000008D
9FF20000008D
9CDA0000008D
9C4F4000008D
9C0AC000008D
9C02F600008D
9C008E10008D
9C001D90008D
9C0005F3008D
9C0000BB008D
9C00003F508D
9C000009D18D
9C000001E78D
9C0000006EAD
9C0000000CFD
9C00000004FD
9B00000000AD
000000000000
000008D00000
000008E00000
000008C00000
000008800000
000008400000
000007000000
ENDCHAR
STARTCHAR uni0146
ENCODING 326
SWIDTH 505 0
DWIDTH 14 0
BBX 11 21 2 -7
BITMAP
D76DFFFD7000
ECC64459F800
ED1000008F10
E90000003F30
E80000002F40
E80000002F40
E80000002F40
E80000002F40
E80000002F40
E80000002F40
E80000002F40
E80000002F40
E80000002F40
D70000002F30
000000000000
00008E000000
00008E000000
00008C000000
000088000000
000084000000
000071000000
ENDCHAR
STARTCHAR Ncaron
ENCODING 327
SWIDTH 579 0
DWIDTH 16 0
BBX 12 23 2 0
BITMAP
0005C008A000
0000B62E2000
00002EB70000
000004700000
000000000000
9D100000008D
9F800000008D
9FF20000008D
9CDA0000008D
9C4F4000008D
9C0AC000008D
9C02F600008D
9C008E10008D
9C001D90008D
9C0005F3008D
9C0000BB008D
9C00003F508D
9C000009D18D
9C000001E78D
9C0000006EAD
9C0000000CFD
9C00000004FD
9B00000000AD
ENDCHAR
STARTCHAR ncaron
ENCODING 328
SWIDTH 507 0
DWIDTH 14 0
BBX 11 19 2 0
BITMAP
005D008A0000
000A72E10000
0002EC600000
000034000000
000000000000
D76DFFFD7000
ECC64459F800
ED1000008F10
E90000003F30
E80000002F40
E80000002F40
E80000002F40
E80000002F40
E80000002F40
E80000002F40
E80000002F40
E80000002F40
E80000002F40
D70000002F30
ENDCHAR
STARTCHAR Eng
ENCODING 330
SWIDTH 519 0
DWIDTH 15 0
BBX 12 22 2 -4
BITMAP
9E100000007D
9F900000008D
9FF30000008D
9DCB0000008D
9D3F5000008D
9D09D000008D
9D01E700008D
9D007E20008D
9D000DA0008D
9D0004F3008D
9D0000BC008D
9D00002F608D
9D000008E18D
9D000001E88D
9D0000006FAD
9D0000000CFD
9D00000003FD
9C00000000AD
00000000009D
0000000000DA
000000045CF3
0000002FEB30
ENDCHAR
STARTCHAR eng
ENCODING 331
SWIDTH 507 0
DWIDTH 14 0
BBX 11 18 2 -4
BITMAP
D76DFFFD7000
ECC64459F800
ED1000008F10
E90000003F30
E80000002F40
E80000002F40
E80000002F40
E80000002F40
E80000002F40
E80000002F40
E80000002F40
E80000002F40
E80000002F40
D70000002F40
000000004F30
000000008F10
00000359F800
00000CFD7000
ENDCHAR
STARTCHAR Omacron
ENCODING 332
SWIDTH 553 0
DWIDTH 15 0
BBX 12 22 2 0
BITMAP
006FFFFFD000
001333333000
000000000000
000000000000
03BEFFFFD800
3FB544448EA0
AD00000006F2
D900000001F5
E800000000F6
E800000000F6
E800000000F6
E800000000F6
E800000000F6
E800000000F6
E800000000F6
E800000000F6
E800000000F6
E800000000F6
D900000001F5
AD00000006F2
3FB544448EA0
03BEFFFFD800
ENDCHAR
STARTCHAR omacron
ENCODING 333
SWIDTH 496 0
DWIDTH 14 0
BBX 12 18 1 0
BITMAP
003FFFFFF100
000444444000
000000000000
000000000000
006DFFFFC500
07F95445AF60
0E9000000AD0
2F40000005F1
3F30000004F1
3F30000004F1
3F30000004F1
3F30000004F1
3F30000004F1
3F30000004F1
2F40000005F1
0E9000000AD0
07F954459F60
006DFFFFC500
ENDCHAR
STARTCHAR Obreve
ENCODING 334
SWIDTH 553 0
DWIDTH 15 0
BBX 12 23 2 0
BITMAP
000E00078000
000E10086000
000A701D2000
0001ADC60000
000000000000
03BEFFFFD800
3FB544448EA0
AD00000006F2
D900000001F5
E800000000F6
E800000000F6
E800000000F6
E800000000F6
E800000000F6
E800000000F6
E800000000F6
E800000000F6
E800000000F6
E800000000F6
D900000001F5
AD00000006F2
3FB544448EA0
03BEFFFFD800
ENDCHAR
STARTCHAR obreve
ENCODING 335
SWIDTH 496 0
DWIDTH 14 0
BBX 12 19 1 0
BITMAP
000C3003B000
000A80098000
0002ADD91000
000000000000
000000000000
006DFFFFC500
07F95445AF60
0E9000000AD0
2F40000005F1
3F30000004F1
3F30000004F1
3F30000004F1
3F30000004F1
3F30000004F1
3F30000004F1
2F40000005F1
0E9000000AD0
07F954459F60
006DFFFFC500
ENDCHAR
STARTCHAR Ohungarumlaut
ENCODING 336
SWIDTH 553 0
DWIDTH 15 0
BBX 12 23 2 0
BITMAP
00000C905E20
00006E10D700
0000D506B000
0006A00D2000
000000000000
03BEFFFFD800
3FB544448EA0
AD00000006F2
D900000001F5
E800000000F6
E800000000F6
E800000000F6
E800000000F6
E800000000F6
E800000000F6
E800000000F6
E800000000F6
E800000000F6
E800000000F6
D900000001F5
AD00000006F2
3FB544448EA0
03BEFFFFD800
ENDCHAR
STARTCHAR ohungarumlaut
ENCODING 337
SWIDTH 496 0
DWIDTH 14 0
BBX 12 19 1 0
BITMAP
000007E11E60
00001E509C00
00008A02E200
0001D1097000
000000000000
006DFFFFC500
07F95445AF60
0E9000000AD0
2F40000005F1
3F30000004F1
3F30000004F1
3F30000004F1
3F30000004F1
3F30000004F1
3F30000004F1
2F40000005F1
0E9000000AD0
07F954459F60
006DFFFFC500
ENDCHAR
STARTCHAR OE
ENCODING 338
SWIDTH 775 0
DWIDTH 22 0
BBX 18 18 2 0
BITMAP
03BEFFFFFFFFFFFFF9
3EC54444BD44444442
AD1000009C00000000
DA0000009C00000000
D80000009C00000000
D80000009C00000000
D80000009C00000000
D80000009C00000000
D80000009FFFFFFFB0
D80000009D33333320
D80000009C00000000
D80000009C00000000
D80000009C00000000
D80000009C00000000
DA0000009C00000000
AD1000009C00000000
3EC54444BD44444442
03BEFFFFFFFFFFFFF9
ENDCHAR
STARTCHAR oe
ENCODING 339
SWIDTH 812 0
DWIDTH 23 0
BBX 20 14 1 0
BITMAP
006DFFFEB305CFFFEB30
07F95445AF7F84445BF3
0E9000000AF7000000DA
2F40000006F30000008D
3F30000005F10000007E
3F30000005F10000007E
3F30000005F20000007E
3F30000005FFFFFFFFFE
3F30000005F533333333
3F30000005F100000000
2F40000006F200000000
0E9000000AF600000000
07F95445AF9E74444442
006DFFFEB406CFFFFFFB
ENDCHAR
STARTCHAR Racute
ENCODING 340
SWIDTH 534 0
DWIDTH 15 0
BBX 12 23 2 0
BITMAP
000001DC0000
000009E20000
00003E300000
000053000000
000000000000
9FFFFFFEB400
9D444445BF30
9C0000000CB0
9C00000008E0
9C00000006F0
9C00000006F0
9C00000006F0
9C00000007E0
9C0000000BB0
9C0000028F40
9FFFFFFFE600
9D33337F3000
9C00000DA000
9C000005F300
9C000000DB00
9C0000005F30
9C0000000CB0
9B00000004F4
ENDCHAR
STARTCHAR racute
ENCODING 341
SWIDTH 313 0
DWIDTH 9 0
BBX 6 19 2 0
BITMAP
000AE3
005F50
01D600
014000
000000
D75CFF
ECD644
EE1000
E90000
E80000
E80000
E80000
E80000
E80000
E80000
E80000
E80000
E80000
D70000
ENDCHAR
STARTCHAR uni0156
ENCODING 342
SWIDTH 534 0
DWIDTH 15 0
BBX 12 25 2 -7
BITMAP
9FFFFFFEB400
9D444445BF30
9C0000000CB0
9C00000008E0
9C00000006F0
9C00000006F0
9C00000006F0
9C00000007E0
9C0000000BB0
9C0000028F40
9FFFFFFFE600
9D33337F3000
9C00000DA000
9C000005F300
9C000000DB00
9C0000005F30
9C0000000CB0
9B00000004F4
000000000000
00003F300000
00004F300000
00004F100000
00004D000000
000048000000
000044000000
ENDCHAR
STARTCHAR uni0157
ENCODING 343
SWIDTH 313 0
DWIDTH 9 0
BBX 6 21 2 -7
BITMAP
D75CFF
ECD644
EE1000
E90000
E80000
E80000
E80000
E80000
E80000
E80000
E80000
E80000
E80000
D70000
000000
D80000
E80000
E70000
E30000
D00000
800000
ENDCHAR
STARTCHAR Rcaron
ENCODING 344
SWIDTH 534 0
DWIDTH 15 0
BBX 12 23 2 0
BITMAP
006B00990000
000C53E10000
0004DC600000
000056000000
000000000000
9FFFFFFEB400
9D444445BF30
9C0000000CB0
9C00000008E0
9C00000006F0
9C00000006F0
9C00000006F0
9C00000007E0
9C0000000BB0
9C0000028F40
9FFFFFFFE600
9D33337F3000
9C00000DA000
9C000005F300
9C000000DB00
9C0000005F30
9C0000000CB0
9B00000004F4
ENDCHAR
STARTCHAR rcaron
ENCODING 345
SWIDTH 313 0
DWIDTH 9 0
BBX 6 19 2 0
BITMAP
9900C6
1E36B0
05CE20
004300
000000
D75CFF
ECD644
EE1000
E90000
E80000
E80000
E80000
E80000
E80000
E80000
E80000
E80000
E80000
D70000
ENDCHAR
STARTCHAR Sacute
ENCODING 346
SWIDTH 562 0
DWIDTH 16 0
BBX 12 23 2 0
BITMAP
0000003F9000
000000CB0000
000007D10000
000006200000
000000000000
02AEFFFFD800
1ED644448EA0
8F20000006F3
AC00000001F6
BB00000000F6
BB0000000010
8E2000000000
2ED610000000
02BFFC951000
000159CFF910
000000018FC0
0000000005F4
3300000000F7
BB00000000E7
AC00000001F6
8E20000005F4
1ED644447EB0
02AEFFFFD810
ENDCHAR
STARTCHAR sacute
ENCODING 347
SWIDTH 427 0
DWIDTH 12 0
BBX 10 19 1 0
BITMAP
000007F500
00002E8000
0000B90000
0000500000
0000000000
04CEFFFFD0
3FB5444430
7E00000000
8D00000000
5F30000000
0AE9300000
004BFC6100
000027DE60
00000008F2
00000000F7
00000000E8
00000001F7
1444445CE2
6FFFFFEB40
ENDCHAR
STARTCHAR Scircumflex
ENCODING 348
SWIDTH 562 0
DWIDTH 16 0
BBX 12 23 2 0
BITMAP
00002DC00000
0000B6A70000
0005D02E2000
000630054000
000000000000
02AEFFFFD800
1ED644448EA0
8F20000006F3
AC00000001F6
BB00000000F6
BB0000000010
8E2000000000
2ED610000000
02BFFC951000
000159CFF910
000000018FC0
0000000005F4
3300000000F7
BB00000000E7
AC00000001F6
8E20000005F4
1ED644447EB0
02AEFFFFD810
ENDCHAR
STARTCHAR scircumflex
ENCODING 349
SWIDTH 427 0
DWIDTH 12 0
BBX 10 19 1 0
BITMAP
0002DC1000
000B698000
006C01E300
0042003300
0000000000
04CEFFFFD0
3FB5444430
7E00000000
8D00000000
5F30000000
0AE9300000
004BFC6100
000027DE60
00000008F2
00000000F7
00000000E8
00000001F7
1444445CE2
6FFFFFEB40
ENDCHAR
STARTCHAR uni015E
ENCODING 350
SWIDTH 562 0
DWIDTH 16 0
BBX 12 24 2 -6
BITMAP
02AEFFFFD800
1ED644448EA0
8F20000006F3
AC00000001F6
BB00000000F6
BB0000000010
8E2000000000
2ED610000000
02BFFC951000
000159CFF910
000000018FC0
0000000005F4
3300000000F7
BB00000000E7
AC00000001F6
8E20000005F4
1ED644447EB0
02AEFFFFD810
000008700000
00004FE70000
0000035F0000
0000002E1000
00003FF90000
000003200000
ENDCHAR
STARTCHAR uni015F
ENCODING 351
SWIDTH 427 0
DWIDTH 12 0
BBX 10 20 1 -6
BITMAP
04CEFFFFD0
3FB5444430
7E00000000
8D00000000
5F30000000
0AE9200000
004BFC6000
000027DE50
00000008F2
00000000F6
00000000E8
00000001F7
1444445CF2
6FFFFFEC40
0000880000
0004FE7000
000035E000
000003E100
0003FFA000
0000320000
ENDCHAR
STARTCHAR Scaron
ENCODING 352
SWIDTH 562 0
DWIDTH 16 0
BBX 12 23 2 0
BITMAP
000A800C4000
0002E27B0000
00007BE20000
000007400000
000000000000
02AEFFFFD800
1ED644448EA0
8F20000006F3
AC00000001F6
BB00000000F6
BB0000000010
8E2000000000
2ED610000000
02BFFC951000
000159CFF910
000000018FC0
0000000005F4
3300000000F7
BB00000000E7
AC00000001F6
8E20000005F4
1ED644447EB0
02AEFFFFD810
ENDCHAR
STARTCHAR scaron
ENCODING 353
SWIDTH 427 0
DWIDTH 12 0
BBX 10 19 1 0
BITMAP
008900C600
001D36C000
0005CD2000
0000430000
0000000000
04CEFFFFD0
3FB5444430
7E00000000
8D00000000
5F30000000
0AE9300000
004BFC6100
000027DE60
00000008F2
00000000F7
00000000E8
00000001F7
1444445CE2
6FFFFFEB40
ENDCHAR
STARTCHAR uni0162
ENCODING 354
SWIDTH 420 0
DWIDTH 12 0
BBX 12 25 0 -7
BITMAP
7FFFFFFFFFF3
14444DB44441
00000C900000
00000C900000
00000C900000
00000C900000
00000C900000
00000C900000
00000C900000
00000C900000
00000C900000
00000C900000
00000C900000
00000C900000
00000C900000
00000C900000
00000C900000
00000C800000
000000000000
00000C900000
00000D900000
00000D800000
00000D300000
00000B000000
000005000000
ENDCHAR
STARTCHAR uni0163
ENCODING 355
SWIDTH 347 0
DWIDTH 10 0
BBX 9 24 0 -7
BITMAP
000F500000
000F600000
001F600000
4FFFFFFF40
145F944410
000F600000
000F600000
000F600000
000F600000
000F600000
000F600000
000F600000
000F600000
000F700000
000CB00000
0005FB5420
00004BEF80
0000000000
00000E8000
00000E8000
00000E6000
00000E2000
00000C0000
0000050000
ENDCHAR
STARTCHAR Tcaron
ENCODING 356
SWIDTH 420 0
DWIDTH 12 0
BBX 12 23 0 0
BITMAP
0009900B6000
0001E35C0000
00006BD30000
000006500000
000000000000
7FFFFFFFFFF3
14444DB44441
00000C900000
00000C900000
00000C900000
00000C900000
00000C900000
00000C900000
00000C900000
00000C900000
00000C900000
00000C900000
00000C900000
00000C900000
00000C900000
00000C900000
00000C900000
00000C800000
ENDCHAR
STARTCHAR tcaron
ENCODING 357
SWIDTH 396 0
DWIDTH 11 0
BBX 11 18 0 0
BITMAP
0001000009D0
000F600009D0
000F600009D0
001F600009A0
4FFFFFFF4960
145F94441930
000F60000800
000F60000000
000F60000000
000F60000000
000F60000000
000F60000000
000F60000000
000F60000000
000F70000000
000CB0000000
0005FB542000
00004BEF8000
ENDCHAR
STARTCHAR Tbar
ENCODING 358
SWIDTH 501 0
DWIDTH 14 0
BBX 12 18 0 0
BITMAP
5FFFFFFFFFF6
14444CC44441
00000AB00000
00000AB00000
00000AB00000
00000AB00000
00000AB00000
00000BB00000
00EFFFFFFF30
00333CC33300
00000AB00000
00000AB00000
00000AB00000
00000AB00000
00000AB00000
00000AB00000
00000AB00000
00000AA00000
ENDCHAR
STARTCHAR tbar
ENCODING 359
SWIDTH 350 0
DWIDTH 10 0
BBX 9 17 0 0
BITMAP
000F600000
000F600000
000F700000
4FFFFFFF50
144F944410
000F600000
000F600000
001F700000
4FFFFFFF50
134F833310
000F600000
000F600000
000F600000
000E800000
000BC00000
0004FB5420
00004BEF90
ENDCHAR
STARTCHAR Utilde
ENCODING 360
SWIDTH 552 0
DWIDTH 15 0
BBX 12 23 2 0
BITMAP
004902DE4000
004908989000
003C2E22B000
000DFA02B000
000130002000
B900000002F3
CA00000003F3
CA00000003F3
CA00000003F3
CA00000003F3
CA00000003F3
CA00000003F3
CA00000003F3
CA00000003F3
CA00000003F3
CA00000003F3
CA00000003F3
CA00000003F3
CA00000003F3
BB00000004F3
8E10000008E0
2EC644459F70
02AEFFFFD600
ENDCHAR
STARTCHAR utilde
ENCODING 361
SWIDTH 507 0
DWIDTH 14 0
BBX 12 19 1 0
BITMAP
000C01CF8000
000E29B5E000
000BFE20D000
000031002000
000000000000
1F50000004F1
1F50000004F1
1F50000004F1
1F50000004F1
1F50000004F1
1F50000004F1
1F50000004F1
1F50000004F1
1F50000004F1
1F50000004F1
0F60000006F1
0DB000000BF1
05FA5445BDF1
005CFFFE95F1
ENDCHAR
STARTCHAR Umacron
ENCODING 362
SWIDTH 552 0
DWIDTH 15 0
BBX 12 22 2 0
BITMAP
006FFFFFD000
001333333000
000000000000
000000000000
B900000002F3
CA00000003F3
CA00000003F3
CA00000003F3
CA00000003F3
CA00000003F3
CA00000003F3
CA00000003F3
CA00000003F3
CA00000003F3
CA00000003F3
CA00000003F3
CA00000003F3
CA00000003F3
BB00000004F3
8E10000008E0
2EC644459F70
02AEFFFFD600
ENDCHAR
STARTCHAR umacron
ENCODING 363
SWIDTH 507 0
DWIDTH 14 0
BBX 12 18 1 0
BITMAP
002FFFFFF200
000444444000
000000000000
000000000000
1F50000004F1
1F50000004F1
1F50000004F1
1F50000004F1
1F50000004F1
1F50000004F1
1F50000004F1
1F50000004F1
1F50000004F1
1F50000004F1
0F60000006F1
0DB000000BF1
05FA5445BDF1
005CFFFE95F1
ENDCHAR
STARTCHAR Ubreve
ENCODING 364
SWIDTH 552 0
DWIDTH 15 0
BBX 12 23 2 0
BITMAP
000E00078000
000E10086000
000A701D2000
0001ADC60000
000000000000
B900000002F3
CA00000003F3
CA00000003F3
CA00000003F3
CA00000003F3
CA00000003F3
CA00000003F3
CA00000003F3
CA00000003F3
CA00000003F3
CA00000003F3
CA00000003F3
CA00000003F3
CA00000003F3
BB00000004F3
8E10000008E0
2EC644459F70
02AEFFFFD600
ENDCHAR
STARTCHAR ubreve
ENCODING 365
SWIDTH 507 0
DWIDTH 14 0
BBX 12 19 1 0
BITMAP
000B4002C000
000A6004B000
0006B0097000
00008DD80000
000000000000
1F50000004F1
1F50000004F1
1F50000004F1
1F50000004F1
1F50000004F1
1F50000004F1
1F50000004F1
1F50000004F1
1F50000004F1
1F50000004F1
0F60000006F1
0DB000000BF1
05FA5445BDF1
005CFFFE95F1
ENDCHAR
STARTCHAR Uring
ENCODING 366
SWIDTH 552 0
DWIDTH 15 0
BBX 12 24 2 0
BITMAP
0001CFE60000
0007A46E0000
0008400D0000
0008813E0000
0003EFF80000
000013200000
B900000002F3
CA00000003F3
CA00000003F3
CA00000003F3
CA00000003F3
CA00000003F3
CA00000003F3
CA00000003F3
CA00000003F3
CA00000003F3
CA00000003F3
CA00000003F3
CA00000003F3
CA00000003F3
BB00000004F3
8E10000008E0
2EC644459F70
02AEFFFFD600
ENDCHAR
STARTCHAR uring
ENCODING 367
SWIDTH 507 0
DWIDTH 14 0
BBX 12 20 1 0
BITMAP
0004DFE50000
000A736C0000
000B100C0000
000A513C0000
0005FFF70000
000013200000
1F50000004F1
1F50000004F1
1F50000004F1
1F50000004F1
1F50000004F1
1F50000004F1
1F50000004F1
1F50000004F1
1F50000004F1
1F50000004F1
0F60000006F1
0DB000000BF1
05FA5445BDF1
005CFFFE95F1
ENDCHAR
STARTCHAR Uhungarumlaut
ENCODING 368
SWIDTH 552 0
DWIDTH 15 0
BBX 12 23 2 0
BITMAP
00001D807E10
00007D11E500
0001E308A000
0007801D1000
000000000000
B900000002F3
CA00000003F3
CA00000003F3
CA00000003F3
CA00000003F3
CA00000003F3
CA00000003F3
CA00000003F3
CA00000003F3
CA00000003F3
CA00000003F3
CA00000003F3
CA00000003F3
CA00000003F3
BB00000004F3
8E10000008E0
2EC644459F70
02AEFFFFD600
ENDCHAR
STARTCHAR uhungarumlaut
ENCODING 369
SWIDTH 507 0
DWIDTH 14 0
BBX 12 19 1 0
BITMAP
000007E11E60
00001E509C00
00008A02E300
0001D1097000
000000000000
1F50000004F1
1F50000004F1
1F50000004F1
1F50000004F1
1F50000004F1
1F50000004F1
1F50000004F1
1F50000004F1
1F50000004F1
1F50000004F1
0F60000006F1
0DB000000BF1
05FA5445BDF1
005CFFFE95F1
ENDCHAR
STARTCHAR Uogonek
ENCODING 370
SWIDTH 552 0
DWIDTH 15 0
BBX 12 22 2 -4
BITMAP
B900000002F3
CA00000003F3
CA00000003F3
CA00000003F3
CA00000003F3
CA00000003F3
CA00000003F3
CA00000003F3
CA00000003F3
CA00000003F3
CA00000003F3
CA00000003F3
CA00000003F3
CA00000003F3
BB00000004F3
8E10000008E0
2EC644459F70
02AEFFFFD600
000009600000
00004A000000
0000BFE10000
000012000000
ENDCHAR
STARTCHAR uogonek
ENCODING 371
SWIDTH 503 0
DWIDTH 14 0
BBX 12 18 1 -4
BITMAP
1F50000004F1
1F50000004F1
1F50000004F1
1F50000004F1
1F50000004F1
1F50000004F1
1F50000004F1
1F50000004F1
1F50000004F1
1F50000004F1
0F60000006F1
0DB000000BF1
05FA5445BDF1
005CFFFE96F1
000000001C10
00000000B400
00000002FF70
000000002100
ENDCHAR
STARTCHAR Wcircumflex
ENCODING 372
SWIDTH 795 0
DWIDTH 22 0
BBX 22 23 0 0
BITMAP
0000000000CD2000000000
0000000007A6B000000000
000000002E20D500000000
0000000045003600000000
0000000000000000000000
1F70000000DF10000004F4
0DB0000002FF50000008F1
0AE0000006EA9000000BD0
06F200000AA6D000000EA0
03F500000E62F200002F60
00E800003F20D600005F30
00BB00007D009A00008E00
008E0000B9005E0000BB00
005F2000E5002F3000E800
001F6004F1000D7002F500
000D9008C00009B005F100
000AC00C800005E008D000
0006F01F400001F40CA000
0003F35F000000C80E6000
0000E68B0000008C3F3000
0000B9C70000004F7E0000
00008EF30000000FEB0000
00004FE00000000BF80000
ENDCHAR
STARTCHAR wcircumflex
ENCODING 373
SWIDTH 682 0
DWIDTH 19 0
BBX 19 19 0 0
BITMAP
000000007E8000000000
00000002E2E300000000
0000000B706C00000000
00000005000510000000
00000000000000000000
5F2000004F6000001E70
1F6000008FA000004F30
0CA00000CBE000009D00
07E00001F3F30000D900
03F30006D0C70002F400
00D8000A908B0006E100
009C000E504F000AB000
004F103F100E400E6000
001F507C000A804F2000
000B90B80006C08C0000
0006D0F40002F1C80000
0002F6E00000D6F40000
0000CEB000009EE00000
00008F6000005FA00000
ENDCHAR
STARTCHAR Ycircumflex
ENCODING 374
SWIDTH 493 0
DWIDTH 14 0
BBX 13 23 0 0
BITMAP
000002DC000000
00000B7A700000
00005D02E20000
00006300540000
00000000000000
2F600000000AE0
0AD00000002F70
03F60000009E10
00AD000002F700
003F600009E100
000AD0002F7000
0003F5009E1000
0000AD01E70000
00003F58E10000
00000ADE700000
000003FE100000
000000C9000000
000000C9000000
000000C9000000
000000C9000000
000000C9000000
000000C9000000
000000C9000000
ENDCHAR
STARTCHAR ycircumflex
ENCODING 375
SWIDTH 459 0
DWIDTH 13 0
BBX 12 23 0 -4
BITMAP
000005E90000
00001E3D4000
0000A804D100
000051004100
000000000000
2F500000006E
0CA0000000CA
06F1000002F4
01F6000008E0
00BB00000D90
005F20003F40
001E70009D00
0009C000E800
0004F204F300
0000E809D000
00008D1E7000
00003F8F2000
00000DFC0000
000002E60000
000006F10000
00001D900000
0246CD100000
08FEA2000000
ENDCHAR
STARTCHAR Ydieresis
ENCODING 376
SWIDTH 493 0
DWIDTH 14 0
BBX 13 23 0 0
BITMAP
0001F4007D0000
0001F4008D0000
0001F4008D0000
0001F4007D0000
00000000000000
2F600000000AE0
0AD00000002F70
03F60000009E10
00AD000002F700
003F600009E100
000AD0002F7000
0003F5009E1000
0000AD01E70000
00003F58E10000
00000ADE700000
000003FE100000
000000C9000000
000000C9000000
000000C9000000
000000C9000000
000000C9000000
000000C9000000
000000C9000000
ENDCHAR
STARTCHAR Zacute
ENCODING 377
SWIDTH 482 0
DWIDTH 14 0
BBX 12 23 1 0
BITMAP
0000000AE200
0000005F4000
000001D60000
000003500000
000000000000
7FFFFFFFFFF1
244444444DE0
000000005F60
00000001DC00
00000008F300
0000002F9000
000000BE1000
000005F60000
00001DC00000
00008F300000
0002F9000000
000BE1000000
005F60000000
01DC00000000
08F300000000
2F9000000000
AF5444444441
CFFFFFFFFFF4
ENDCHAR
STARTCHAR zacute
ENCODING 378
SWIDTH 405 0
DWIDTH 11 0
BBX 10 19 1 0
BITMAP
000000AE30
000005F500
00001E6000
0000240000
0000000000
DFFFFFFFF2
3444444DE1
0000005F50
000001EB00
000009E200
00004F7000
0000DC0000
0008F30000
003F800000
00CD000000
06F4000000
2E90000000
AF54444441
FFFFFFFFF5
ENDCHAR
STARTCHAR Zdotaccent
ENCODING 379
SWIDTH 482 0
DWIDTH 14 0
BBX 12 23 1 0
BITMAP
000006F00000
000006F00000
000006F00000
000000000000
000000000000
7FFFFFFFFFF1
244444444DE0
000000005F60
00000001DC00
00000008F300
0000002F9000
000000BE1000
000005F60000
00001DC00000
00008F300000
0002F9000000
000BE1000000
005F60000000
01DC00000000
08F300000000
2F9000000000
AF5444444441
CFFFFFFFFFF4
ENDCHAR
STARTCHAR zdotaccent
ENCODING 380
SWIDTH 405 0
DWIDTH 11 0
BBX 10 19 1 0
BITMAP
00007E0000
00008E0000
00007E0000
0000000000
0000000000
DFFFFFFFF2
3444444DE1
0000005F50
000001EB00
000009E200
00004F7000
0000DC0000
0008F30000
003F800000
00CD000000
06F4000000
2E90000000
AF54444441
FFFFFFFFF5
ENDCHAR
STARTCHAR Zcaron
ENCODING 381
SWIDTH 482 0
DWIDTH 14 0
BBX 12 23 1 0
BITMAP
0004D007A000
0000B72E2000
00002EA80000
000004710000
000000000000
7FFFFFFFFFF1
244444444DE0
000000005F60
00000001DC00
00000008F300
0000002F9000
000000BE1000
000005F60000
00001DC00000
00008F300000
0002F9000000
000BE1000000
005F60000000
01DC00000000
08F300000000
2F9000000000
AF5444444441
CFFFFFFFFFF4
ENDCHAR
STARTCHAR zcaron
ENCODING 382
SWIDTH 405 0
DWIDTH 11 0
BBX 10 19 1 0
BITMAP
004D107B00
000981E200
0001DB7000
0000250000
0000000000
DFFFFFFFF2
3444444DE1
0000005F50
000001EB00
000009E200
00004F7000
0000DC0000
0008F30000
003F800000
00CD000000
06F4000000
2E90000000
AF54444441
FFFFFFFFF5
ENDCHAR
STARTCHAR florin
ENCODING 402
SWIDTH 494 0
DWIDTH 14 0
BBX 14 23 0 -4
BITMAP
0000000002ADF4
000000002EB541
00000000AC0000
00000001F50000
00000005F10000
00000008D00000
0000000CA00000
0000001F700000
0002FFFFFFF900
0000339E433200
000000AB000000
000000D8000000
000001F5000000
000004F2000000
000007E0000000
00000BB0000000
00000E70000000
00002F40000000
00005F10000000
00009C00000000
0002E700000000
146DC100000000
7FD91000000000
ENDCHAR
STARTCHAR AEacute
ENCODING 508
SWIDTH 773 0
DWIDTH 22 0
BBX 20 23 0 0
BITMAP
0000000000002EC00000
000000000000AD100000
000000000004E2000000
00000000000530000000
00000000000000000000
0000000008FFFFFFFFFC
000000002FDF44444443
00000000AD7F00000000
00000003F57F00000000
0000000BC07F00000000
0000004F407F00000000
000000CB007F00000000
000006F3007F10000000
00000DA0007FFFFFFFF1
00007F20007F33333330
0001E800007F00000000
0008E200007F00000000
002FFFFFFFFF00000000
00AE3333338F00000000
03F60000007F00000000
0BC00000007F00000000
4F400000007F44444443
CA000000006FFFFFFFFC
ENDCHAR
STARTCHAR aeacute
ENCODING 509
SWIDTH 795 0
DWIDTH 22 0
BBX 20 19 1 0
BITMAP
000000000007F5000000
00000000002F70000000
0000000000B900000000
00000000014000000000
00000000000000000000
00CFFFFEA207DFFFD910
00344445CE9E74446DC0
000000001EF4000002F4
0000000009E0000000D7
0000000008E0000000C7
0000000009E0000000C7
007DFFFFFFE0000000C7
09D4000008FFFFFFFFF7
1F50000008E333333331
3F30000008E000000000
3F30000008F000000000
1F7000000DF400000000
08F84446CCBE74444441
006CEFFD9119EFFFFFF7
ENDCHAR
STARTCHAR Oslashacute
ENCODING 510
SWIDTH 558 0
DWIDTH 16 0
BBX 14 23 1 0
BITMAP
00000003F90000
0000000CB00000
0000007D100000
00000062000000
00000000000000
003BEFFFFD8182
02EC544446EDD1
09D10000006F50
0CA0000001DF60
0D80000009BE70
0D8000005E1E80
0D800002E40E80
0D80000B800E80
0D80007C000E80
0D8003E2000E80
0D801D60000E80
0D809A00000E80
0D85D100000E80
0DAE4000000E80
0CF80000000F70
0AE10000005F40
3EEB544447EB00
753BEFFFFE9100
ENDCHAR
STARTCHAR oslashacute
ENCODING 511
SWIDTH 521 0
DWIDTH 15 0
BBX 14 19 0 0
BITMAP
000000006F6000
00000002E80000
0000000AA00000
00000005000000
00000000000000
0003BEFFFD8002
002EC54447E9AA
009D1000006FB1
00C9000001BF60
00D800001BAF70
00D80001CA0F70
00D8001C900F70
00D801C9000F70
00D81D90000F70
00DAD800000F70
00CF8000001F60
02EE0000005F30
1E8EB54447EB00
0403BEFFFD8100
ENDCHAR
STARTCHAR uni0218
ENCODING 536
SWIDTH 562 0
DWIDTH 16 0
BBX 12 25 2 -7
BITMAP
02AEFFFFD800
1ED644448EA0
8F20000006F3
AC00000001F6
BB00000000F6
BB0000000010
8E2000000000
2ED610000000
02BFFC951000
000159CFF910
000000018FC0
0000000005F4
3300000000F7
BB00000000E7
AC00000001F6
8E20000005F4
1ED644447EB0
02AEFFFFD810
000000000000
000008D00000
000009E00000
000009C00000
000009800000
000009400000
000007000000
ENDCHAR
STARTCHAR uni0219
ENCODING 537
SWIDTH 427 0
DWIDTH 12 0
BBX 10 21 1 -7
BITMAP
04CEFFFFD0
3FB5444430
7E00000000
8D00000000
5F30000000
0AE9300000
004BFC6100
000027DE60
00000008F2
00000000F7
00000000E8
00000001F7
1444445CE2
6FFFFFEB40
0000000000
00006F1000
00006F1000
00006E0000
00006A0000
0000650000
0000410000
ENDCHAR
STARTCHAR circumflex
ENCODING 710
SWIDTH 326 0
DWIDTH 9 0
BBX 7 4 1 15
BITMAP
006E8000
02E3E300
0A806C00
17100710
ENDCHAR
STARTCHAR caron
ENCODING 711
SWIDTH 326 0
DWIDTH 9 0
BBX 7 4 1 15
BITMAP
1D402E10
05C0B700
00BAD000
00272000
ENDCHAR
STARTCHAR uni02C9
ENCODING 713
SWIDTH 358 0
DWIDTH 10 0
BBX 8 2 1 16
BITMAP
2FFFFFF2
04444440
ENDCHAR
STARTCHAR breve
ENCODING 728
SWIDTH 332 0
DWIDTH 9 0
BBX 7 4 1 15
BITMAP
2D000860
1E000950
0C502D20
02BDC500
ENDCHAR
STARTCHAR dotaccent
ENCODING 729
SWIDTH 183 0
DWIDTH 5 0
BBX 3 3 1 16
BITMAP
2F40
2F40
2F40
ENDCHAR
STARTCHAR ring
ENCODING 730
SWIDTH 297 0
DWIDTH 8 0
BBX 5 6 1 14
BITMAP
2DFE70
7935D0
8400C0
8712D0
3EFF90
013200
ENDCHAR
STARTCHAR ogonek
ENCODING 731
SWIDTH 243 0
DWIDTH 7 0
BBX 3 5 2 -4
BITMAP
0240
1C20
9500
FF80
2200
ENDCHAR
STARTCHAR tilde
ENCODING 732
SWIDTH 369 0
DWIDTH 10 0
BBX 7 5 1 14
BITMAP
2A01CE50
2B06B7B0
1D1D31C0
0CFB00D0
01300020
ENDCHAR
STARTCHAR hungarumlaut
ENCODING 733
SWIDTH 377 0
DWIDTH 11 0
BBX 7 4 2 15
BITMAP
06E11D70
1E608C00
7B01E300
D2088000
ENDCHAR
STARTCHAR Mu
ENCODING 924
SWIDTH 527 0
DWIDTH 15 0
BBX 11 20 2 -5
BITMAP
330000000420
BB0000000E70
BB0000000E70
BB0000000E70
BB0000000E70
BB0000000E70
BB0000000E70
BB0000000E70
BB0000000E70
BB0000000E70
BB0000000E70
BC0000000F70
BE1000004F70
BFB31015DF70
BCCFFFFE5E70
BB0233200210
BB0000000000
BB0000000000
BB0000000000
220000000000
ENDCHAR
STARTCHAR Pi
ENCODING 928
SWIDTH 605 0
DWIDTH 17 0
BBX 15 19 1 -1
BITMAP
EFFFFFFFFFFFFFD0
233E933333AE3320
000D8000009D0000
000D8000009D0000
000D8000009D0000
000D8000009D0000
000D8000009D0000
000D8000009D0000
000D8000009D0000
000D8000009D0000
000D8000009D0000
000D8000009D0000
000D8000009D0000
000D8000009D0000
000D8000009D0000
000D8000009D0000
000D8000009D0000
000D8000009D0000
0002100000120000
ENDCHAR
STARTCHAR Sigma
ENCODING 931
SWIDTH 481 0
DWIDTH 13 0
BBX 11 19 1 -1
BITMAP
4FFFFFFFFFC0
2FA333333320
08F200000000
01DB00000000
004F50000000
000AE1000000
0002E9000000
00007F300000
00000DC00000
000009E00000
00003F600000
0000CC000000
0007F3000000
002F80000000
00BD10000000
05F400000000
1EA000000000
4FFFFFFFFFC0
133333333320
ENDCHAR
STARTCHAR uni0901
ENCODING 2305
SWIDTH 0 0
DWIDTH 0 0
BBX 10 6 -8 19
BITMAP
0000C80000
67003200A2
8B000002F3
4F51002AD0
07FFFFFD40
0002332000
ENDCHAR
STARTCHAR uni0902
ENCODING 2306
SWIDTH 0 0
DWIDTH 0 0
BBX 3 2 -5 21
BITMAP
1F60
0310
ENDCHAR
STARTCHAR uni0903
ENCODING 2307
SWIDTH 247 0
DWIDTH 7 0
BBX 3 11 2 2
BITMAP
4F30
1300
0000
0000
0000
0000
0000
0000
0000
4F30
1300
ENDCHAR
STARTCHAR uni0905
ENCODING 2309
SWIDTH 598 0
DWIDTH 17 0
BBX 17 19 1 -1
BITMAP
0FFFEB300001EFFF20
03445CE20003F64300
000001D90003F30000
0000009C0003F30000
0000008D0003F30000
0000008C0003F30000
000000CA0003F30000
000029F30003F30000
04FFFF400003F30000
00335BE20003F30000
000000CFFFFFF30000
0000009D3335F30000
0000008D0003F30000
0000008C0003F30000
000000CA0003F30000
000029F30003F30000
FFFFFE500003F30000
333320000003F30000
000000000000300000
ENDCHAR
STARTCHAR uni0906
ENCODING 2310
SWIDTH 828 0
DWIDTH 23 0
BBX 23 19 1 -1
BITMAP
1FFFEA200002EFFFFFFFFF80
03445CE10004F54444CB4420
000001E80004F20000B90000
000000AB0004F20000B90000
0000008C0004F20000B90000
0000009B0004F20000B90000
000000C90004F20000B90000
000129E20004F20000B90000
05FFFF400004F20000B90000
01335BE20004F20000B90000
000000DFFFFFF20000B90000
0000009C3336F20000B90000
0000008C0004F20000B90000
0000009B0004F20000B90000
000000D90004F20000B90000
000129F30004F20000B90000
FFFFFD400004F20000B90000
333320000003F20000B90000
000000000000300000220000
ENDCHAR
STARTCHAR uni0907
ENCODING 2311
SWIDTH 478 0
DWIDTH 13 0
BBX 15 19 -1 -1
BITMAP
5FFFFFFFFFFFFFB0
1444444444AD4420
00000000008C0000
00000000008C0000
00008DFFFFFC0000
0008E63333310000
000D700000000000
000F600000000000
000D700000000000
0009D31000000000
0001BFFFFFD60000
00000133348F4000
00000000000C8000
001F3000000B9000
001F5000000C9000
001FD310015F5000
001FAFFFFFF80000
001F413332100000
001F300000000000
ENDCHAR
STARTCHAR uni0908
ENCODING 2312
SWIDTH 478 0
DWIDTH 13 0
BBX 15 26 -1 -1
BITMAP
0000000005CEFA00
000000005F944200
00000000CA000000
00000000F6000000
00000000F6000000
00000000F6000000
00000000A9100000
5FFFFFFFFFFFFFB0
1444444444AD4420
00000000008C0000
00000000008C0000
00008DFFFFFC0000
0008E63333310000
000D700000000000
000F600000000000
000D700000000000
0009D31000000000
0001BFFFFFD60000
00000133348F4000
00000000000C8000
001F3000000B9000
001F5000000C9000
001FD310015F5000
001FAFFFFFF80000
001F413332100000
001F300000000000
ENDCHAR
STARTCHAR uni0909
ENCODING 2313
SWIDTH 471 0
DWIDTH 13 0
BBX 15 19 -1 -1
BITMAP
5FFFFFFFFFFFFF80
1444444449F64420
00000000009D0000
00000000004F1000
00000000003F2000
00000000004F2000
00000000007E0000
0000000015E80000
000000CFFFB00000
0000002347E70000
00000000007F1000
00220000002F3000
00AA0000001F4000
00AA0000001F4000
009B0000002F4000
006E1000006F1000
001EB31015E90000
0003CFFFFF900000
0000023331000000
ENDCHAR
STARTCHAR uni090A
ENCODING 2314
SWIDTH 661 0
DWIDTH 19 0
BBX 20 19 -1 -1
BITMAP
5FFFFFFFFFFFFFFFFFFD
1444444449F644444443
00000000009C00000000
00000000004F10000000
00000000003F20000000
00000000004F20000000
00000000007F10000000
0000000015EC00000000
000000CFFFD300000000
0000002347EFFFFFA200
00000000007E3335CD10
00000000002F30002F60
009A0000001F40000C80
00AA0000001F40000B90
009B0000002F40000C80
007E1000006F10001E60
001EB31015E90003BE10
0003CFFFFF9101FFD400
00000233310000320000
ENDCHAR
STARTCHAR uni090B
ENCODING 2315
SWIDTH 753 0
DWIDTH 21 0
BBX 23 19 -1 -1
BITMAP
5FFFFFFFFFFFFFFFFFFFFF70
14444444445F644444444410
00000000002F400000000000
00000000002F400000000000
00000000002F400000000000
00000000002F400000000000
00007DFFFC5F40001BFE0000
000AE74347EF4004EC7E0000
001F6000006F407F915E0000
003F3000003F4AF6005E0000
003F2000002FED30005E0000
00191000004FB1019DFE0000
0000000006FF400AD5210000
00000001AF7F400E60000000
0000002CD32F400F50000000
000004EB102F400E60000000
00007F90002F400BC3100000
0009E500002F3002BFFF5000
000310000003000001331000
ENDCHAR
STARTCHAR uni090C
ENCODING 2316
SWIDTH 676 0
DWIDTH 19 0
BBX 21 25 -1 -7
BITMAP
5FFFFFFFFFFFFFFFFFFF50
1444444444444444F84310
0000000000000000F60000
0000000000000000F60000
0000000000000000F60000
00005CFEB219EFD5F60000
0005F944AD9D546EF60000
000CA0000CF30005F60000
000F600008E00001F60000
000F500007D00000F60000
000F500007D00000F60000
000F500007D00000F60000
000F500001300000F60000
000F600000000000F60000
000C900000000000F60000
0006F72000000000F60000
00008EFFB0000000F60000
00000033200005CFF60000
0000000000002F94310000
0000000000007D00000000
0000000000009B00000000
0000000000007D00000300
0000000000003F82139F30
00000000000005DFFFC400
0000000000000001310000
ENDCHAR
STARTCHAR uni090D
ENCODING 2317
SWIDTH 521 0
DWIDTH 15 0
BBX 17 25 -1 0
BITMAP
000099000004E00000
00008B000006D00000
00004F51003D900000
000008FFFFFB100000
000000033310000000
000000000000000000
000000000000000000
5FFFFFFFFFFFFFFF20
1449E4444444AD4300
0006D00000009C0000
0006D00000009C0000
0006D00000009C0000
0006D00000009C0000
0006D00000009B0000
0006D0000000D90000
0006D0000028F30000
0006D0008FFE500000
0006D0001320000000
0006D0000000000000
0006D0000000000000
0006F0000000000000
0003F4000000000000
0000AD510000000000
00001AFFFFFFF00000
000000133333300000
ENDCHAR
STARTCHAR uni090E
ENCODING 2318
SWIDTH 522 0
DWIDTH 15 0
BBX 17 25 -1 0
BITMAP
0000006D0000000000
0000005F1000000000
0000001EB100000000
00000003CE81000000
0000000006DE600000
000000000007F70000
0000000000009C0000
5FFFFFFFFFFFFFFF20
1449E4444444AD4300
0006D00000009C0000
0006D00000009C0000
0006D00000009C0000
0006D00000009C0000
0006D00000009B0000
0006D0000000D90000
0006D0000028F30000
0006D0008FFE500000
0006D0001320000000
0006D0000000000000
0006D0000000000000
0006F0000000000000
0003F4000000000000
0000AD510000000000
00001AFFFFFFF00000
000000133333300000
ENDCHAR
STARTCHAR uni090F
ENCODING 2319
SWIDTH 526 0
DWIDTH 15 0
BBX 17 18 -1 0
BITMAP
5FFFFFFFFFFFFFFF20
1449E4444444AD4300
0006D00000009C0000
0006D00000009C0000
0006D00000009C0000
0006D00000009C0000
0006D00000009B0000
0006D0000000D90000
0006D0000028F30000
0006D0008FFE500000
0006D0001320000000
0006D0000000000000
0006D0000000000000
0006F0000000000000
0003F4000000000000
0000AD510000000000
00001AFFFFFFF00000
000000133333300000
ENDCHAR
STARTCHAR uni0910
ENCODING 2320
SWIDTH 526 0
DWIDTH 15 0
BBX 17 25 -1 0
BITMAP
00000002F600000000
000000008E20000000
000000000CB0000000
0000000002E6000000
00000000006E200000
00000000000AB00000
000000000001C60000
5FFFFFFFFFFFFFFF20
1449E4444444AD4300
0006D00000009C0000
0006D00000009C0000
0006D00000009C0000
0006D00000009C0000
0006D00000009B0000
0006D0000000D90000
0006D0000028F30000
0006D0008FFE500000
0006D0001320000000
0006D0000000000000
0006D0000000000000
0006F0000000000000
0003F4000000000000
0000AD510000000000
00001AFFFFFFF00000
000000133333300000
ENDCHAR
STARTCHAR uni0911
ENCODING 2321
SWIDTH 829 0
DWIDTH 23 0
BBX 23 25 1 -1
BITMAP
0000000000059000000B2000
000000000005E000002F2000
000000000002F71002AD0000
0000000000006EFFFFD30000
000000000000002332000000
000000000000000000000000
0FFFEB300001EFFFFFFFFF90
03445CE20003F64444CB4420
000001D90003F30000AA0000
0000009C0003F30000AA0000
0000008D0003F30000AA0000
0000008C0003F30000AA0000
000000CA0003F30000AA0000
000029F30003F30000AA0000
04FFFF400003F30000AA0000
00335BE20003F30000AA0000
000000CFFFFFF30000AA0000
0000009D3335F30000AA0000
0000008D0003F30000AA0000
0000008C0003F30000AA0000
000000CA0003F30000AA0000
000029F30003F30000AA0000
FFFFFE500003F30000AA0000
333320000003F30000AA0000
000000000000300000220000
ENDCHAR
STARTCHAR uni0912
ENCODING 2322
SWIDTH 828 0
DWIDTH 23 0
BBX 23 26 1 -1
BITMAP
0000000000008B0000000000
0000000000007D0000000000
0000000000002F9100000000
00000000000004DE70000000
0000000000000017ED400000
000000000000000019F40000
000000000000000000CA0000
0FFFEB300001EFFFFFFFFF80
03445CE20003F64444CB4420
000001D90003F30000B90000
0000009C0003F30000B90000
0000008D0003F30000B90000
0000008C0003F30000B90000
000000CA0003F30000B90000
000029F30003F30000B90000
04FFFF400003F30000B90000
00335BE20003F30000B90000
000000CFFFFFF30000B90000
0000009D3335F30000B90000
0000008D0003F30000B90000
0000008C0003F30000B90000
000000CA0003F30000B90000
000029F30003F30000B90000
FFFFFE500003F30000B90000
333320000003F30000B90000
000000000000300000220000
ENDCHAR
STARTCHAR uni0913
ENCODING 2323
SWIDTH 829 0
DWIDTH 23 0
BBX 23 26 1 -1
BITMAP
00000000000004F500000000
00000000000000AE10000000
000000000000001EA0000000
0000000000000004F5000000
00000000000000008E100000
00000000000000000C900000
000000000000000002E50000
0FFFEB300001EFFFFFFFFF90
03445CE20003F64444CB4420
000001D90003F30000AA0000
0000009C0003F30000AA0000
0000008D0003F30000AA0000
0000008C0003F30000AA0000
000000CA0003F30000AA0000
000029F30003F30000AA0000
04FFFF400003F30000AA0000
00335BE20003F30000AA0000
000000CFFFFFF30000AA0000
0000009D3335F30000AA0000
0000008D0003F30000AA0000
0000008C0003F30000AA0000
000000CA0003F30000AA0000
000029F30003F30000AA0000
FFFFFE500003F30000AA0000
333320000003F30000AA0000
000000000000300000220000
ENDCHAR
STARTCHAR uni0914
ENCODING 2324
SWIDTH 829 0
DWIDTH 23 0
BBX 23 26 1 -1
BITMAP
00000000000007E1009A0000
00000000000001DA00AA0000
000000000000003F50AA0000
0000000000000008D19A0000
0000000000000000C98A0000
00000000000000002E9A0000
000000000000000003DA0000
0FFFEB300001EFFFFFFFFF90
03445CE20003F64444CB4420
000001D90003F30000AA0000
0000009C0003F30000AA0000
0000008D0003F30000AA0000
0000008C0003F30000AA0000
000000CA0003F30000AA0000
000029F30003F30000AA0000
04FFFF400003F30000AA0000
00335BE20003F30000AA0000
000000CFFFFFF30000AA0000
0000009D3335F30000AA0000
0000008D0003F30000AA0000
0000008C0003F30000AA0000
000000CA0003F30000AA0000
000029F30003F30000AA0000
FFFFFE500003F30000AA0000
333320000003F30000AA0000
000000000000300000220000
ENDCHAR
STARTCHAR uni0915
ENCODING 2325
SWIDTH 725 0
DWIDTH 20 0
BBX 22 19 -1 -1
BITMAP
5FFFFFFFFFFFFFFFFFFFFA
1444444444AD4444444442
00000000008C0000000000
00000000008C0000000000
00007DFF608C5DFFE91000
0008F843108ED6336DC000
001F7000008F300002F500
004F2000008D000000D800
004F1000008C000000B900
004F1000008C000000B900
004F1000008C000000B900
004F2000008C000000C800
002F500000CC000001E600
000AE51029FC00013BE100
0001AFFFFB9C01FFFC3000
00000133208C0033200000
00000000008C0000000000
00000000008C0000000000
0000000000120000000000
ENDCHAR
STARTCHAR uni0916
ENCODING 2326
SWIDTH 696 0
DWIDTH 19 0
BBX 21 19 -1 -1
BITMAP
5FFFFFFFFFFFFFFFFFFFD0
1444446F644444448E4430
0000003F300000006E0000
0000003F300000006E0000
0000003F300000006E0000
0000003F3006DF806E0000
0000003F205F84106E0000
0000006F00C900006E0000
000014DA00F500006E0000
00FFFFB101F400006E0000
00CD310000F500007E0000
003F700000D80000AE0000
0007E200007E6127FE0000
0000CC000009FFFC7E0000
00002F70000013206E0000
000007F2000000006E0000
000000BC000000006E0000
0000002E700000006E0000
0000000220000000130000
ENDCHAR
STARTCHAR uni0917
ENCODING 2327
SWIDTH 494 0
DWIDTH 14 0
BBX 16 19 -1 -1
BITMAP
5FFFFFFFFFFFFFF3
14447F54445F7430
00004F10001F4000
00004F10001F4000
00004F10001F4000
00004F10001F4000
00004F10001F4000
00005F10001F4000
00007E00001F4000
0015E900001F4000
07FF9100001F4000
01310000001F4000
00000000001F4000
00000000001F4000
00000000001F4000
00000000001F4000
00000000001F4000
00000000001F4000
0000000000030000
ENDCHAR
STARTCHAR uni0918
ENCODING 2328
SWIDTH 559 0
DWIDTH 16 0
BBX 17 18 -1 0
BITMAP
5FFFFFFFFFFFFFFFF0
1448F74444447F5430
000C900000004F2000
000F600000004F2000
000F600000004F2000
000D800000004F2000
0007E41000004F2000
00009FFFB0004F2000
0005E74320004F2000
000D800000004F2000
000F600000004F2000
000F600000005F2000
000D800000009F2000
0008E6100027EF2000
00009FFFFFFD7F2000
0000002333204F2000
0000000000004F2000
0000000000002B1000
ENDCHAR
STARTCHAR uni0919
ENCODING 2329
SWIDTH 505 0
DWIDTH 14 0
BBX 16 19 -1 -1
BITMAP
5FFFFFFFFFFFFFF8
1444444444BC4441
00000000009B0000
00000000009B0000
00000000009B0000
00018DFFFFFA0000
0009E63333310000
000D800000000000
000D700000003F30
000AD31000000300
0001BFFFFEC40000
0000013334AF2000
00000000000E7000
00020000000C8000
000F4000000C8000
000E6000000E7000
000AC310018F3000
0002BFFFFFE60000
0000013332000000
ENDCHAR
STARTCHAR uni091A
ENCODING 2330
SWIDTH 563 0
DWIDTH 16 0
BBX 18 19 -1 -1
BITMAP
5FFFFFFFFFFFFFFFF2
1444444444446F6430
0000000000002F3000
0000000000002F3000
0000000000002F3000
0000000000002F3000
06FFFFFFFF002F3000
01336F9433002F3000
0000CA0000002F3000
0000F60000002F3000
0000F50000002F3000
0000F50000003F3000
0000D90000007F3000
00007F720016EF3000
000008EFFFFE6F3000
0000000333202F3000
0000000000002F3000
0000000000002F3000
000000000000030000
ENDCHAR
STARTCHAR uni091B
ENCODING 2331
SWIDTH 581 0
DWIDTH 16 0
BBX 18 18 -1 0
BITMAP
5FFFFFFFFFFFFFFFF9
1446F84444444E9442
000BB00000000D7000
000D800000000D7000
000D800000000D7000
000D800000000E7000
000CA00000BFEF4000
0006F61000235DB000
00007FFF400004F100
0003F943000002F300
000AC000000001F300
000D8000000001F300
000D8000000001F300
000D8000000002F300
000AB000000006F100
0005F61000015E9000
00007EFFFFFFF91000
000000233333100000
ENDCHAR
STARTCHAR uni091C
ENCODING 2332
SWIDTH 547 0
DWIDTH 15 0
BBX 17 19 -1 -1
BITMAP
5FFFFFFFFFFFFFFFA0
144444444444BC4420
0000000000009B0000
0000000000009B0000
0000000000009B0000
000000000000AB0000
000FFFFFFFFFFB0000
000334AE4333BB0000
0000000D80009B0000
00000009B0009B0000
00000008C0009B0000
00000008C0009B0000
00000009B0009B0000
0000000CA0009B0000
0000028F40009B0000
02FFFFE600009B0000
0033320000009B0000
0000000000009B0000
000000000000220000
ENDCHAR
STARTCHAR uni091D
ENCODING 2333
SWIDTH 664 0
DWIDTH 19 0
BBX 20 19 -1 -1
BITMAP
5FFFFFFFFFFFFFFFFFFE
144444444AD44448F443
0000000008C00005F000
0000000008C00005F000
00008DFFFFC00005F000
0008E63333100005F000
000D800000000005F000
000E600000000005F000
000D700000000005F000
0009D41000000006F000
0001AFFFFFFFFFFFF000
0000013337F63337F000
0000000000C90005F000
001F300000AA0005F000
001F500000B90005F000
001FC31015F50005F000
001F9FFFFF800005F000
001F313321000005F000
001F3000000000014000
ENDCHAR
STARTCHAR uni091E
ENCODING 2334
SWIDTH 592 0
DWIDTH 17 0
BBX 18 19 -1 -1
BITMAP
5FFFFFFFFFFFFFFFFE
14444444444448F443
00000000000005F000
00000000000005F000
00000000000005F000
005FFFD8100005F000
0013336E900005F000
00000006F00005F000
00000002F30006F000
00000002FFFFFFF000
00000002F53337F000
00000002F20005F000
00000005E00005F000
0000014D900005F000
00BFFFF9100005F000
00233310000005F000
00000000000005F000
00000000000005F000
000000000000013000
ENDCHAR
STARTCHAR uni091F
ENCODING 2335
SWIDTH 485 0
DWIDTH 14 0
BBX 15 18 -1 0
BITMAP
5FFFFFFFFFFFFFE0
1444444444CB4430
0000000000B90000
0000000000B90000
0000000000C90000
00005CFFFFF90000
0005F94333310000
000CA00000000000
001F500000000000
002F300000000000
002F300000000000
002F30000001B200
002F30000002F300
001F50000003F200
000D90000007E000
0006F720016E7000
00007EFFFFF80000
0000003333100000
ENDCHAR
STARTCHAR uni0920
ENCODING 2336
SWIDTH 512 0
DWIDTH 14 0
BBX 16 18 -1 0
BITMAP
5FFFFFFFFFFFFFFB
14444444448F4442
00000000006F0000
00000000007E0000
0000000013CA0000
00005CFFFFF40000
0005F943348F5000
000DA0000008E000
001F40000003F200
002F30000002F300
002F30000002F400
002F30000002F400
002F30000002F300
002F40000003F300
000E80000007E000
0007F720016E8000
00008EFFFFF80000
0000013333100000
ENDCHAR
STARTCHAR uni0921
ENCODING 2337
SWIDTH 475 0
DWIDTH 13 0
BBX 15 19 -1 -1
BITMAP
5FFFFFFFFFFFFFA0
1444444444BC4420
00000000009B0000
00000000009B0000
00000000009B0000
00019EFFFFFA0000
0009E63333310000
000D700000000000
000D700000000000
000AC31000000000
0002BFFFFEC40000
0000013334AF2000
00000000000E7000
00031000000C8000
000F4000000C8000
000E6000000E7000
0009D310029F3000
0001AFFFFFE50000
0000013332000000
ENDCHAR
STARTCHAR uni0922
ENCODING 2338
SWIDTH 485 0
DWIDTH 14 0
BBX 15 18 -1 0
BITMAP
5FFFFFFFFFFFFFF0
1444444444AD4430
00000000008C0000
00000000008C0000
00000000009C0000
00005CFFFFFB0000
0004F94333310000
000CA00000000000
000F500000000000
001F40005DFC3000
001F4001E84AD000
001F4004F002F200
001F4005E001F300
000F50015001F300
000C90000004F100
0006F720013CB000
00007EFFFFFC2000
0000003333200000
ENDCHAR
STARTCHAR uni0923
ENCODING 2339
SWIDTH 681 0
DWIDTH 19 0
BBX 21 19 -1 -1
BITMAP
5FFFFFFFFFFFFFFFFFFF70
144CB44444F84444DA4410
000B900000E50000C80000
000B900000E50000C80000
000B900000E50000C80000
000B900000E50000C80000
000B900000E50000C80000
000B900000E50000C80000
000B900000E50000C80000
000AA00000F50000C80000
0008D00003F30000C80000
0003F8213CD00000C80000
00005EFFFB200000C80000
0000002310000000C80000
0000000000000000C80000
0000000000000000C80000
0000000000000000C80000
0000000000000000C80000
0000000000000000210000
ENDCHAR
STARTCHAR uni0924
ENCODING 2340
SWIDTH 496 0
DWIDTH 14 0
BBX 16 19 -1 -1
BITMAP
5FFFFFFFFFFFFFF4
14444444444F7431
00000000000F5000
00000000000F5000
00000000000F5000
00000000001F5000
00007DFFFFFF5000
0008F743334F5000
000E8000000F5000
002F4000000F5000
002F3000000F5000
002F3000000F5000
002F3000000F5000
002F3000000F5000
002F4000000F5000
000E7000000F5000
0009E510000F5000
00019FF9000F5000
0000013200031000
ENDCHAR
STARTCHAR uni0925
ENCODING 2341
SWIDTH 593 0
DWIDTH 17 0
BBX 16 19 1 -1
BITMAP
003BED910003FFFF
01EA45DA0005F443
06E0004F1005F100
08C0002F3005F100
08B0002F3005F100
0120002F3005F100
0000005F1005F100
000014DB0005F100
4FFFFFB10005F100
4F4331000005F100
4F1000000005F100
4F2000000007F100
1F700000000CF100
08E6200013AEF100
007EFFFFFFB6F100
000023333105F100
000000000005F100
000000000005F100
0000000000013000
ENDCHAR
STARTCHAR uni0926
ENCODING 2342
SWIDTH 489 0
DWIDTH 14 0
BBX 16 18 -1 0
BITMAP
5FFFFFFFFFFFFFF1
14444444446F6430
00000000003F3000
00000000003F3000
00000000003F3000
00006DFFFFFF2000
0006F94333320000
000D900000000000
001F500000000000
001F400000000000
001F400000000000
001F4000000A8000
000E8000000C9000
0008E610017F9000
00008FFFFFCC9000
00000133320B9000
00000000000B9000
00000000000A8000
ENDCHAR
STARTCHAR uni0927
ENCODING 2343
SWIDTH 560 0
DWIDTH 16 0
BBX 18 19 -1 -1
BITMAP
5FFFFFF701FFFFFFF1
1448F74100346F5430
000C900000004F2000
000E600000004F2000
000E600000004F2000
000D800000004F2000
0007E51000004F2000
00008FFFB0004F2000
0004F84320004F2000
000CA00000004F2000
000E600000004F2000
000E600000004F2000
000E700000005F2000
000B900000009F2000
0005F6100027EF2000
00008EFFFFFD6F2000
0000013333204F2000
0000000000003F2000
000000000000030000
ENDCHAR
STARTCHAR uni0928
ENCODING 2344
SWIDTH 473 0
DWIDTH 13 0
BBX 15 19 -1 -1
BITMAP
5FFFFFFFFFFFFF90
1444444444CC4420
0000000000AA0000
0000000000AA0000
0000000000AA0000
0000000000AA0000
0000000000BA0000
0009EFFFFFFA0000
007F633333BA0000
00AA000000AA0000
00AA000000AA0000
007D000000AA0000
0015000000AA0000
0000000000AA0000
0000000000AA0000
0000000000AA0000
0000000000AA0000
0000000000AA0000
0000000000220000
ENDCHAR
STARTCHAR uni0928093C
ENCODING 2345
SWIDTH 473 0
DWIDTH 13 0
BBX 15 19 -1 -1
BITMAP
5FFFFFFFFFFFFF90
1444444444CC4420
0000000000AA0000
0000000000AA0000
0000000000AA0000
0000000000AA0000
0000000000BA0000
0009EFFFFFFA0000
007F633333BA0000
00AA000000AA0000
00AA000000AA0000
006D000000AA0000
0003000000AA0000
0000000000AA0000
0000000000AA0000
0000000000AA0000
0000000000AA0000
00000D9000660000
0000022000000000
ENDCHAR
STARTCHAR uni092A
ENCODING 2346
SWIDTH 503 0
DWIDTH 14 0
BBX 16 19 -1 -1
BITMAP
5FFFFFFFFFFFFFF7
144CB444444DA441
000BA000000C8000
000BA000000C8000
000BA000000C8000
000BA000000C8000
000BA000000C8000
000BA000000C8000
000BA000000C8000
000AA000000D8000
0008D000002F8000
0002EA2114CF8000
00004DFFFF8C8000
00000023310C8000
00000000000C8000
00000000000C8000
00000000000C8000
00000000000C8000
0000000000021000
ENDCHAR
STARTCHAR uni092B
ENCODING 2347
SWIDTH 739 0
DWIDTH 21 0
BBX 23 19 -1 -1
BITMAP
5FFFFFFFFFFFFFFFFFFFFF10
144CB444446F644444444300
000BA000002F300000000000
000BA000002F300000000000
000BA000002F5BFFFC400000
000BA000002FE8435AF30000
000BA000002F800000CB0000
000BA000002F4000007E0000
000AA000003F3000006E0000
0008D000006F3000006E0000
0003F92115EF3000006E0000
00004DFFFE6F3000007E0000
00000023202F300000AC0000
00000000002F300028F50000
00000000002F30BFFE600000
00000000002F302320000000
00000000002F300000000000
00000000002F300000000000
000000000003000000000000
ENDCHAR
STARTCHAR uni092C
ENCODING 2348
SWIDTH 491 0
DWIDTH 14 0
BBX 16 19 -1 -1
BITMAP
5FFFFFFFFFFFFFF2
14444444446F6430
00000000003F3000
00000000003F3000
00007DFFB03F3000
0007F843203F3000
001EE900003F3000
003F4C80003F3000
004F21C8003F3000
004F201C803F3000
004F2001C83F3000
003F20001DAF3000
001F600001DF3000
000AE51016EF3000
00019FFFFD6F3000
00000133203F3000
00000000003F3000
00000000003F3000
0000000000030000
ENDCHAR
STARTCHAR uni092D
ENCODING 2349
SWIDTH 491 0
DWIDTH 14 0
BBX 16 19 -1 -1
BITMAP
5EC40000FFFFFFF2
14AE2000346F6430
000E7000003F3000
000C9000003F3000
000C9000003F3000
000C9000003F3000
000C9000003F3000
000C9000003F3000
000CFFFFFFFF3000
000CA333335F3000
000C9000003F3000
000C9000003F3000
000A7000003F3000
00000000003F3000
00000000003F3000
00000000003F3000
00000000003F3000
00000000003F3000
0000000000030000
ENDCHAR
STARTCHAR uni092E
ENCODING 2350
SWIDTH 490 0
DWIDTH 14 0
BBX 16 19 -1 -1
BITMAP
5FFFFFFFFFFFFFF1
144DA444446F5430
000C8000003F2000
000C8000003F2000
000C8000003F2000
000C8000003F2000
000C8000003F2000
000C9000004F2000
000CFFFFFFFF2000
000CA333336F2000
000C8000003F2000
000C8000003F2000
000A7000003F2000
00000000003F2000
00000000003F2000
00000000003F2000
00000000003F2000
00000000003F2000
0000000000030000
ENDCHAR
STARTCHAR uni092F
ENCODING 2351
SWIDTH 564 0
DWIDTH 16 0
BBX 18 19 -1 -1
BITMAP
5FFFFFFFFFFFFFFFF2
144445CB44445F6430
0000002F30002F3000
0000000E60002F3000
0000000E60002F3000
0000002F40002F3000
000012AE10002F3000
001FFFD300002F3000
001F620000002F3000
001F400000002F3000
001F400000002F3000
001F500000004F3000
000CA00000009F3000
0004F9310128EF3000
00005DFFFFFD5F3000
0000002333202F3000
0000000000002F3000
0000000000002F3000
000000000000030000
ENDCHAR
STARTCHAR uni0930
ENCODING 2352
SWIDTH 337 0
DWIDTH 9 0
BBX 11 19 -1 -1
BITMAP
5FFFFFFFFFC0
1444446F6430
0000003F3000
0000003F3000
0000003F3000
0000003F3000
0000003F2000
0000006F0000
000014D90000
00FFFFB10000
00DD31000000
003F60000000
0007E2000000
0000CB000000
00003F600000
000007E20000
000000CB0000
0000002F5000
000000022000
ENDCHAR
STARTCHAR uni0930093C
ENCODING 2353
SWIDTH 347 0
DWIDTH 10 0
BBX 12 20 -1 -2
BITMAP
5FFFFFFFFFF1
1444444E9430
0000000E6000
0000000E6000
0000000E6000
0000000E6000
0000000E6000
0000002F4000
000002BD0000
00CFFFD30000
009F52000000
000DA0000000
0004F5000000
00009D100000
00001E800000
000005F30000
000000AC0000
0000001E7000
08E000046000
013000000000
ENDCHAR
STARTCHAR uni0932
ENCODING 2354
SWIDTH 676 0
DWIDTH 19 0
BBX 21 19 -1 -1
BITMAP
5FFFFFFFFFFFFFFFFFFF40
1444444444444444F84310
0000000000000000F60000
0000000000000000F60000
0000000000000000F60000
00005CFEB209EFD5F60000
0005F944AD9D546DF60000
000CA0000CF20005F60000
000F600008E00001F60000
000F500007C00000F60000
000F500007C00000F60000
000F500007C00000F60000
000F500001300000F60000
000F600000000000F60000
000C900000000000F60000
0006F72000000000F60000
00008EFFB0000000F60000
0000003320000000F60000
0000000000000000310000
ENDCHAR
STARTCHAR uni0933
ENCODING 2355
SWIDTH 672 0
DWIDTH 19 0
BBX 21 18 -1 0
BITMAP
5FFFFFFFFFFFFFFFFFFF30
1444444444444D94444300
0000000000000C70000000
0000000000000C70000000
0000000000000C70000000
00006DFFC405BFE9200000
0006F8449F9E745BE20000
000D80000AF60000D80000
001F400006F200009B0000
002F300005F000007C0000
002F300005F000007C0000
002F300005F000007C0000
002F300005F000007C0000
001F400006F100008C0000
000E700009F50000CA0000
0008E5126FCD4128F30000
00008FFFE71AFFFE500000
0000013200001320000000
ENDCHAR
STARTCHAR uni0933093C
ENCODING 2356
SWIDTH 672 0
DWIDTH 19 0
BBX 21 20 -1 -2
BITMAP
5FFFFFFFFFFFFFFFFFFF30
1444444444444D94444300
0000000000000C70000000
0000000000000C70000000
0000000000000C70000000
00006DFFC405BFE9200000
0006F8449F9E745BE20000
000D80000AF60000D80000
001F400006F200009B0000
002F300005F000007C0000
002F300005F000007C0000
002F300005F000007C0000
002F300005F000007C0000
001F400006F100008C0000
000E700009F50000CA0000
0008E5126FCD4128F30000
00008FFFE71AFFFE500000
0000013300001320000000
000000E800000000000000
0000003100000000000000
ENDCHAR
STARTCHAR uni0935
ENCODING 2357
SWIDTH 484 0
DWIDTH 14 0
BBX 15 19 -1 -1
BITMAP
5FFFFFFFFFFFFFE0
14444444448F4430
00000000005F0000
00000000005F0000
00006DFF905F0000
0007F843105F0000
000E8000005F0000
003F3000005F0000
003F2000005F0000
004F2000005F0000
004F2000005F0000
003F3000006F0000
001F600000AF0000
0009E51027FF0000
00019FFFFD7F0000
00000133205F0000
00000000005F0000
00000000005F0000
0000000000130000
ENDCHAR
STARTCHAR uni0936
ENCODING 2358
SWIDTH 614 0
DWIDTH 17 0
BBX 17 19 1 -1
BITMAP
006CEDA200009FFF80
06F745CC0000BB4420
0B90002F3000B90000
0D70000F5000B90000
0E60000F6000B90000
0630000F6000B90000
0000000F5000B90000
0000003F3000B90000
000013CD0000B90000
BFFFFFB20000B90000
9F5331000000B90000
0DB000000000B90000
03F500000000B90000
009E10000000B90000
001DA0000000B90000
0004F5000000B90000
00009D100000B90000
00001D900000B90000
000002200000220000
ENDCHAR
STARTCHAR uni0937
ENCODING 2359
SWIDTH 505 0
DWIDTH 14 0
BBX 16 19 -1 -1
BITMAP
5FFFFFFFFFFFFFF8
144CD444444CB442
000BF900000B9000
000BAC70000B9000
000BA2E4000B9000
000BA04E300B9000
000BA006D10B9000
000BA0008B0B9000
000BA0000B9B9000
000AA00001DF9000
0008D000003F9000
0002EA2113BF9000
00004DFFFF9B9000
00000023310B9000
00000000000B9000
00000000000B9000
00000000000B9000
00000000000B9000
0000000000022000
ENDCHAR
STARTCHAR uni0938
ENCODING 2360
SWIDTH 575 0
DWIDTH 16 0
BBX 18 19 -1 -1
BITMAP
5FFFFFFFFFFFFFFFF7
144444DA44444DA441
000000C900000C8000
000000C900000C8000
000000C900000C8000
000000C900000C8000
000000C800000C8000
000001E600000C8000
00002AE200000D8000
01FFFFFFFFFFFF8000
00CD333333333D8000
003F500000000C8000
0009D00000000C8000
0001E70000000C8000
00007E2000000C8000
00000DA000000C8000
000005F300000C8000
000000BC00000C8000
000000130000021000
ENDCHAR
STARTCHAR uni0939
ENCODING 2361
SWIDTH 481 0
DWIDTH 13 0
BBX 15 20 -1 -2
BITMAP
5FFFFFFFFFFFFFC0
14444444448F4430
00000000006F0000
00000000006F0000
00006DFFFFFE0000
0004F84333320000
000AB00000000000
000B900000000000
000AA00000000000
0004F51000000000
00007FFFFEB30000
0002EA4334BE1000
000AC000001F5000
000D8000000D6000
000E600000095000
000D700000000000
000BB00000000000
0004F82100000000
00005EFFFFFF1000
0000002333330000
ENDCHAR
STARTCHAR uni093C
ENCODING 2364
SWIDTH 0 0
DWIDTH 0 0
BBX 2 2 -5 -3
BITMAP
7F
13
ENDCHAR
STARTCHAR uni093D
ENCODING 2365
SWIDTH 529 0
DWIDTH 15 0
BBX 11 19 2 -1
BITMAP
006CFFFFF300
02FA54443000
06E000000000
08D000000000
06E000000000
03F700000000
00BF70000000
001BFB300000
00006EF91000
0000018FD300
00000003DD00
000000003F40
000000000F60
000000000F60
360000001F50
4F6000003F30
06F92113CC00
003CFFFFC300
000023310000
ENDCHAR
STARTCHAR uni093E
ENCODING 2366
SWIDTH 231 0
DWIDTH 6 0
BBX 8 19 -1 -1
BITMAP
5FFFFFFD
1449E443
0006E000
0006E000
0006E000
0006E000
0006E000
0006E000
0006E000
0006E000
0006E000
0006E000
0006E000
0006E000
0006E000
0006E000
0006E000
0006E000
00013000
ENDCHAR
STARTCHAR uni093F
ENCODING 2367
SWIDTH 231 0
DWIDTH 6 0
BBX 19 26 -1 -1
BITMAP
000029DFFFFFFFFDA200
0000CD6444444445CD10
0004F200000000001F50
0006E000000000000D70
0006E000000000000C80
0006E000000000000210
0007E000000000000000
5FFFFFFD000000000000
1449E443000000000000
0006E000000000000000
0006E000000000000000
0006E000000000000000
0006E000000000000000
0006E000000000000000
0006E000000000000000
0006E000000000000000
0006E000000000000000
0006E000000000000000
0006E000000000000000
0006E000000000000000
0006E000000000000000
0006E000000000000000
0006E000000000000000
0006E000000000000000
0006E000000000000000
00013000000000000000
ENDCHAR
STARTCHAR uni0940
ENCODING 2368
SWIDTH 231 0
DWIDTH 6 0
BBX 11 26 -4 -1
BITMAP
05CEEC500000
5F8449F50000
C90000AB0000
E600007E0000
E600006E0000
2100006E0000
0000007E0000
0005FFFFFFD0
0001449E4430
0000006E0000
0000006E0000
0000006E0000
0000006E0000
0000006E0000
0000006E0000
0000006E0000
0000006E0000
0000006E0000
0000006E0000
0000006E0000
0000006E0000
0000006E0000
0000006E0000
0000006E0000
0000006E0000
000000130000
ENDCHAR
STARTCHAR uni0941
ENCODING 2369
SWIDTH 0 0
DWIDTH 0 0
BBX 11 7 -10 -7
BITMAP
000000DFE910
330000235E70
9C00000008B0
1E60000007C0
06E2000009B0
00AE74447E50
0006CFFFD700
ENDCHAR
STARTCHAR uni0942
ENCODING 2370
SWIDTH 0 0
DWIDTH 0 0
BBX 11 7 -8 -7
BITMAP
03BFFFD60000
0CB4347E9000
2F200003F500
4F1000008D00
3F2000001F40
0DA4410009B0
03CEF5000240
ENDCHAR
STARTCHAR uni0943
ENCODING 2371
SWIDTH 0 0
DWIDTH 0 0
BBX 9 7 -8 -7
BITMAP
06DFF60000
4F84310000
8C00000000
9B00000000
7D00000680
2F9445BE50
04CEFEA200
ENDCHAR
STARTCHAR uni0945
ENCODING 2373
SWIDTH 0 0
DWIDTH 0 0
BBX 10 5 -8 19
BITMAP
59000001C2
6D000003F1
2F71012BC0
06EFFFFD30
0002332000
ENDCHAR
STARTCHAR uni0946
ENCODING 2374
SWIDTH 0 0
DWIDTH 0 0
BBX 8 9 -10 16
BITMAP
C7000000
BA000000
5F600000
06EC5000
0019FC20
00002BE1
000001F6
000006FE
00000143
ENDCHAR
STARTCHAR uni0947
ENCODING 2375
SWIDTH 0 0
DWIDTH 0 0
BBX 7 9 -9 16
BITMAP
7E200000
1DB00000
04F60000
00AE2000
001EB000
0005F500
00009E20
00001CE0
00000130
ENDCHAR
STARTCHAR uni0948
ENCODING 2376
SWIDTH 0 0
DWIDTH 0 0
BBX 7 9 -9 16
BITMAP
AC000D60
2F700D60
08F20D60
00DB0C60
003F6B60
0008EA60
0000CE70
00002EE0
00000230
ENDCHAR
STARTCHAR uni0949
ENCODING 2377
SWIDTH 231 0
DWIDTH 6 0
BBX 10 25 -2 -1
BITMAP
1B20000086
0F400000C7
0BB20016F3
02CFFFFF70
0001332000
0000000000
05FFFFFFD0
01449E4430
00006E0000
00006E0000
00006E0000
00006E0000
00006E0000
00006E0000
00006E0000
00006E0000
00006E0000
00006E0000
00006E0000
00006E0000
00006E0000
00006E0000
00006E0000
00006E0000
0000130000
ENDCHAR
STARTCHAR uni094A
ENCODING 2378
SWIDTH 231 0
DWIDTH 6 0
BBX 11 26 -4 -1
BITMAP
5E0000000000
4F3000000000
0DB200000000
02CF81000000
0005DE600000
000007F80000
0000008D0000
0005FFFFFFD0
0001449E4430
0000006E0000
0000006E0000
0000006E0000
0000006E0000
0000006E0000
0000006E0000
0000006E0000
0000006E0000
0000006E0000
0000006E0000
0000006E0000
0000006E0000
0000006E0000
0000006E0000
0000006E0000
0000006E0000
000000130000
ENDCHAR
STARTCHAR uni094B
ENCODING 2379
SWIDTH 231 0
DWIDTH 6 0
BBX 10 26 -3 -1
BITMAP
1E80000000
06F3000000
00BD000000
001E800000
0005F30000
00008C0000
00000B8000
005FFFFFFD
001449E443
000006E000
000006E000
000006E000
000006E000
000006E000
000006E000
000006E000
000006E000
000006E000
000006E000
000006E000
000006E000
000006E000
000006E000
000006E000
000006E000
0000013000
ENDCHAR
STARTCHAR uni094C
ENCODING 2380
SWIDTH 231 0
DWIDTH 6 0
BBX 10 26 -3 -1
BITMAP
3F4006D000
08D106E000
00D906E000
003F35E000
0007D4E000
0000A9E000
00000BE000
005FFFFFFD
001449E443
000006E000
000006E000
000006E000
000006E000
000006E000
000006E000
000006E000
000006E000
000006E000
000006E000
000006E000
000006E000
000006E000
000006E000
000006E000
000006E000
0000013000
ENDCHAR
STARTCHAR uni094D
ENCODING 2381
SWIDTH 0 0
DWIDTH 0 0
BBX 4 5 -4 -6
BITMAP
6300
7E10
0CA0
03F5
008E
ENDCHAR
STARTCHAR uni0950
ENCODING 2384
SWIDTH 847 0
DWIDTH 24 0
BBX 21 23 1 0
BITMAP
0000000000000BB0000000
0000000000000220000000
0000000000000000000000
0000000000000000000610
000000000000000002AE20
004FFFE910000AFFFFC300
0013446DC0000244320000
00000003F5000000000000
00000000D8000000000000
00000000C9000000000000
00000000D8000BFFFEA100
00000001F600023336DC00
0000013BD1000000003F40
0007FFFE20000000000E60
0001336DC1000000000D70
00000002FFFFFD10000D70
12000000DA335F30000D70
7E000000C9002F30000D70
6E000000C8002F30000D70
4F300001F6000F50000F50
0CD4113CE1000BC3129E10
01BFFFFC300002CFFFE500
0001332000000001320000
ENDCHAR
STARTCHAR uni0951
ENCODING 2385
SWIDTH 0 0
DWIDTH 0 0
BBX 2 5 -4 20
BITMAP
D6
E6
E6
E6
D6
ENDCHAR
STARTCHAR uni0952
ENCODING 2386
SWIDTH 0 0
DWIDTH 0 0
BBX 10 2 -12 -4
BITMAP
9FFFFFFFF7
2333333331
ENDCHAR
STARTCHAR uni0953
ENCODING 2387
SWIDTH 0 0
DWIDTH 0 0
BBX 6 6 -8 19
BITMAP
1E6000
07E200
00CA00
003F50
0008D1
000172
ENDCHAR
STARTCHAR uni0954
ENCODING 2388
SWIDTH 0 0
DWIDTH 0 0
BBX 5 6 -4 19
BITMAP
001E60
00AD00
04F400
1D9000
8E1000
630000
ENDCHAR
STARTCHAR uni0915093C
ENCODING 2392
SWIDTH 725 0
DWIDTH 20 0
BBX 22 20 -1 -2
BITMAP
5FFFFFFFFFFFFFFFFFFFFA
1444444444AD4444444442
00000000008C0000000000
00000000008C0000000000
00007DFF608C5DFFE91000
0008F843108ED6336DC000
001F7000008F300002F500
004F2000008D000000D800
004F1000008C000000B900
004F1000008C000000B900
004F1000008C000000B900
004F2000008C000000C800
002F500000CC000001E600
000AE51029FC00013BE100
0001AFFFFB9C01FFFC3000
00000133208C0033200000
00000000008C0000000000
00000000008C0000000000
00000E8000120000000000
0000031000000000000000
ENDCHAR
STARTCHAR uni0916093C
ENCODING 2393
SWIDTH 696 0
DWIDTH 19 0
BBX 21 20 -1 -2
BITMAP
5FFFFFFFFFFFFFFFFFFFD0
1444446F644444448E4430
0000003F300000006E0000
0000003F300000006E0000
0000003F300000006E0000
0000003F3006DF806E0000
0000003F205F84106E0000
0000006F00C900006E0000
000014DA00F500006E0000
00FFFFB101F400006E0000
00CD310000F500007E0000
003F700000D80000AE0000
0007E200007E6127FE0000
0000CC000009FFFC7E0000
00002F70000013206E0000
000007F2000000006E0000
000000CC000000006E0000
0000002E700000006E0000
00BB000220000000130000
0022000000000000000000
ENDCHAR
STARTCHAR uni0917093C
ENCODING 2394
SWIDTH 494 0
DWIDTH 14 0
BBX 16 20 -1 -2
BITMAP
5FFFFFFFFFFFFFF3
14447F54445F7430
00004F10001F4000
00004F10001F4000
00004F10001F4000
00004F10001F4000
00004F10001F4000
00005F10001F4000
00007E00001F4000
0015E900001F4000
07FF9100001F4000
01310000001F4000
00000000001F4000
00000000001F4000
00000000001F4000
00000000001F4000
00000000001F4000
00000000001F4000
0004F30000051000
0000300000000000
ENDCHAR
STARTCHAR uni091C093C
ENCODING 2395
SWIDTH 547 0
DWIDTH 15 0
BBX 17 20 -1 -2
BITMAP
5FFFFFFFFFFFFFFFA0
144444444444BC4420
0000000000009B0000
0000000000009B0000
0000000000009B0000
000000000000AB0000
000FFFFFFFFFFB0000
000334AE4333BB0000
0000000D80009B0000
00000009B0009B0000
00000008C0009B0000
00000008C0009B0000
00000009B0009B0000
0000000CA0009B0000
0000028F40009B0000
02FFFFE600009B0000
0033320000009B0000
0000000000009B0000
0009D0000000000000
000220000000000000
ENDCHAR
STARTCHAR uni0921093C
ENCODING 2396
SWIDTH 475 0
DWIDTH 13 0
BBX 15 22 -1 -4
BITMAP
5FFFFFFFFFFFFFA0
1444444444BC4420
00000000009B0000
00000000009B0000
00000000009B0000
00019EFFFFFA0000
0009E63333310000
000D700000000000
000D700000000000
000AC31000000000
0002BFFFFEC40000
0000013334AF2000
00000000000E7000
00031000000C8000
000F4000000C8000
000E6000000E7000
0009D310029F3000
0001AFFFFFE50000
0000013332000000
0000000000000000
0000000E80000000
0000000310000000
ENDCHAR
STARTCHAR uni0922093C
ENCODING 2397
SWIDTH 485 0
DWIDTH 14 0
BBX 15 21 -1 -3
BITMAP
5FFFFFFFFFFFFFF0
1444444444AD4430
00000000008C0000
00000000008C0000
00000000009C0000
00005CFFFFFB0000
0004F94333310000
000CA00000000000
000F500000000000
001F40005DFC3000
001F4001E84AD000
001F4004F002F200
001F4005E001F300
000F50015001F300
000C90000004F100
0006F720013CB000
00007EFFFFFC2000
0000003333200000
0000000000000000
0000000BB0000000
0000000220000000
ENDCHAR
STARTCHAR uni092B093C
ENCODING 2398
SWIDTH 739 0
DWIDTH 21 0
BBX 23 20 -1 -2
BITMAP
5FFFFFFFFFFFFFFFFFFFFF10
144CB444446F644444444300
000BA000002F300000000000
000BA000002F300000000000
000BA000002F5BFFFC400000
000BA000002FE8435AF30000
000BA000002F800000CB0000
000BA000002F4000007E0000
000AA000003F3000006E0000
0008D000006F3000006E0000
0003F92115EF3000006E0000
00004DFFFE6F3000007E0000
00000023202F300000AC0000
00000000002F300028F50000
00000000002F30BFFE600000
00000000002F302320000000
00000000002F300000000000
00000000002F300000000000
00003F400005100000000000
000003100000000000000000
ENDCHAR
STARTCHAR uni092F093C
ENCODING 2399
SWIDTH 564 0
DWIDTH 16 0
BBX 18 20 -1 -2
BITMAP
5FFFFFFFFFFFFFFFF2
144445CB44445F6430
0000002F30002F3000
0000000E60002F3000
0000000E60002F3000
0000002F40002F3000
000012AE10002F3000
001FFFD300002F3000
001F620000002F3000
001F400000002F3000
001F400000002F3000
001F500000004F3000
000CA00000009F3000
0004F9310128EF3000
00005DFFFFFD5F3000
0000002333202F3000
0000000000002F3000
0000000000002F3000
0001F6000000030000
000031000000000000
ENDCHAR
STARTCHAR uni0960
ENCODING 2400
SWIDTH 753 0
DWIDTH 21 0
BBX 23 22 -1 -4
BITMAP
5FFFFFFFFFFFFFFFFFFFFF70
14444444445F644444444410
00000000002F400000000000
00000000002F400000000000
00000000002F400000000000
00000000002F400000000000
00007DFFFC5F40002BFE0000
000AE74347EF4004EC7E0000
001F6000006F408F905E0000
003F3000003F5BE5005E0000
003F2000002FFC219DFE0000
00171000005FA10BD5320000
0000000008FF400E60000000
00000002CE6F400F50000000
0000004EC22F400CC3100000
000007F8002F4002EFFF5000
0001AE50002F4009D5331000
000BC200001E300F60000000
000000000000000F50000000
000000000000000CC3100000
0000000000000003DFFFA000
000000000000000001332000
ENDCHAR
STARTCHAR uni0961
ENCODING 2401
SWIDTH 676 0
DWIDTH 19 0
BBX 21 25 -1 -7
BITMAP
5FFFFFFFFFFFFFFFFFFF40
1444444444444444F84310
0000000000000000F60000
0000000000000000F60000
0000000000000000F60000
00005CFEB219EFD5F60000
0005F944AD9D546DF60000
000CA0000CF20005F60000
000F600008E00001F60000
000F500007C00000F60000
000F500007C00000F60000
000F500007C00000F60000
000F500001200000F60000
000F6000000007DFF50000
000C900000005F84300000
0006F72000008C00000000
00008EFFB0009C00000000
0000003320005F51000000
0000000000000AFFFB0000
0000000000003F84320000
0000000000008C00000000
0000000000009B00000000
0000000000006F51000000
00000000000009FFFF1000
0000000000000012330000
ENDCHAR
STARTCHAR uni0964
ENCODING 2404
SWIDTH 286 0
DWIDTH 8 0
BBX 2 18 4 0
BITMAP
F5
F5
F5
F5
F5
F5
F5
F5
F5
F5
F5
F5
F5
F5
F5
F5
F5
E5
ENDCHAR
STARTCHAR uni0965
ENCODING 2405
SWIDTH 518 0
DWIDTH 15 0
BBX 8 18 4 0
BITMAP
F500008C
F500008D
F500008D
F500008D
F500008D
F500008D
F500008D
F500008D
F500008D
F500008D
F500008D
F500008D
F500008D
F500008D
F500008D
F500008D
F500008D
E500007C
ENDCHAR
STARTCHAR uni0966
ENCODING 2406
SWIDTH 519 0
DWIDTH 15 0
BBX 12 19 1 -1
BITMAP
005CFFFFEA10
05F943336DC0
0DA0000002F5
0F60000000D8
1F40000000C9
1F40000000C9
1F40000000C9
1F40000000C9
1F40000000C9
1F40000000C9
1F40000000C9
1F40000000C9
1F40000000C9
1F40000000C9
1F50000000D8
0D90000001F6
07F620013BE1
008EFFFFFC30
000033332000
ENDCHAR
STARTCHAR uni0967
ENCODING 2407
SWIDTH 288 0
DWIDTH 8 0
BBX 6 19 0 0
BITMAP
000056
003CFD
18FCAD
9D508D
30008D
00008D
00008D
00008D
00008D
00008D
00008D
00008D
00008D
00008D
00008D
00008D
00008D
00008D
00007D
ENDCHAR
STARTCHAR uni0968
ENCODING 2408
SWIDTH 453 0
DWIDTH 13 0
BBX 11 19 1 -1
BITMAP
02AEFFFE9100
1DD53336DC00
6F2000003F50
8C0000000E70
9C0000000D80
460000000D70
000000003F40
00000001CC00
0000003DC200
000006FA1000
00009F700000
002CE4000000
03EB10000000
1EA000000000
5F2000000000
7F0000000000
7F0000000000
7FFFFFFFFF90
133333333320
ENDCHAR
STARTCHAR uni0969
ENCODING 2409
SWIDTH 489 0
DWIDTH 14 0
BBX 11 19 1 -1
BITMAP
019DFFFEB200
0CD63335BE20
5F2000000D80
7E0000000AB0
7D00000009B0
000000000AB0
000000000C80
000000129E20
00004FFFD200
00001335CC10
000000001E70
000000000AA0
4700000009B0
7D00000009B0
7E0000000AB0
4F2000000D80
0DC31012AE20
02CFFFFFD400
000233320000
ENDCHAR
STARTCHAR uni096A
ENCODING 2410
SWIDTH 453 0
DWIDTH 13 0
BBX 13 20 0 -1
BITMAP
00000000AC3000
00000007EF5000
0000001E6F5000
0000009C0F5000
000003F40F5000
00000BA00F5000
00005F200F5000
0000D8000F5000
0007E1000F5000
001E60000F5000
009D00000F5000
03F500000F5000
0BB000000F5000
4F3000000F5000
8FFFFFFFFFFFB0
133333333F7320
000000000F5000
000000000F5000
000000000F5000
00000000021000
ENDCHAR
STARTCHAR uni096B
ENCODING 2411
SWIDTH 480 0
DWIDTH 13 0
BBX 11 19 1 -1
BITMAP
1FFFFFFFFF90
1F7333333320
1F4000000000
1F4000000000
1F4000000000
1F4000000000
1F4000000000
1F7CFFFFC500
1FE633349F50
094000000BC0
0000000007E0
0000000006F0
0100000006F0
1F40000006F0
1F50000006F0
0E8000000AC0
08F610027F60
008FFFFFE700
000133330000
ENDCHAR
STARTCHAR uni096C
ENCODING 2412
SWIDTH 495 0
DWIDTH 14 0
BBX 12 19 1 -1
BITMAP
005CFFFFFF80
05F943333310
0DA000000000
0F5000000000
1F4000000000
1F4000000000
1F4000000000
1F59EFFFE800
1FC943347EA0
1FA0000005F2
1F60000001F5
1F40000000F6
1F40000000F6
1F40000000F6
1F50000000F6
0D90000004F3
07F720014DC0
008EFFFFFB10
000033331000
ENDCHAR
STARTCHAR uni096D
ENCODING 2413
SWIDTH 380 0
DWIDTH 11 0
BBX 11 19 0 0
BITMAP
8FFFFFFFFF10
13333333AE00
00000000D900
00000004F400
0000000AD000
0000001E8000
0000006F2000
000000BC0000
000002F60000
000007F10000
00000DA00000
00004F400000
00009E000000
0001E8000000
0005F3000000
000BC0000000
002F60000000
007F10000000
002200000000
ENDCHAR
STARTCHAR uni096E
ENCODING 2414
SWIDTH 523 0
DWIDTH 15 0
BBX 12 19 1 -1
BITMAP
005CFFFFEA20
06F843335BE2
0D90000001E8
1F50000000BA
1F40000000AA
1F50000000AA
0D80000000D8
06F6100129E2
007FFFFFFE30
04F943335CC1
0CA0000001E6
0F60000000B9
1F40000000AA
1F40000000AA
0F50000000BA
0D90000000E7
06F620012AE2
007EFFFFFD40
000033332000
ENDCHAR
STARTCHAR uni096F
ENCODING 2415
SWIDTH 493 0
DWIDTH 14 0
BBX 11 19 1 -1
BITMAP
01AEFFFFB300
0CD63335BE20
5F2000000D90
8D00000009C0
9C00000008D0
9C00000008D0
9C00000008D0
8C00000008D0
6F10000008D0
1EC3100008D0
03CFFFFFFFD0
0002333339D0
0000000008D0
0000000008D0
0000000008C0
000000000BA0
000000028F40
0BFFFFFFE500
023333320000
ENDCHAR
STARTCHAR uni0970
ENCODING 2416
SWIDTH 391 0
DWIDTH 11 0
BBX 9 10 1 3
BITMAP
04CFFFB300
3FA435BE20
AC00000D90
D8000009B0
D7000008C0
D8000009C0
BB00000C90
4F82029F30
06EFFFE500
0002320000
ENDCHAR
STARTCHAR uni0972
ENCODING 2418
SWIDTH 598 0
DWIDTH 17 0
BBX 17 25 1 -1
BITMAP
000000009500000590
00000000B8000008B0
000000007D31014E70
000000001AFFFFFA10
000000000013331000
000000000000000000
0FFFEB300001EFFF20
03445CE20003F64300
000001D90003F30000
0000009C0003F30000
0000008D0003F30000
0000008C0003F30000
000000CA0003F30000
000029F30003F30000
04FFFF400003F30000
00335BE20003F30000
000000CFFFFFF30000
0000009D3335F30000
0000008D0003F30000
0000008C0003F30000
000000CA0003F30000
000029F30003F30000
FFFFFE500003F30000
333320000003F30000
000000000000300000
ENDCHAR
STARTCHAR Wgrave
ENCODING 7808
SWIDTH 795 0
DWIDTH 22 0
BBX 22 23 0 0
BITMAP
00000001EC000000000000
000000003F700000000000
0000000005E20000000000
0000000000530000000000
0000000000000000000000
1F70000000DF10000004F4
0DB0000002FF50000008F1
0AE0000006EA9000000BD0
06F200000AA6D000000EA0
03F500000E62F200002F60
00E800003F20D600005F30
00BB00007D009A00008E00
008E0000B9005E0000BB00
005F2000E5002F3000E800
001F6004F1000D7002F500
000D9008C00009B005F100
000AC00C800005E008D000
0006F01F400001F40CA000
0003F35F000000C80E6000
0000E68B0000008C3F3000
0000B9C70000004F7E0000
00008EF30000000FEB0000
00004FE00000000BF80000
ENDCHAR
STARTCHAR wgrave
ENCODING 7809
SWIDTH 682 0
DWIDTH 19 0
BBX 19 19 0 0
BITMAP
0000008F500000000000
0000000AD10000000000
00000000B90000000000
00000000150000000000
00000000000000000000
5F2000004F6000001E70
1F6000008FA000004F30
0CA00000CBE000009D00
07E00001F3F30000D900
03F30006D0C70002F400
00D8000A908B0006E100
009C000E504F000AB000
004F103F100E400E6000
001F507C000A804F2000
000B90B80006C08C0000
0006D0F40002F1C80000
0002F6E00000D6F40000
0000CEB000009EE00000
00008F6000005FA00000
ENDCHAR
STARTCHAR Wacute
ENCODING 7810
SWIDTH 795 0
DWIDTH 22 0
BBX 22 23 0 0
BITMAP
0000000000008F40000000
000000000003F600000000
00000000000C8000000000
0000000000260000000000
0000000000000000000000
1F70000000DF10000004F4
0DB0000002FF50000008F1
0AE0000006EA9000000BD0
06F200000AA6D000000EA0
03F500000E62F200002F60
00E800003F20D600005F30
00BB00007D009A00008E00
008E0000B9005E0000BB00
005F2000E5002F3000E800
001F6004F1000D7002F500
000D9008C00009B005F100
000AC00C800005E008D000
0006F01F400001F40CA000
0003F35F000000C80E6000
0000E68B0000008C3F3000
0000B9C70000004F7E0000
00008EF30000000FEB0000
00004FE00000000BF80000
ENDCHAR
STARTCHAR wacute
ENCODING 7811
SWIDTH 682 0
DWIDTH 19 0
BBX 19 19 0 0
BITMAP
00000000003F90000000
0000000000CB00000000
0000000007C100000000
00000000041000000000
00000000000000000000
5F2000004F6000001E70
1F6000008FA000004F30
0CA00000CBE000009D00
07E00001F3F30000D900
03F30006D0C70002F400
00D8000A908B0006E100
009C000E504F000AB000
004F103F100E400E6000
001F507C000A804F2000
000B90B80006C08C0000
0006D0F40002F1C80000
0002F6E00000D6F40000
0000CEB000009EE00000
00008F6000005FA00000
ENDCHAR
STARTCHAR Wdieresis
ENCODING 7812
SWIDTH 795 0
DWIDTH 22 0
BBX 22 23 0 0
BITMAP
00000000D7004F10000000
00000000D8004F10000000
00000000D8004F10000000
00000000D7004F10000000
0000000000000000000000
1F70000000DF10000004F4
0DB0000002FF50000008F1
0AE0000006EA9000000BD0
06F200000AA6D000000EA0
03F500000E62F200002F60
00E800003F20D600005F30
00BB00007D009A00008E00
008E0000B9005E0000BB00
005F2000E5002F3000E800
001F6004F1000D7002F500
000D9008C00009B005F100
000AC00C800005E008D000
0006F01F400001F40CA000
0003F35F000000C80E6000
0000E68B0000008C3F3000
0000B9C70000004F7E0000
00008EF30000000FEB0000
00004FE00000000BF80000
ENDCHAR
STARTCHAR wdieresis
ENCODING 7813
SWIDTH 682 0
DWIDTH 19 0
BBX 19 19 0 0
BITMAP
0000006E000D70000000
0000006E000D80000000
0000006E000D80000000
0000006E000C70000000
00000000000000000000
5F2000004F6000001E70
1F6000008FA000004F30
0CA00000CBE000009D00
07E00001F3F30000D900
03F30006D0C70002F400
00D8000A908B0006E100
009C000E504F000AB000
004F103F100E400E6000
001F507C000A804F2000
000B90B80006C08C0000
0006D0F40002F1C80000
0002F6E00000D6F40000
0000CEB000009EE00000
00008F6000005FA00000
ENDCHAR
STARTCHAR uni1E9E
ENCODING 7838
SWIDTH 542 0
DWIDTH 15 0
BBX 12 18 2 0
BITMAP
02AEFFFFFFF1
1ED644444BE0
8E1000001E70
BB0000008E10
BA000001E700
BA000008E100
BA00001E6000
BA00007E1000
BA0000BFFC40
BA0000235CE1
BA00000002F6
BA00000000D8
BA00000000C9
BA00000000C9
BA00000000D8
BA00000002F5
BA0004446DD0
BA002FFFE910
ENDCHAR
STARTCHAR Ygrave
ENCODING 7922
SWIDTH 493 0
DWIDTH 14 0
BBX 13 23 0 0
BITMAP
0001EC00000000
00003E70000000
000005E2000000
00000053000000
00000000000000
2F600000000AE0
0AD00000002F70
03F60000009E10
00AD000002F700
003F600009E100
000AD0002F7000
0003F5009E1000
0000AD01E70000
00003F58E10000
00000ADE700000
000003FE100000
000000C9000000
000000C9000000
000000C9000000
000000C9000000
000000C9000000
000000C9000000
000000C9000000
ENDCHAR
STARTCHAR ygrave
ENCODING 7923
SWIDTH 459 0
DWIDTH 13 0
BBX 12 23 0 -4
BITMAP
0002EB000000
00003E700000
000005E20000
000000320000
000000000000
2F500000006E
0CA0000000CA
06F1000002F4
01F6000008E0
00BB00000D90
005F20003F40
001E70009D00
0009C000E800
0004F204F300
0000E809D000
00008D1E7000
00003F8F2000
00000DFC0000
000002E60000
000006F10000
00001D900000
0246CD100000
08FEA2000000
ENDCHAR
STARTCHAR uni200B
ENCODING 8203
SWIDTH 0 0
DWIDTH 0 0
BBX 1 1 0 0
BITMAP
00
ENDCHAR
STARTCHAR uni200C
ENCODING 8204
SWIDTH 0 0
DWIDTH 0 0
BBX 2 29 -1 -6
BITMAP
55
AA
AA
AA
AA
AA
AA
AA
AA
AA
AA
AA
AA
AA
AA
AA
AA
AA
AA
AA
AA
AA
AA
AA
AA
AA
AA
AA
AA
ENDCHAR
STARTCHAR uni200D
ENCODING 8205
SWIDTH 0 0
DWIDTH 0 0
BBX 8 29 -4 -6
BITMAP
17000061
4F9008F4
04E98F40
004FF400
009FF900
09ECCEA0
4E3AA3E5
010AA010
000AA000
000AA000
000AA000
000AA000
000AA000
000AA000
000AA000
000AA000
000AA000
000AA000
000AA000
000AA000
000AA000
000AA000
000AA000
000AA000
000AA000
000AA000
000AA000
000AA000
000AA000
ENDCHAR
STARTCHAR endash
ENCODING 8211
SWIDTH 408 0
DWIDTH 11 0
BBX 10 2 1 7
BITMAP
DFFFFFFFF4
2333333331
ENDCHAR
STARTCHAR emdash
ENCODING 8212
SWIDTH 537 0
DWIDTH 15 0
BBX 13 2 1 7
BITMAP
DFFFFFFFFFFFE0
23333333333330
ENDCHAR
STARTCHAR quoteleft
ENCODING 8216
SWIDTH 179 0
DWIDTH 5 0
BBX 3 7 1 11
BITMAP
0220
0740
0B40
1F40
3F40
4F40
3F30
ENDCHAR
STARTCHAR quoteright
ENCODING 8217
SWIDTH 179 0
DWIDTH 5 0
BBX 3 7 1 11
BITMAP
3F30
4F40
4F30
4F10
4C00
4700
2200
ENDCHAR
STARTCHAR quotesinglbase
ENCODING 8218
SWIDTH 187 0
DWIDTH 5 0
BBX 3 7 1 -3
BITMAP
2F50
2F50
2F50
2F30
2E00
2A00
2600
ENDCHAR
STARTCHAR quotedblleft
ENCODING 8220
SWIDTH 329 0
DWIDTH 9 0
BBX 7 7 1 11
BITMAP
02200040
07400470
0B400970
1F400C70
3F400F70
4F400F70
3F300F60
ENDCHAR
STARTCHAR quotedblright
ENCODING 8221
SWIDTH 329 0
DWIDTH 9 0
BBX 7 7 1 11
BITMAP
3F300F60
4F400F70
4F300F60
4F100F40
4C000E00
47000A00
22000400
ENDCHAR
STARTCHAR quotedblbase
ENCODING 8222
SWIDTH 337 0
DWIDTH 9 0
BBX 7 7 1 -3
BITMAP
2F500D80
2F500E80
2F500E80
2F200E50
2D000E20
29000C00
13000800
ENDCHAR
STARTCHAR dagger
ENCODING 8224
SWIDTH 427 0
DWIDTH 12 0
BBX 10 18 1 0
BITMAP
0000B90000
0000A90000
0000A90000
0000980000
0000970000
AFFFFFFFFA
1222A92221
0000A90000
0000BA0000
0000BA0000
0000B90000
0000A90000
0000A90000
0000A80000
0000980000
0000970000
0000870000
0000760000
ENDCHAR
STARTCHAR daggerdbl
ENCODING 8225
SWIDTH 427 0
DWIDTH 12 0
BBX 10 18 1 0
BITMAP
0000B90000
0000A90000
0000A90000
0000980000
0000970000
AFFFFFFFFA
1222A92221
0000A90000
0000BA0000
0000BA0000
0000A90000
0000980000
BFFFFFFFFA
2333A93332
0000980000
0000A80000
0000A90000
0000B90000
ENDCHAR
STARTCHAR bullet
ENCODING 8226
SWIDTH 273 0
DWIDTH 8 0
BBX 4 5 2 6
BITMAP
5FE0
7FF1
7FF1
7FF1
5FE0
ENDCHAR
STARTCHAR ellipsis
ENCODING 8230
SWIDTH 591 0
DWIDTH 17 0
BBX 14 4 1 0
BITMAP
2F60007F1000DA
2F70008F1000DA
2F70008F1000DA
2F60007F1000DA
ENDCHAR
STARTCHAR perthousand
ENCODING 8240
SWIDTH 1027 0
DWIDTH 29 0
BBX 27 18 1 0
BITMAP
05CFFC400000C400000000000000
3F7448F20005D000000000000000
7B0000C6000B7000000000000000
990000A8003E1000000000000000
990000A800990000000000000000
8A0000B701E20000000000000000
4E4115F307B00000000000000000
08FFFF700D400000000000000000
001331005D000000000000000000
00000000C6000000000000000000
00000003E103BDEC60002ADEC700
0000000A801E6224E400D8224D60
0000002F205C00008903F00007A0
0000008A007B00007A04D00005C0
000000E4007B00007A04D00005C0
000006C0005D00009903F10007B0
00000C60002E9447E400DA546E60
00003D000004CEFD60003BEFD800
ENDCHAR
STARTCHAR guilsinglleft
ENCODING 8249
SWIDTH 290 0
DWIDTH 8 0
BBX 6 10 1 2
BITMAP
000054
0006E2
006E30
06E300
2E3000
1E7000
03E700
003E70
0002E3
000022
ENDCHAR
STARTCHAR guilsinglright
ENCODING 8250
SWIDTH 290 0
DWIDTH 8 0
BBX 6 10 1 2
BITMAP
270000
1D7000
02D800
002D80
0002E4
0005E2
005E40
05E400
2E4000
130000
ENDCHAR
STARTCHAR fraction
ENCODING 8260
SWIDTH 117 0
DWIDTH 3 0
BBX 15 18 -6 0
BITMAP
0000000000000B80
0000000000008C00
000000000004E200
00000000001E5000
0000000000B90000
0000000007D10000
000000003E300000
00000001D6000000
0000000AA0000000
0000007D10000000
000003E300000000
00001D7000000000
0000AB0000000000
0006E10000000000
002E400000000000
00C8000000000000
09B0000000000000
4D20000000000000
ENDCHAR
STARTCHAR Euro
ENCODING 8364
SWIDTH 523 0
DWIDTH 15 0
BBX 12 18 1 0
BITMAP
0004BEFFEA20
004FB5446CE1
00BC000001E7
00E8000000BA
00E7000000AB
00E700000011
00E700000000
EFFFFFFF3000
33E933330000
00E700000000
EFFFFFFF3000
33E933330000
00E700000000
00E7000000AB
00E8000000BB
00BC000001E8
004FA5446CE1
0004BEFFEA20
ENDCHAR
STARTCHAR uni20B9
ENCODING 8377
SWIDTH 414 0
DWIDTH 12 0
BBX 10 19 1 -1
BITMAP
EFFFFFFFFA
3444AD4442
00000D7000
00000B9000
EFFFFFFFFA
23333CA332
00000C9000
00001E6000
0012BE1000
EFFFD30000
AE42000000
1D90000000
04F5000000
008E100000
000CB00000
0003F70000
00006F3000
00000BC000
0000013000
ENDCHAR
STARTCHAR trademark
ENCODING 8482
SWIDTH 591 0
DWIDTH 17 0
BBX 14 8 1 12
BITMAP
03444302100012
2FFFFF0AB000AB
000D000AE302EB
000D000A7A097B
000D000A3B4C3B
000D000A33F43B
000D000A30203B
00090007200028
ENDCHAR
STARTCHAR uni2126
ENCODING 8486
SWIDTH 629 0
DWIDTH 18 0
BBX 16 19 1 -1
BITMAP
0007DFFFFFFB3000
008F8433335BE300
01F700000000CA00
04F2000000008D00
04F1000000007D00
04F1000000007D00
04F1000000007D00
04F1000000007D00
04F1000000007D00
04F1000000007D00
04F1000000007D00
04F1000000007D00
04F1000000007D00
04F1000000007D00
03F2000000008C00
00E600000000C900
005E51000028D200
DFFFFFB02FFFFFF7
2333332003333331
ENDCHAR
STARTCHAR partialdiff
ENCODING 8706
SWIDTH 481 0
DWIDTH 13 0
BBX 11 19 1 -1
BITMAP
007FEB610000
001458DD4000
00000007E300
000000008C00
000000001E30
000000000B70
007DFFFD79A0
08F84336DDB0
1F8000002EC0
4F3000000BC0
5F1000000AC0
5F1000000AC0
5F1000000AC0
5F1000000AC0
4F2000000BB0
1F6000001E90
0AE51012AF30
01AFFFFFD500
000133320000
ENDCHAR
STARTCHAR uni2206
ENCODING 8710
SWIDTH 594 0
DWIDTH 17 0
BBX 16 20 0 -1
BITMAP
0000000241000000
0000000CF7000000
0000003FCC000000
0000008D3F300000
000000D80D800000
000004F208E00000
000009C002F40000
00001E7000CA0000
00005F20007E1000
0000BB00002F5000
0001F600000BB000
0007F1000006F200
000CA0000001F700
003F50000000AC00
008E000000005F30
00D9000000001E80
04F40000000009D0
09E10000000005F4
1EFFFFFFFFFFFFF9
0333333333333332
ENDCHAR
STARTCHAR minus
ENCODING 8722
SWIDTH 523 0
DWIDTH 15 0
BBX 11 2 2 8
BITMAP
FFFFFFFFFFA0
333333333320
ENDCHAR
STARTCHAR approxequal
ENCODING 8776
SWIDTH 523 0
DWIDTH 15 0
BBX 12 7 1 5
BITMAP
0BEFFFFFFFF8
033333333310
000000000000
000000000000
07DFEB74128A
1E8458BFFFE5
010000002200
ENDCHAR
STARTCHAR notequal
ENCODING 8800
SWIDTH 523 0
DWIDTH 15 0
BBX 11 14 2 2
BITMAP
000000040000
0000006C0000
000000B70000
000001F30000
FFFFFFFFFFA0
33333C833320
00001F200000
00006C000000
0000B7000000
FFFFFFFFFFA0
3338C3333320
000B70000000
002F10000000
000200000000
ENDCHAR
STARTCHAR lessequal
ENCODING 8804
SWIDTH 523 0
DWIDTH 15 0
BBX 11 12 2 3
BITMAP
000000002660
0000037CFD60
0048DFC73000
9EEA61000000
FE7200000000
27CFD8400000
00016AEEA510
000000159EA0
000000000010
000000000000
FFFFFFFFFFA0
333333333320
ENDCHAR
STARTCHAR greaterequal
ENCODING 8805
SWIDTH 523 0
DWIDTH 15 0
BBX 12 12 1 3
BITMAP
095100000000
0AEEA6100000
00049DFB7200
00000037CFC5
0000000049FA
000015AEEA51
027BFD940000
1FC830000000
010000000000
000000000000
0FFFFFFFFFFA
033333333332
ENDCHAR
STARTCHAR uni25CC
ENCODING 9676
SWIDTH 701 0
DWIDTH 20 0
BBX 16 17 2 1
BITMAP
000000AE22B70000
001B90FF67FE0000
004FF17B13E95C30
001DB0000000CF90
0000000000007E40
4E80000000000000
9FD00000000002EA
3C600000000006FF
7B200000000002B8
EF70000000000000
9E300000000005E6
02C6000000000AFB
07FD0000000004C4
04E800000006E600
00005E609B1BFA00
0000AFB2FF54C400
00004C50CD100000
ENDCHAR
STARTCHAR commaaccent
ENCODING 63171
SWIDTH 0 0
DWIDTH 0 0
BBX 3 6 5 -7
BITMAP
6F10
6F10
6E00
6B00
6700
6200
ENDCHAR
STARTCHAR .notdef
ENCODING -1
SWIDTH 600 0
DWIDTH 17 0
BBX 11 18 3 -1
BITMAP
AFFFFFFFFF70
AC3333333E70
AC0000000E70
AC0000000E70
AC0000000E70
AC0000000E70
AC0000000E70
AC0000000E70
AC0000000E70
AC0000000E70
AC0000000E70
AC0000000E70
AC0000000E70
AC0000000E70
AC0000000E70
AC0000000E70
AFFFFFFFFF70
233333333310
ENDCHAR
STARTCHAR .null
ENCODING -1
SWIDTH 0 0
DWIDTH 0 0
BBX 1 1 0 0
BITMAP
00
ENDCHAR
STARTCHAR nonmarkingreturn
ENCODING -1
SWIDTH 333 0
DWIDTH 9 0
BBX 1 1 0 0
BITMAP
00
ENDCHAR
STARTCHAR uni0915094D
ENCODING -1
SWIDTH 519 0
DWIDTH 15 0
BBX 20 19 -1 -1
BITMAP
5FFFFFFFFFFFFFFFFFF2
1444444444AD44444430
00000000008C00000000
00000000008C00000000
00007DFF608C6DFFE910
0008F843108ED6336DB0
001F7000008F300002B0
004F2000008D00000000
004F1000008C00000000
004F1000008C00000000
004F1000008C00000000
004F2000008C00000000
002F500000CC00000000
000AE51029FC00000000
0001AFFFFB9C00000000
00000133208C00000000
00000000008C00000000
00000000008C00000000
00000000001200000000
ENDCHAR
STARTCHAR uni0916094D
ENCODING -1
SWIDTH 468 0
DWIDTH 13 0
BBX 18 19 -1 -1
BITMAP
5FFFFFFFFFFFFFFFF2
1444446F6444444430
0000003F3000000000
0000003F3000000000
0000003F3000000000
0000003F3006DF8000
0000003F205F841000
0000006F00C9000000
000014DA00F5000000
00FFFFB101F4000000
00CD310000F5000000
002F700000D8000021
0007E200007E6117E4
0000CC000009FFFD40
00002E700000132000
000007F20000000000
000000BC0000000000
0000002E7000000000
000000022000000000
ENDCHAR
STARTCHAR uni0917094D
ENCODING -1
SWIDTH 264 0
DWIDTH 7 0
BBX 9 12 -1 6
BITMAP
5FFFFFFFB0
14447F5420
00004F1000
00004F1000
00004F1000
00004F1000
00004F1000
00005F1000
00007E0000
0015E90000
07FF910000
0131000000
ENDCHAR
STARTCHAR uni0918094D
ENCODING -1
SWIDTH 321 0
DWIDTH 9 0
BBX 14 16 -1 2
BITMAP
5FFFFFFFFFFFF6
1448F744444441
000C9000000000
000F6000000000
000F6000000000
000D8000000000
0007E410000000
00009FFFB00000
0005E743200000
000D8000000000
000F6000000000
000F6000000000
000D8000000042
0008E6100028F4
00009FFFFFFD40
00000023332000
ENDCHAR
STARTCHAR uni0919094D
ENCODING -1
SWIDTH 505 0
DWIDTH 14 0
BBX 16 25 -1 -7
BITMAP
5FFFFFFFFFFFFFF8
1444444444BC4441
00000000009B0000
00000000009B0000
00000000009B0000
00018DFFFFFA0000
0009E63333310000
000D800000000000
000D700000003F30
000AD31000000300
0001BFFFFEC40000
0000013334AF2000
00000000000E7000
00020000000C8000
000F4000000C8000
000E6000000E7000
000AC310018F3000
0002BFFFFFE60000
0000013332000000
0000000420000000
00000009C0000000
00000001E8000000
000000005F300000
000000000AD00000
0000000001300000
ENDCHAR
STARTCHAR uni091A094D
ENCODING -1
SWIDTH 330 0
DWIDTH 9 0
BBX 14 16 -1 2
BITMAP
5FFFFFFFFFFFF8
14444444444442
00000000000000
00000000000000
00000000000000
00000000000000
06FFFFFFFF0000
01336F94330000
0000CA00000000
0000F600000000
0000F500000000
0000F500000000
0000D900000044
00007F720017F6
000008EFFFFD50
00000003332000
ENDCHAR
STARTCHAR uni091B094D
ENCODING -1
SWIDTH 581 0
DWIDTH 16 0
BBX 18 18 -1 0
BITMAP
5FFFFFFFFFFFFFFFF9
1446F8444444444442
000BB0000000000000
000D80000000000000
000D800000BFE91000
000D800000236DA000
000CA000000005F100
0006F610000002F300
00007FFF400001F300
0003F943000001F300
000AC000000001F300
000D8000000001F300
000D8000000001F300
000D8000000003F300
000AB000000006E000
0005F61000015E8000
00007EFFFFFFF90000
000000233333100000
ENDCHAR
STARTCHAR uni091C094D
ENCODING -1
SWIDTH 309 0
DWIDTH 9 0
BBX 13 17 -1 1
BITMAP
5FFFFFFFFFFF90
14444444444420
00000000000000
00000000000000
00000000000000
00000000000000
000FFFFFFFFF90
000334AE433310
0000000D800000
00000009B00000
00000008C00000
00000008C00000
00000009B00000
0000000CA00000
0000028F400000
02FFFFE6000000
00333200000000
ENDCHAR
STARTCHAR uni091D094D
ENCODING -1
SWIDTH 432 0
DWIDTH 12 0
BBX 16 19 -1 -1
BITMAP
5FFFFFFFFFFFFFFF
144444444AD44443
0000000008C00000
0000000008C00000
00019DFFFFC00000
0009E63333100000
000D700000000000
000E700000000000
000AD31000000000
0002BFFFFFFFFFFF
0000013347F63333
0000000000C90000
001F300000AA0000
001F500000B90000
001FC31015F50000
001FAFFFFF800000
001F313321000000
001F300000000000
001F300000000000
ENDCHAR
STARTCHAR uni091E094D
ENCODING -1
SWIDTH 359 0
DWIDTH 10 0
BBX 14 16 -1 2
BITMAP
5FFFFFFFFFFFFE
14444444444443
00000000000000
00000000000000
00000000000000
005FFFD8100000
0013336E900000
00000006F00000
00000002F30000
00000002FFFFFE
00000002F53332
00000002F20000
00000005E00000
0000014D900000
00BFFFF9100000
00233310000000
ENDCHAR
STARTCHAR uni091F094D
ENCODING -1
SWIDTH 485 0
DWIDTH 14 0
BBX 15 24 -1 -6
BITMAP
5FFFFFFFFFFFFFE0
1444444444CB4430
0000000000B90000
0000000000B90000
0000000000C90000
00005CFFFFF90000
0005F94333310000
000CA00000000000
001F500000000000
002F300000000000
002F300000000000
002F30000001B200
002F30000002F300
001F50000003F200
000D90000007E000
0006F720016E7000
00007EFFFFF80000
0000003333100000
0000000000000000
00000006A0000000
00000001E7000000
000000005F200000
000000000BC00000
0000000002A30000
ENDCHAR
STARTCHAR uni0920094D
ENCODING -1
SWIDTH 512 0
DWIDTH 14 0
BBX 16 24 -1 -6
BITMAP
5FFFFFFFFFFFFFFB
14444444448F4442
00000000006F0000
00000000007E0000
0000000013CA0000
00005CFFFFF40000
0005F943348F5000
000DA0000008E000
001F40000003F200
002F30000002F300
002F30000002F400
002F30000002F400
002F30000002F300
002F40000003F300
000E80000007E000
0007F720016E8000
00008EFFFFF80000
0000013333100000
0000000000000000
0000000980000000
00000003F4000000
000000008D100000
000000001D900000
0000000004B10000
ENDCHAR
STARTCHAR uni0921094D
ENCODING -1
SWIDTH 475 0
DWIDTH 13 0
BBX 15 25 -1 -7
BITMAP
5FFFFFFFFFFFFFA0
1444444444BC4420
00000000009B0000
00000000009B0000
00000000009B0000
00019EFFFFFA0000
0009E63333310000
000D700000000000
000D700000000000
000AC31000000000
0002BFFFFEC40000
0000013334AF2000
00000000000E7000
00031000000C8000
000F4000000C8000
000E6000000E7000
0009D310029F3000
0001AFFFFFE50000
0000013332000000
0000000330000000
00000006E1000000
00000000CA000000
000000003F600000
0000000008E10000
0000000000310000
ENDCHAR
STARTCHAR uni0922094D
ENCODING -1
SWIDTH 485 0
DWIDTH 14 0
BBX 15 24 -1 -6
BITMAP
5FFFFFFFFFFFFFF0
1444444444AD4430
00000000008C0000
00000000008C0000
00000000009C0000
00005CFFFFFB0000
0004F94333310000
000CA00000000000
000F500000000000
001F40005DFC3000
001F4001E84AD000
001F4004F002F200
001F4005E001F300
000F50015001F300
000C90000004F100
0006F720013CB000
00007EFFFFFC2000
0000003333200000
0000000000000000
0000000790000000
00000002E6000000
000000007E200000
000000000CB00000
0000000003B20000
ENDCHAR
STARTCHAR uni0923094D
ENCODING -1
SWIDTH 454 0
DWIDTH 13 0
BBX 15 14 -1 4
BITMAP
5FFFFFFFFFFFFF10
144CB44444F84300
000B900000E50000
000B900000E50000
000B900000E50000
000B900000E50000
000B900000E50000
000B900000E50000
000B900000E50000
000AA00000F50000
0008D00003F30000
0003F8213CD00000
00005EFFFB200000
0000002310000000
ENDCHAR
STARTCHAR uni0924094D
ENCODING -1
SWIDTH 263 0
DWIDTH 7 0
BBX 12 19 -1 -1
BITMAP
5FFFFFFFFFF3
144444444430
000000000000
000000000000
000000000000
000000000000
00007DFFFFF3
0008F7433330
000E70000000
002F40000000
002F30000000
002F30000000
002F30000000
002F30000000
002F30000000
000F70000000
0009E5100000
00018FF90000
000000210000
ENDCHAR
STARTCHAR uni0925094D
ENCODING -1
SWIDTH 359 0
DWIDTH 10 0
BBX 13 16 1 2
BITMAP
003BED91000000
01EA45DA000000
06E0004F100000
08C0002F300000
08B0002F300000
0120002F300000
0000005F100000
000014DB000000
4FFFFFB1000000
4F433100000000
4F100000000000
4F200000000000
1F700000000830
08E6200013BD20
007EFFFFFFA200
00002333310000
ENDCHAR
STARTCHAR uni0926094D
ENCODING -1
SWIDTH 489 0
DWIDTH 14 0
BBX 16 23 -1 -5
BITMAP
5FFFFFFFFFFFFFF1
14444444446F6430
00000000003F3000
00000000003F3000
00000000003F3000
00006DFFFFFF2000
0006F94333320000
000D900000000000
001F500000000000
001F400000000000
001F400000000000
001F4000000A8000
000E8000000C9000
0008E610017F9000
00008FFFFFCC9000
00000133320B9000
00000000000B9000
00000002100A8000
0000000AB0000000
00000002E6000000
000000006E200000
000000000BC00000
0000000001300000
ENDCHAR
STARTCHAR uni0927094D
ENCODING -1
SWIDTH 321 0
DWIDTH 9 0
BBX 14 16 -1 2
BITMAP
5FFFFFFB04FFFA
1448F742013442
000C9000000000
000F6000000000
000F6000000000
000D8000000000
0007E410000000
00009FFFB00000
0005E743200000
000D8000000000
000F6000000000
000F6000000000
000D8000000042
0008E6100028F4
00009FFFFFFD40
00000023332000
ENDCHAR
STARTCHAR uni0928094D
ENCODING -1
SWIDTH 233 0
DWIDTH 7 0
BBX 11 13 -1 5
BITMAP
5FFFFFFFFF50
144444444410
000000000000
000000000000
000000000000
000000000000
000000000000
002BFFFFFF50
00BD53333310
00E700000000
00D700000000
00AA00000000
001200000000
ENDCHAR
STARTCHAR uni092A094D
ENCODING -1
SWIDTH 269 0
DWIDTH 8 0
BBX 13 14 -1 4
BITMAP
5FFFFFFFFFFF20
144CB444444300
000BA000000000
000BA000000000
000BA000000000
000BA000000000
000BA000000000
000BA000000000
000BA000000000
000AA000000000
0008D000001810
0002EA2114CB00
00004DFFFF9100
00000023310000
ENDCHAR
STARTCHAR uni092B094D
ENCODING -1
SWIDTH 530 0
DWIDTH 15 0
BBX 20 19 -1 -1
BITMAP
5FFFFFFFFFFFFFFFFFF8
144CB444446F64444442
000BA000002F30000000
000BA000002F30000000
000BA000002F5BFFFC40
000BA000002FE8434AF3
000BA000002F80000093
000BA000002F40000000
000AA000003F30000000
0008D000006F30000000
0003F92115EF30000000
00004DFFFE6F30000000
00000023202F30000000
00000000002F30000000
00000000002F30000000
00000000002F30000000
00000000002F30000000
00000000002F30000000
00000000000300000000
ENDCHAR
STARTCHAR uni092C094D
ENCODING -1
SWIDTH 265 0
DWIDTH 7 0
BBX 13 16 -1 2
BITMAP
5FFFFFFFFFFE00
14444444444300
00000000000000
00000000000000
00007DFFB00000
0007F843200000
000EE700000000
003F4D70000000
003F21D7000000
003F201D600000
003F2002D60C10
003F20002D7F10
001F600002DD00
0009E51015E700
00019FFFFF8000
00000133310000
ENDCHAR
STARTCHAR uni092D094D
ENCODING -1
SWIDTH 261 0
DWIDTH 7 0
BBX 12 13 -1 5
BITMAP
5EC40000FFF4
14AE20003431
000E70000000
000C90000000
000C90000000
000C90000000
000C90000000
000C90000000
000CFFFFFFF4
000CA3333331
000C90000000
000C90000000
000860000000
ENDCHAR
STARTCHAR uni092E094D
ENCODING -1
SWIDTH 261 0
DWIDTH 7 0
BBX 12 13 -1 5
BITMAP
5FFFFFFFFFF4
144DA4444431
000C80000000
000C80000000
000C80000000
000C80000000
000C80000000
000C90000000
000CFFFFFFF4
000CA3333331
000C80000000
000C80000000
000860000000
ENDCHAR
STARTCHAR uni092F094D
ENCODING -1
SWIDTH 323 0
DWIDTH 9 0
BBX 14 16 -1 2
BITMAP
5FFFFFFFFFFFC0
144445CB444420
0000002F300000
0000000E600000
0000000E600000
0000002F400000
000012AE100000
001FFFD4000000
001F6200000000
001F4000000000
001F4000000000
001F5000000000
000CA000000074
0004F9310139E3
00005DFFFFFC30
00000023331000
ENDCHAR
STARTCHAR uni0930094D
ENCODING -1
SWIDTH 337 0
DWIDTH 9 0
BBX 11 24 -1 -6
BITMAP
5FFFFFFFFFC0
1444446F6430
0000003F3000
0000003F3000
0000003F3000
0000003F3000
0000003F2000
0000006F0000
000014D90000
00FFFFB10000
00DD31000000
003F70000000
0007E2000000
0000CC000000
00002E700000
000006F20000
000000BC0000
0000002E6000
000000011000
00001A200000
00000AC00000
000001E70000
0000005F3000
000000087000
ENDCHAR
STARTCHAR uni0932094D
ENCODING -1
SWIDTH 431 0
DWIDTH 12 0
BBX 17 18 -1 0
BITMAP
5FFFFFFFFFFFFFFFC0
144444444444444420
000000000000000000
000000000000000000
000000000000000000
00005CFEB209EFD700
0005F944AD9D546E80
000CA0000CF2000220
000F600008E0000000
000F500007C0000000
000F500007C0000000
000F500007C0000000
000F50000130000000
000F60000000000000
000C90000000000000
0006F7200000000000
00008EFFB000000000
000000332000000000
ENDCHAR
STARTCHAR uni0933094D
ENCODING -1
SWIDTH 677 0
DWIDTH 19 0
BBX 21 18 -1 0
BITMAP
5FFFFFFFFFFFFFFFFFFF50
1444444444444444444410
0000000000000000000000
0000000000000000000000
0000000000000000000000
00006DFFC407DFFB300000
0006F8449F9E745BE20000
000D80000AF60000D90000
001F400006F200009C0000
002F300005F000007C0000
002F300005F000007C0000
002F300005F000007C0000
002F300005F000007C0000
001F400006F100008C0000
000E700009F50000C90000
0008E5126FCD4128F30000
00008FFFE71AFFFE500000
0000013200001320000000
ENDCHAR
STARTCHAR uni0935094D
ENCODING -1
SWIDTH 255 0
DWIDTH 7 0
BBX 13 16 -1 2
BITMAP
5FFFFFFFFFFE00
14444444444300
00000000000000
00000000000000
00007DFFB00000
0007F843200000
000E7000000000
003F3000000000
003F2000000000
003F2000000000
003F2000000C10
003F2000001F10
001F6000005D00
0009E51014D700
00019FFFFF8000
00000133310000
ENDCHAR
STARTCHAR uni0936094D
ENCODING -1
SWIDTH 378 0
DWIDTH 11 0
BBX 9 19 1 -1
BITMAP
006CEDA200
06F745CC00
0B90002F30
0D70000F50
0E60000F60
0630000F60
0000000F50
0000003F30
000013CD00
BFFFFFB200
9F53310000
0DB0000000
03F5000000
009E100000
001DA00000
0004F50000
00009D1000
00001D9000
0000022000
ENDCHAR
STARTCHAR uni0937094D
ENCODING -1
SWIDTH 282 0
DWIDTH 8 0
BBX 13 14 -1 4
BITMAP
5FFFFFFFFFFF70
144CD444444410
000BF900000000
000BAC70000000
000BA2E5000000
000BA04E300000
000BA006D10000
000BA0008C0000
000BA0000BA000
000AA00001D810
0008D000003F80
0002EA2114DC10
00004DFFFF9100
00000023310000
ENDCHAR
STARTCHAR uni0938094D
ENCODING -1
SWIDTH 338 0
DWIDTH 9 0
BBX 14 19 -1 -1
BITMAP
5FFFFFFFFFFFFA
144444DA444442
000000C9000000
000000C9000000
000000C9000000
000000C9000000
000000C8000000
000001E6000000
00002AE2000000
01FFFFFFFFFFFA
00CD3333333332
003F5000000000
0009D000000000
0001E700000000
00007E20000000
00000DA0000000
000005F3000000
000000BC000000
00000013000000
ENDCHAR
STARTCHAR uni0939094D
ENCODING -1
SWIDTH 457 0
DWIDTH 13 0
BBX 17 20 -1 -2
BITMAP
5FFFFFFFFFFFFFC000
14444444448F442000
00000000006F000000
00000000006F000000
00006DFFFFFE000000
0004F8433332000000
000AB0000000000000
000B90000000000000
000AA0000000000000
0004F6100000000000
00007FFFFFFFFFFFB0
0002EA433333333320
000AC0000000000000
000D80000000000000
000E60000000000000
000D70000000000000
000BB0000000000000
0004F8200000000000
00005EFFFFFF100000
000000233333000000
ENDCHAR
STARTCHAR uni0915093C094D
ENCODING -1
SWIDTH 519 0
DWIDTH 15 0
BBX 20 20 -1 -2
BITMAP
5FFFFFFFFFFFFFFFFFF2
1444444444AD44444430
00000000008C00000000
00000000008C00000000
00007DFF608C6DFFE910
0008F843108ED6336DB0
001F7000008F300002B0
004F2000008D00000000
004F1000008C00000000
004F1000008C00000000
004F1000008C00000000
004F2000008C00000000
002F500000CC00000000
000AE51029FC00000000
0001AFFFFB9C00000000
00000133208C00000000
00000000008C00000000
00000000008C00000000
0000CA00001200000000
00002200000000000000
ENDCHAR
STARTCHAR uni0916093C094D
ENCODING -1
SWIDTH 463 0
DWIDTH 13 0
BBX 18 20 -1 -2
BITMAP
5FFFFFFFFFFFFFFFF2
1444446F6444444430
0000003F3000000000
0000003F3000000000
0000003F3000000000
0000003F3006DF8000
0000003F205F841000
0000006F00C9000000
000014DA00F5000000
00FFFFB101F4000000
00CD310000F5000000
002F700000D8000021
0007F200007E6117E4
0000BC000009FFFD40
00002E700000132000
000006F30000000000
000000BC0000000000
0000001E7000000000
001F60011000000000
000310000000000000
ENDCHAR
STARTCHAR uni0917093C094D
ENCODING -1
SWIDTH 264 0
DWIDTH 7 0
BBX 9 19 -1 -1
BITMAP
5FFFFFFFB0
14447F5420
00004F1000
00004F1000
00004F1000
00004F1000
00004F1000
00005F1000
00007E0000
0015E90000
07FF910000
0131000000
0000000000
0000000000
0000000000
0000000000
0000000000
0002F40000
0000310000
ENDCHAR
STARTCHAR uni091C093C094D
ENCODING -1
SWIDTH 314 0
DWIDTH 9 0
BBX 13 21 -1 -3
BITMAP
5FFFFFFFFFFF90
14444444444420
00000000000000
00000000000000
00000000000000
00000000000000
000FFFFFFFFF90
000334AE433310
0000000D800000
00000009B00000
00000008C00000
00000008C00000
00000009B00000
0000000CA00000
0000028F400000
02FFFFE6000000
00333200000000
00000000000000
00000000000000
0006F100000000
00013000000000
ENDCHAR
STARTCHAR uni0928093C094D
ENCODING -1
SWIDTH 241 0
DWIDTH 7 0
BBX 11 19 -1 -1
BITMAP
2FFFFFFFFF80
034444444420
000000000000
000000000000
000000000000
000000000000
000000000000
0009EFFFFF80
007F63333310
00AA00000000
00AA00000000
007D00000000
000300000000
000000000000
000000000000
000000000000
000000000000
00007F000000
000013000000
ENDCHAR
STARTCHAR uni092B093C094D
ENCODING -1
SWIDTH 530 0
DWIDTH 15 0
BBX 20 20 -1 -2
BITMAP
5FFFFFFFFFFFFFFFFFF8
144CB444446F64444442
000BA000002F30000000
000BA000002F30000000
000BA000002F5BFFFC40
000BA000002FE8434AF3
000BA000002F80000093
000BA000002F40000000
000AA000003F30000000
0008D000006F30000000
0003F92115EF30000000
00004DFFFE6F30000000
00000023202F30000000
00000000002F30000000
00000000002F30000000
00000000002F30000000
00000000002F30000000
00000000002F30000000
00001F60000510000000
00000310000000000000
ENDCHAR
STARTCHAR uni092F093C094D
ENCODING -1
SWIDTH 325 0
DWIDTH 9 0
BBX 14 20 -1 -2
BITMAP
5FFFFFFFFFFFC0
144445CB444420
0000002F300000
0000000E600000
0000000E600000
0000002F400000
000012AE100000
001FFFD4000000
001F6200000000
001F4000000000
001F4000000000
001F5000000000
000CA000000074
0004F9310139E3
00005DFFFFFC30
00000023331000
00000000000000
00000000000000
00000D90000000
00000220000000
ENDCHAR
STARTCHAR uni09080902
ENCODING -1
SWIDTH 478 0
DWIDTH 13 0
BBX 15 26 -1 -1
BITMAP
0000000005CEFA00
000000006F944200
00000000CA000000
00000000F607D000
00000000F6012000
00000000F6000000
00000000A9100000
5FFFFFFFFFFFFFB0
1444444444AD4420
00000000008C0000
00000000008C0000
00008DFFFFFC0000
0008E63333310000
000D700000000000
000F600000000000
000D700000000000
0009D31000000000
0001BFFFFFD60000
00000133348F4000
00000000000C8000
001F3000000B9000
001F5000000C9000
001FD310015F5000
001FAFFFFFF80000
001F413332100000
001F300000000000
ENDCHAR
STARTCHAR uni09300941
ENCODING -1
SWIDTH 533 0
DWIDTH 15 0
BBX 17 19 -1 -1
BITMAP
5FFFFFFFFFFFFFFF40
1444446F6444444310
0000003F3000000000
0000003F3000000000
0000003F3000000000
0000003FFFFE910000
0000003F5335DA0000
0000006F00005F0000
000014DA00002F2000
00FFFFB100003F2000
00CD310000004F1000
003F60000000AB0000
0007E200001AF30000
0000CB0005ED300000
00003F600581000000
000007E20000000000
000000CB0000000000
0000002F5000000000
000000022000000000
ENDCHAR
STARTCHAR uni09300942
ENCODING -1
SWIDTH 645 0
DWIDTH 18 0
BBX 20 19 -1 -1
BITMAP
5FFFFFFFFFFFFFFFFFF6
1444446F644444444441
0000003F300000000000
0000003F300000000000
0000003F300000000000
0000003F3007DFEA2000
0000003F207F745CC000
0000006F00B90002F200
000014DA00C70000F400
00FFFFB100C70000F400
00CD310000210001F200
002E600000000007E000
0007E2000000018F5000
0000CB0000005DE50000
00002F600008F8100000
000007E2000220000000
000000CB000000000000
0000002F500000000000
00000002200000000000
ENDCHAR
STARTCHAR uni09390941
ENCODING -1
SWIDTH 495 0
DWIDTH 14 0
BBX 16 25 -1 -7
BITMAP
5FFFFFFFFFFFFFF3
14444444448F4430
00000000006F0000
00000000006F0000
00006DFFFFFE0000
0004F84333320000
000AB00000000000
000B900000000000
000AA00000000000
0004F51000000000
00007FFFFEB30000
0002EA4334BE1000
000AC000001F5000
000D8000000D6000
000E600000095000
000D700000000000
000BB00000000000
0004F82100000000
00005EFFFFEB2000
00000023335DB000
001500000005F000
004F40000003F100
0009E3000007E000
00009F95447E8000
000004ADFEC60000
ENDCHAR
STARTCHAR uni09390942
ENCODING -1
SWIDTH 492 0
DWIDTH 14 0
BBX 15 25 -1 -7
BITMAP
5FFFFFFFFFFFFFC0
14444444448F4430
00000000006F0000
00000000006F0000
00000000006F0000
00007DFFFFFE0000
0006F74333320000
000BA00000000000
000B900000000000
0006E41000000000
00007FFFFEB20000
0002EA4335CD0000
0009D000002F4000
000D8000000E6000
000E6000000D6000
000D800000000000
000AC00000000000
0004F92100000000
00008FFFFC500000
0001EA4348E80000
0005F100004F3000
0006E000000AB000
0005F0000002F300
0001E9430000B900
00004CEF30002300
ENDCHAR
STARTCHAR uni09260943
ENCODING -1
SWIDTH 390 0
DWIDTH 11 0
BBX 13 17 -1 1
BITMAP
5FFFFFFFFFFF40
14444444BC4310
000000009B0000
00000000AB0000
00008DFFFA0000
0008E643310000
000C8000000000
000D7000000000
0008D310000000
0000BFFFC00000
0006E633200000
000C8000000000
000D7000000000
000C8000000000
0008E410000000
0001AFFFFF8000
00000133331000
ENDCHAR
STARTCHAR uni09390943
ENCODING -1
SWIDTH 519 0
DWIDTH 15 0
BBX 16 22 -1 -4
BITMAP
5FFFFFFFFFFFFFFD
14444444449E4443
00000000006E0000
00000000007E0000
00008DFFFFFD0000
0008E63333320000
000D800000000000
000F500000000000
000E700000000000
0008D41000000000
0000AFFFFFFFD500
0006E746F634AE10
000E7008B0002F30
002F300AA0000610
003F2009B0000000
003F2006E4100000
003F2000BFFFF900
002F300002333100
001F600000000000
0009E62000000000
00009FFFFFFF0000
0000013333330000
ENDCHAR
STARTCHAR uni094D0930
ENCODING -1
SWIDTH 0 0
DWIDTH 0 0
BBX 10 6 -12 -5
BITMAP
0000660000
0006FF5000
002E78E200
00CC00CB00
08E2003F70
2F600007F2
ENDCHAR
STARTCHAR uni0930094D.1
ENCODING -1
SWIDTH 192 0
DWIDTH 5 0
BBX 11 9 -2 9
BITMAP
05FFFFFB0000
014444420000
000000000000
000000000000
000000000000
710000000710
AD410013AD10
19FFFFFFB200
001333310000
ENDCHAR
STARTCHAR uni0930094D.2
ENCODING -1
SWIDTH 0 0
DWIDTH 0 0
BBX 5 8 -4 17
BITMAP
07DF90
6F7420
C90000
E70000
E60000
E60000
E60000
A70000
ENDCHAR
STARTCHAR uni0930094D0902
ENCODING -1
SWIDTH 0 0
DWIDTH 0 0
BBX 5 9 -4 16
BITMAP
06DF90
6F8420
C90000
E70000
E61F40
E60310
E60000
E80000
320000
ENDCHAR
STARTCHAR uni093E0930094D
ENCODING -1
SWIDTH 231 0
DWIDTH 6 0
BBX 9 26 -1 -1
BITMAP
00002BEF10
0001DC5300
0004F10000
0006E00000
0006E00000
0006E00000
0007E00000
5FFFFFFD00
1449E44300
0006E00000
0006E00000
0006E00000
0006E00000
0006E00000
0006E00000
0006E00000
0006E00000
0006E00000
0006E00000
0006E00000
0006E00000
0006E00000
0006E00000
0006E00000
0006E00000
0001300000
ENDCHAR
STARTCHAR uni093E0930094D0902
ENCODING -1
SWIDTH 231 0
DWIDTH 6 0
BBX 9 26 -1 -1
BITMAP
00003BEF10
0001EC5300
0005F10000
0006E02F20
0006E00300
0006E00000
0007E00000
5FFFFFFD00
1449E44300
0006E00000
0006E00000
0006E00000
0006E00000
0006E00000
0006E00000
0006E00000
0006E00000
0006E00000
0006E00000
0006E00000
0006E00000
0006E00000
0006E00000
0006E00000
0006E00000
0001300000
ENDCHAR
STARTCHAR uni0930094D.aMatraI
ENCODING -1
SWIDTH 0 0
DWIDTH 0 0
BBX 6 6 -2 18
BITMAP
02AEF2
0CC530
3F3000
5F0000
5F0000
5F0000
ENDCHAR
STARTCHAR uni0902.aMatraI
ENCODING -1
SWIDTH 0 0
DWIDTH 0 0
BBX 2 2 1 21
BITMAP
DA
22
ENDCHAR
STARTCHAR uni0930094D0902.aMatraI
ENCODING -1
SWIDTH 0 0
DWIDTH 0 0
BBX 6 6 -2 18
BITMAP
02AEF2
0CC530
3F3000
5F07D0
5F0120
5F0000
ENDCHAR
STARTCHAR uni09400930094D
ENCODING -1
SWIDTH 231 0
DWIDTH 6 0
BBX 12 26 -4 -1
BITMAP
05CEEC41AEF3
5F8449FCC530
C90000AF1000
E600007E0000
E600006E0000
2100006E0000
0000007E0000
0005FFFFFFD0
0001449E4430
0000006E0000
0000006E0000
0000006E0000
0000006E0000
0000006E0000
0000006E0000
0000006E0000
0000006E0000
0000006E0000
0000006E0000
0000006E0000
0000006E0000
0000006E0000
0000006E0000
0000006E0000
0000006E0000
000000130000
ENDCHAR
STARTCHAR uni09400902
ENCODING -1
SWIDTH 231 0
DWIDTH 6 0
BBX 11 26 -4 -1
BITMAP
06CEEC500000
7F8449F50000
D80000AB08E0
E600007E0130
9300006E0000
0000006E0000
0000007E0000
0005FFFFFFD0
0001449E4430
0000006E0000
0000006E0000
0000006E0000
0000006E0000
0000006E0000
0000006E0000
0000006E0000
0000006E0000
0000006E0000
0000006E0000
0000006E0000
0000006E0000
0000006E0000
0000006E0000
0000006E0000
0000006E0000
000000130000
ENDCHAR
STARTCHAR uni09400930094D0902
ENCODING -1
SWIDTH 231 0
DWIDTH 6 0
BBX 12 26 -4 -1
BITMAP
06CEEC51AEF3
7F8449FDC530
D80000AF1000
E600007E02F3
8300006E0030
0000006E0000
0000007E0000
0005FFFFFFD0
0001449E4430
0000006E0000
0000006E0000
0000006E0000
0000006E0000
0000006E0000
0000006E0000
0000006E0000
0000006E0000
0000006E0000
0000006E0000
0000006E0000
0000006E0000
0000006E0000
0000006E0000
0000006E0000
0000006E0000
000000130000
ENDCHAR
STARTCHAR uni0940.aLong
ENCODING -1
SWIDTH 231 0
DWIDTH 6 0
BBX 18 26 -11 -1
BITMAP
04BEFFFFFFFEC50000
4F95444444449F5000
AB00000000000AB000
C8000000000007E000
D8000000000006E000
21000000000006E000
00000000000007E000
00000000005FFFFFFD
00000000001449E443
00000000000006E000
00000000000006E000
00000000000006E000
00000000000006E000
00000000000006E000
00000000000006E000
00000000000006E000
00000000000006E000
00000000000006E000
00000000000006E000
00000000000006E000
00000000000006E000
00000000000006E000
00000000000006E000
00000000000006E000
00000000000006E000
000000000000013000
ENDCHAR
STARTCHAR uni09400930094D.aLong
ENCODING -1
SWIDTH 231 0
DWIDTH 6 0
BBX 19 26 -11 -1
BITMAP
04BEFFFFFFFEB42BEF10
4F95444444459FDC5300
AB00000000000AF10000
C8000000000007E00000
D8000000000006E00000
21000000000006E00000
00000000000007E00000
00000000005FFFFFFD00
00000000001449E44300
00000000000006E00000
00000000000006E00000
00000000000006E00000
00000000000006E00000
00000000000006E00000
00000000000006E00000
00000000000006E00000
00000000000006E00000
00000000000006E00000
00000000000006E00000
00000000000006E00000
00000000000006E00000
00000000000006E00000
00000000000006E00000
00000000000006E00000
00000000000006E00000
00000000000001300000
ENDCHAR
STARTCHAR uni09400902.aLong
ENCODING -1
SWIDTH 231 0
DWIDTH 6 0
BBX 19 26 -11 -1
BITMAP
04BEFFFFFFFEC5000000
4F95444444449F500000
AB00000000000AB00000
C8000000000007E02F50
D8000000000006E00310
21000000000006E00000
00000000000007E00000
00000000005FFFFFFD00
00000000001449E44300
00000000000006E00000
00000000000006E00000
00000000000006E00000
00000000000006E00000
00000000000006E00000
00000000000006E00000
00000000000006E00000
00000000000006E00000
00000000000006E00000
00000000000006E00000
00000000000006E00000
00000000000006E00000
00000000000006E00000
00000000000006E00000
00000000000006E00000
00000000000006E00000
00000000000001300000
ENDCHAR
STARTCHAR uni09400930094D0902.aLong
ENCODING -1
SWIDTH 231 0
DWIDTH 6 0
BBX 19 26 -11 -1
BITMAP
05CEFFFFFFFEC42BEF10
5F84444444459FEC5300
BA00000000000AF10000
D8000000000007E02F30
74000000000006E00300
00000000000006E00000
00000000000007E00000
00000000005FFFFFFD00
00000000001449E44300
00000000000006E00000
00000000000006E00000
00000000000006E00000
00000000000006E00000
00000000000006E00000
00000000000006E00000
00000000000006E00000
00000000000006E00000
00000000000006E00000
00000000000006E00000
00000000000006E00000
00000000000006E00000
00000000000006E00000
00000000000006E00000
00000000000006E00000
00000000000006E00000
00000000000001300000
ENDCHAR
STARTCHAR uni09470930094D
ENCODING -1
SWIDTH 0 0
DWIDTH 0 0
BBX 10 8 -9 17
BITMAP
7E30007DF9
1DC005F742
03F60A9000
008E2B6000
000CAB6000
0002EE6000
00004F7000
0000057000
ENDCHAR
STARTCHAR uni09470902
ENCODING -1
SWIDTH 0 0
DWIDTH 0 0
BBX 9 9 -9 16
BITMAP
8E20000000
1EB0000000
06F6000000
00BE200CB0
002EB00220
0006F50000
0000AE2000
00001DE000
0000013000
ENDCHAR
STARTCHAR uni09470901
ENCODING -1
SWIDTH 0 0
DWIDTH 0 0
BBX 15 9 -9 16
BITMAP
7E20000009B00000
1DB0038002200740
04F605E000000D70
00AE23F100000E50
001EB0DA20018E10
0005F53DFFFFE500
00009E2023330000
00001CE000000000
0000013000000000
ENDCHAR
STARTCHAR uni09470930094D0902
ENCODING -1
SWIDTH 0 0
DWIDTH 0 0
BBX 10 8 -9 17
BITMAP
7E30006DF9
1DB005F742
03F60A9000
008E1B6000
000C9B60F4
0002EE6031
00004F7000
0000067000
ENDCHAR
STARTCHAR uni09480930094D
ENCODING -1
SWIDTH 0 0
DWIDTH 0 0
BBX 11 8 -10 17
BITMAP
1E600D81AFB0
07E10D8AB420
00CA0D9D1000
003F4AB90000
0007C7D70000
0000C9F60000
00002DD60000
000004F80000
ENDCHAR
STARTCHAR uni09480902
ENCODING -1
SWIDTH 0 0
DWIDTH 0 0
BBX 10 8 -9 17
BITMAP
BC000D6000
3F600D6000
08E10D6000
01DA0D60DA
003F4B6022
0007DA6000
0000AD6000
00001C8000
ENDCHAR
STARTCHAR uni09480901
ENCODING -1
SWIDTH 0 0
DWIDTH 0 0
BBX 17 8 -9 17
BITMAP
BC000D600006E00000
3F700D61A101300670
08E20D61F200000B90
01DA0D60DA20015F50
003F4C603DFFFFF800
0007DA600023331000
0000AE600000000000
00001C800000000000
ENDCHAR
STARTCHAR uni09480930094D0902
ENCODING -1
SWIDTH 0 0
DWIDTH 0 0
BBX 11 8 -10 17
BITMAP
1E600D81AFB0
07E10D8AB420
00C90D9D1000
003F3AB90000
0007C7D70F50
0000C9F60310
00002DD60000
000004F80000
ENDCHAR
STARTCHAR uni094B0930094D
ENCODING -1
SWIDTH 231 0
DWIDTH 6 0
BBX 11 26 -3 -1
BITMAP
1E90002BEF10
06F400DC5300
00BD13F10000
001E84E00000
0004F7E00000
00008FE00000
00000BE00000
005FFFFFFD00
001449E44300
000006E00000
000006E00000
000006E00000
000006E00000
000006E00000
000006E00000
000006E00000
000006E00000
000006E00000
000006E00000
000006E00000
000006E00000
000006E00000
000006E00000
000006E00000
000006E00000
000001300000
ENDCHAR
STARTCHAR uni094B0902
ENCODING -1
SWIDTH 231 0
DWIDTH 6 0
BBX 10 26 -3 -1
BITMAP
1E80000000
06F3000000
00BD000BC0
001E800220
0004F30000
00008C0000
00000B8000
005FFFFFFD
001449E443
000006E000
000006E000
000006E000
000006E000
000006E000
000006E000
000006E000
000006E000
000006E000
000006E000
000006E000
000006E000
000006E000
000006E000
000006E000
000006E000
0000013000
ENDCHAR
STARTCHAR uni094B0930094D0902
ENCODING -1
SWIDTH 231 0
DWIDTH 6 0
BBX 11 26 -3 -1
BITMAP
1EA0003BEF10
06F601EC5300
00AF34F10000
001ED5E02F30
0004FDE00300
00008FE00000
00000BE00000
005FFFFFFD00
001449E44300
000006E00000
000006E00000
000006E00000
000006E00000
000006E00000
000006E00000
000006E00000
000006E00000
000006E00000
000006E00000
000006E00000
000006E00000
000006E00000
000006E00000
000006E00000
000006E00000
000001300000
ENDCHAR
STARTCHAR uni094C0930094D
ENCODING -1
SWIDTH 231 0
DWIDTH 6 0
BBX 11 26 -3 -1
BITMAP
8D106F05DF30
1E906F3E6400
04F35F960000
009D3FC10000
000C8DC00000
0002EBE00000
00004EE00000
005FFFFFFD00
001449E44300
000006E00000
000006E00000
000006E00000
000006E00000
000006E00000
000006E00000
000006E00000
000006E00000
000006E00000
000006E00000
000006E00000
000006E00000
000006E00000
000006E00000
000006E00000
000006E00000
000001300000
ENDCHAR
STARTCHAR uni094C0902
ENCODING -1
SWIDTH 231 0
DWIDTH 6 0
BBX 10 26 -3 -1
BITMAP
3F5006D000
08E106E000
00DA06E09E
003F45E013
0006D4E000
0000AAE000
00000CE000
005FFFFFFD
001449E443
000006E000
000006E000
000006E000
000006E000
000006E000
000006E000
000006E000
000006E000
000006E000
000006E000
000006E000
000006E000
000006E000
000006E000
000006E000
000006E000
0000013000
ENDCHAR
STARTCHAR uni094C0930094D0902
ENCODING -1
SWIDTH 231 0
DWIDTH 6 0
BBX 11 26 -3 -1
BITMAP
8D106F05DF30
1E906F3E6400
04F45F960000
009D3FC12F20
000C9DC00300
0002EBE00000
00004EE00000
005FFFFFFD00
001449E44300
000006E00000
000006E00000
000006E00000
000006E00000
000006E00000
000006E00000
000006E00000
000006E00000
000006E00000
000006E00000
000006E00000
000006E00000
000006E00000
000006E00000
000006E00000
000006E00000
000001300000
ENDCHAR
STARTCHAR uni0915094D0937
ENCODING -1
SWIDTH 656 0
DWIDTH 18 0
BBX 18 18 1 0
BITMAP
0003BEFC500008FFFB
001EA548F4000AC442
008D00009A000AB000
00A900006D000AB000
00B900005D000AB000
009C00008B000AB000
002D8215E5000AB000
018EFFFFFFFFFFB000
0BD6333333333BB000
1F50000000000AB000
3F30000000000AB000
3F3000008C000AB000
3F3000008C000AB000
1F400000BC000AB000
0CC31017FC000AB000
02BFFFFDBC000AB000
000133208C000AB000
000000008C00077000
ENDCHAR
STARTCHAR uni0915094D0937094D
ENCODING -1
SWIDTH 429 0
DWIDTH 12 0
BBX 15 18 1 0
BITMAP
0003BEFC50000000
001EA548F4000000
008D00009A000000
00A900006D000000
00B900005D000000
009C00008B000000
002D8215E5000000
018EFFFFFFFFFF30
0BD6333333333300
1F50000000000000
3F30000000000000
3F3000008C000000
3F3000008C000000
1F400000BC000000
0CC31017FC000000
02BFFFFDBC000000
000133208C000000
000000008C000000
ENDCHAR
STARTCHAR uni0915094D0937094D092E
ENCODING -1
SWIDTH 933 0
DWIDTH 26 0
BBX 26 18 1 0
BITMAP
0003BEFC5000FFFFFFFFFFFFF8
001EA548F40038F444444DB441
008D00009A0006E000000C9000
00A900006D0006E000000C9000
00B900005D0006E000000C9000
009C00008B0006E000000C9000
002D8215E50006E000000C9000
019EFFFFFFFFFFE100000C9000
0BB20000000006FFFFFFFF9000
1F400000000006F333333C9000
3F300000000006E000000C9000
3F3000008C0006E000000C9000
3F3000008C0006E000000C9000
1F500000BC00001000000C9000
0CC31017FC00000000000C9000
02BFFFFDBC00000000000C9000
000133208C00000000000C9000
000000008C0000000000086000
ENDCHAR
STARTCHAR uni0915094D0937094D092E094D
ENCODING -1
SWIDTH 717 0
DWIDTH 20 0
BBX 23 18 1 0
BITMAP
0003BEFC5000FFFFFFFFFF30
001EA548F40038F444444300
008D00009A0006E000000000
00A900006D0006E000000000
00B900005D0006E000000000
009C00008B0006E000000000
002D8215E50006E000000000
019EFFFFFFFFFFE100000000
0BB20000000006FFFFFFFF30
1F400000000006F333333300
3F300000000006E000000000
3F3000008C0006E000000000
3F3000008C0006E000000000
1F500000BC00001000000000
0CC31017FC00000000000000
02BFFFFDBC00000000000000
000133208C00000000000000
000000008C00000000000000
ENDCHAR
STARTCHAR uni0915094D0937094D092E094D092F
ENCODING -1
SWIDTH 1283 0
DWIDTH 36 0
BBX 36 18 1 0
BITMAP
0003BEFC5000FFFFFFFFFFFFFFFFFFFFFFF4
001EA548F40038F444444445CD44444F8431
008D00009A0006E0000000001F50000F5000
00A900006D0006E0000000000D80000F5000
00B900005D0006E0000000000C80000F5000
009C00008B0006E0000000000E60000F5000
002D8215E50006E0000000029E10000F5000
019EFFFFFFFFFFE100000EFDA200000F5000
0BB20000000006FFFFFFFF600000000F5000
1F400000000006F333333F600000000F5000
3F300000000006E000000E600000000F5000
3F3000008C0006E000000D700000002F5000
3F3000008C0006E0000008C00000007F5000
1F500000BC000010000001EA310027DF5000
0CC31017FC0000000000002CFFFFFD3F5000
02BFFFFDAC000000000000001333200F5000
000133208C000000000000000000000F5000
000000008C000000000000000000000A3000
ENDCHAR
STARTCHAR uni0915094D0937094D092F
ENCODING -1
SWIDTH 989 0
DWIDTH 28 0
BBX 28 18 1 0
BITMAP
0003BEFC5000EFFFFFFFFFFFFFF1
001EA548F4003446DA44446F6430
008D00009A0000003F20004F2000
00A900006D0000000F40004F2000
00B900005D0000000F40004F2000
009C00008B0000002F30004F2000
002E8215E4000013BD00004F2000
018DFFFFFFFFFFFFC300004F2000
0AD6333333335F510000004F2000
1F50000000003F200000004F2000
3F30000000003F200000004F2000
3F3000008C002F400000005F2000
3F3000008C000D90000000BF2000
1F500000BC0005F8210139EF2000
0CC31017FC00005DFFFFFC5F2000
02BFFFFDAC0000002333104F2000
000133208C0000000000004F2000
000000008C0000000000002B1000
ENDCHAR
STARTCHAR uni0915094D0937094D0935
ENCODING -1
SWIDTH 936 0
DWIDTH 26 0
BBX 26 18 1 0
BITMAP
0003BEFC5000EFFFFFFFFFFFF8
001EA548F400344444444CB442
008D00009A00000000000A9000
00A900006D00000000000A9000
00B900005D000019EFF30A9000
009C00008B0000BD63300A9000
002D8215E50003F300000A9000
018EFFFFFFFFFFD000000A9000
0BD6333333333AC000000A9000
1F500000000008C000000A9000
3F300000000008C000000A9000
3F3000008C0008D000000B9000
3F3000008C0006F100001E9000
1F400000BC0001EB3113BF9000
0CC31017FC00003CFFFFAB9000
02BFFFFDAC00000023310A9000
000133208C00000000000A9000
000000008C0000000000076000
ENDCHAR
STARTCHAR uni091C094D091E
ENCODING -1
SWIDTH 629 0
DWIDTH 18 0
BBX 19 20 -1 -2
BITMAP
5FFFFFFFFFFFFFFFFFE0
144444444444448F4430
000000000000006E0000
000000000000006E0000
000000000000006E0000
00019EFFFFFFFFFE0000
0009E6333333338E0000
000E80000000006E0000
000E70000000006E0000
000AD3100000006E0000
0002BFFFFEB3006E0000
0000013335CD006E0000
00000000002F306E0000
000F5000000F406E0000
000F6000002F306E0000
000FD41012AE106E0000
000FAEFFFFD4006E0000
000F51333200006E0000
000F5000000000010000
000F4000000000000000
ENDCHAR
STARTCHAR uni091C094D091E094D
ENCODING -1
SWIDTH 398 0
DWIDTH 11 0
BBX 15 20 -1 -2
BITMAP
5FFFFFFFFFFFFFF0
1444444444444430
0000000000000000
0000000000000000
0000000000000000
00019EFFFFFFFFF0
0009E63333333330
000E800000000000
000E700000000000
000AD31000000000
0002BFFFFEB30000
0000013335CD0000
00000000002F3000
000F5000000F4000
000F6000002F3000
000FD41012AE1000
000FAEFFFFD40000
000F513332000000
000F500000000000
000F400000000000
ENDCHAR
STARTCHAR uni091C094D091E094D092F
ENCODING -1
SWIDTH 975 0
DWIDTH 27 0
BBX 29 20 -1 -2
BITMAP
5FFFFFFFFFFFFFFFFFFFFFFFFFFFA0
144444444444444448E64444BC4420
0000000000000000009B00009B0000
0000000000000000006E00009B0000
0000000000000000006E00009B0000
00019EFFFFFFFEA1008C00009B0000
0009E633333337F814E800009B0000
000E8000000000CFFFA100009B0000
000E7000000000BB310000009B0000
000AD310000000BA000000009B0000
0002BFFFFEB300BA00000000AB0000
0000013335BD00AC00000000BB0000
00000000002F306F30000002FB0000
000F5000000F400CD510014DEB0000
000F6000002F3001AFFFFFF89B0000
000FD41012AE1000013333109B0000
000FAEFFFFD40000000000009B0000
000F513332000000000000009B0000
000F50000000000000000000110000
000F40000000000000000000000000
ENDCHAR
STARTCHAR uni0915094D0928
ENCODING -1
SWIDTH 1003 0
DWIDTH 28 0
BBX 30 19 -1 -1
BITMAP
5FFFFFFFFFFFFFFFFFFFFFFFFFFFF7
1444444444AD4444444444444DA441
00000000008C0000000000000C8000
00000000008C0000000000000C8000
00007DFF608C6DFFE91000000C8000
0008F843108ED6336DB000000C8000
001F7000008F300002F300000D8000
004F2000008D000002EFFFFFFF8000
004F1000008C00000AE533333D8000
004F1000008C00000D8000000C8000
004F1000008C00000C8000000C8000
004F2000008C000009B000000C8000
002F500000CC0000013000000C8000
000AE51029FC0000000000000C8000
0001AFFFFB9C0000000000000C8000
00000133208C0000000000000C8000
00000000008C0000000000000C8000
00000000008C0000000000000C8000
000000000012000000000000021000
ENDCHAR
STARTCHAR uni0916094D0928
ENCODING -1
SWIDTH 958 0
DWIDTH 27 0
BBX 29 19 -1 -1
BITMAP
5FFFFFFFFFFFFFFFFFFFFFFFFFFF30
1444446F6444444444444445F74300
0000003F3000000000000001F40000
0000003F3000000000000001F40000
0000003F3000000000000001F40000
0000003F3006DFEC40000001F40000
0000003F205F844AF3000001F40000
0000006F00D90000CA000002F40000
000014DA00F500008FFFFFFFF40000
00FFFFB100F50000DC433335F40000
00CD310000D80001F4000001F40000
003F7000007E5102F3000001F40000
0007E2000009FFFFF6000001F40000
0000CC0000001333AA000001F40000
00002E700000000014000001F40000
000007F20000000000000001F40000
000000BC0000000000000001F40000
0000002E7000000000000001F40000
000000022000000000000000300000
ENDCHAR
STARTCHAR uni0917094D0928
ENCODING -1
SWIDTH 736 0
DWIDTH 21 0
BBX 22 19 -1 -1
BITMAP
5FFFFFFFFFFFFFFFFFFFFF
14447F544444444448F443
00004F100000000005F100
00004F100000000005F100
00004F100000000005F100
00004F100000000005F100
00004F100000000005F100
00005F10006DFFFFFFF100
00007E0002F9333337F100
0015E90005F0000005F100
07FF910004F1000005F100
0131000001E4000005F100
000000000000000005F100
000000000000000005F100
000000000000000005F100
000000000000000005F100
000000000000000005F100
000000000000000005F100
0000000000000000013000
ENDCHAR
STARTCHAR uni0918094D0928
ENCODING -1
SWIDTH 814 0
DWIDTH 23 0
BBX 25 19 -1 -1
BITMAP
5FFFFFFFFFFFFFFFFFFFFFFF20
1448F744444444444445F74300
000D8000000000000002F40000
000F6000000000000002F40000
000D7000000000000002F40000
0008E410000000000002F40000
00009FFFB00000000003F40000
0005F84320003CFFFFFFF40000
000CA0000000CC433335F40000
000E60000001F4000002F40000
000E60000002F3000002F40000
000C90000003F4000002F40000
0006F610014DF7000002F40000
00008EFFFFFAAB000002F40000
00000033331012000002F40000
00000000000000000002F40000
00000000000000000002F40000
00000000000000000002F40000
00000000000000000000300000
ENDCHAR
STARTCHAR uni091A094D0928
ENCODING -1
SWIDTH 829 0
DWIDTH 23 0
BBX 25 19 -1 -1
BITMAP
5FFFFFFFFFFFFFFFFFFFFFFF90
14444444444444444444CB4420
00000000000000000000AA0000
00000000000000000000AA0000
00000000000000000000AA0000
06FFFFFFFF0000000000AA0000
01336F94330000000000BA0000
0000BB00000009EFFFFFFA0000
0000F60000006F633333CA0000
0000F5000000AB000000AA0000
0000F6000000B9000000AA0000
0000CA000000CA000000AA0000
00005F72002AFD000000AA0000
000006EFFFFD6F200000AA0000
00000003332003000000AA0000
00000000000000000000AA0000
00000000000000000000AA0000
00000000000000000000AA0000
00000000000000000000220000
ENDCHAR
STARTCHAR uni091B094D0928
ENCODING -1
SWIDTH 977 0
DWIDTH 27 0
BBX 29 19 -1 -1
BITMAP
5FFFFFFFFFFFFFFFFFFFFFFFFFFFB0
1447F8444444444444444444AD4420
000BB00000000000000000008C0000
000D800000000000000000008C0000
000D800000BFE910000000008C0000
000D800000236DA0000000008C0000
000BA000000005F1000000009C0000
0004F610000002F308EFFFFFFC0000
00007FFF400001F35F733333AC0000
0005F943000001F39C0000008C0000
000BC000000001F39B0000008C0000
000D8000000001F36E0000008C0000
000D8000000001F3191000008C0000
000C8000000003F3000000008C0000
000AB000000006E0000000008C0000
0004F61000015E80000000008C0000
00007EFFFFFFF900000000008C0000
0000003333331000000000008C0000
000000000000000000000000120000
ENDCHAR
STARTCHAR uni091C094D0928
ENCODING -1
SWIDTH 831 0
DWIDTH 23 0
BBX 25 19 -1 -1
BITMAP
5FFFFFFFFFFFFFFFFFFFFFFF90
14444444444444444444BC4420
00000000000000000000AA0000
00000000000000000000AA0000
00000000000000000000AA0000
00000000000000000000AA0000
00000000000000000000AA0000
000FFFFFFFFFFFFFFFFFFA0000
000334BE43339F633333BA0000
0000000D8000BA000000AA0000
0000000AB000AA000000AA0000
00000008C0007D000000AA0000
00000008C00027000000AA0000
00000009B00000000000AA0000
0000000C900000000000AA0000
0000028F300000000000AA0000
02FFFFE6000000000000AA0000
00333300000000000000AA0000
00000000000000000000220000
ENDCHAR
STARTCHAR uni091D094D0928
ENCODING -1
SWIDTH 935 0
DWIDTH 26 0
BBX 28 19 -1 -1
BITMAP
5FFFFFFFFFFFFFFFFFFFFFFFFFF8
144444444AD444444444444CB442
0000000008C000000000000B9000
0000000008C000000000000B9000
00019DFFFFC000000000000B9000
0009E633331000000000000B9000
000D7000000000000000000B9000
000E700000000001AFFFFFFF9000
000AD31000000008E533333C9000
0002BFFFFFFFFFFF9000000B9000
0000013347F6333C9000000B9000
0000000000C90009B000000B9000
001F300000AA00026000000B9000
001F500000B900000000000B9000
001FC31015F500000000000B9000
001FAFFFFF8000000000000B9000
001F3133210000000000000B9000
001F300000000000000000086000
001F300000000000000000000000
ENDCHAR
STARTCHAR uni091F094D0928
ENCODING -1
SWIDTH 494 0
DWIDTH 14 0
BBX 16 25 -1 -7
BITMAP
5FFFFFFFFFFFFFF3
1444444444AD4430
00000000008C0000
00000000008C0000
00000000008C0000
00000000009C0000
00006DFFFFFB0000
0006F84333310000
000E900000000000
001F400000002100
002F30000000E600
002F40000000F500
000E70000003F300
0008E610014CC000
00009FFFFFFE1000
00000133338E0000
00000000007E0000
00000000008E0000
0002CFFFFFFE0000
000BC433339E0000
000F5000007E0000
000F5000007E0000
000C9000007E0000
00023000007E0000
00000000006D0000
ENDCHAR
STARTCHAR uni0920094D0928
ENCODING -1
SWIDTH 516 0
DWIDTH 14 0
BBX 16 25 -1 -7
BITMAP
5FFFFFFFFFFFFFFD
14444444447F5443
00000000004F1000
00000000005F1000
0000000012CB0000
00005CFFFFF50000
0006F943347E7000
000D90000006F100
002F40000001F400
002F30000000F500
002F30000000F500
002F40000001F500
000E80000005F200
0008F620015EB000
00008FFFFFFE1000
00000133337E0000
00000000007E0000
00000000008E0000
0002CFFFFFFE0000
000BC433339E0000
000F5000007E0000
000F5000007E0000
000C9000007E0000
00023000007E0000
00000000006D0000
ENDCHAR
STARTCHAR uni0921094D0928
ENCODING -1
SWIDTH 481 0
DWIDTH 13 0
BBX 15 25 -1 -7
BITMAP
5FFFFFFFFFFFFFC0
14444444449E4430
00000000006D0000
00000000007D0000
00008DFFFFFD0000
0008E63333310000
000C800000000000
000D700000000000
000AD31000000000
0001BFFFFFD60000
00000133348F4000
00041000000C9000
000F4000000AB000
000E6000000B9000
000AD310016F5000
0002BFFFFFFE0000
00000133338D0000
00000000007D0000
0001BFFFFFFD0000
000AD533339D0000
000D7000007D0000
000E7000007D0000
000BA000007D0000
00035000007D0000
00000000006D0000
ENDCHAR
STARTCHAR uni0924094D0928
ENCODING -1
SWIDTH 756 0
DWIDTH 21 0
BBX 23 19 -1 -1
BITMAP
5FFFFFFFFFFFFFFFFFFFFF80
144444444444444444DB4420
000000000000000000B90000
000000000000000000B90000
000000000000000000B90000
000000000000000000B90000
00007DFFFFD6000000C90000
0008E400006FFFFFFFF90000
000E6000008E533333C90000
002F300000C9000000B90000
002F300000B9000000B90000
002F3000008C000000B90000
002F30000025000000B90000
002F30000000000000B90000
002F40000000000000B90000
000F70000000000000B90000
0009E5100000000000B90000
00018FF90000000000B90000
000000210000000000210000
ENDCHAR
STARTCHAR uni0925094D0928
ENCODING -1
SWIDTH 855 0
DWIDTH 24 0
BBX 24 19 1 -1
BITMAP
004CED9101FFFFFFFFFFFFF4
02E945DB00344444444F8441
06D0004F10000000000F5000
08B0002F30000000000F5000
0580002F30000000000F5000
0000005F10000000000F5000
000014DB00000000001F5000
4FFFFFB20002BFFFFFFF5000
4F433100000BD433333F5000
4F100000000F5000000F5000
3F200000001F4000000F5000
1E700000002F7000000F5000
07F7200015EFA000000F5000
007EFFFFFF94A000000F5000
0000233331000000000F5000
0000000000000000000F5000
0000000000000000000F5000
0000000000000000000F5000
000000000000000000031000
ENDCHAR
STARTCHAR uni0926094D0928
ENCODING -1
SWIDTH 955 0
DWIDTH 27 0
BBX 29 24 -1 -6
BITMAP
5FFFFFFFFFFFFFFFFFFFFFFFFFFF20
14444444446F644444444446F64300
00000000003F300000000003F30000
00000000003F300000000003F30000
00000000003F300000000003F30000
00006DFFFFFF200000000003F30000
0006F9433332000000000003F30000
000D9000000000004DFFFFFFF30000
001F500000000001EB433336F30000
001F400000000003F3000003F30000
001F400000000003F2000003F30000
001F4000000A8001F5000003F30000
000E8000000C900053000003F30000
0008E610017F900000000003F30000
00008FFFFFCC900000000003F30000
00000133320B900000000003F30000
00000000000B900000000003F30000
00000000000A800000000002F20000
000000000000000000000000000000
000000000006700000000000000000
000000000003F50000000000000000
0000000000007E1000000000000000
0000000000000CA000000000000000
00000000000003B200000000000000
ENDCHAR
STARTCHAR uni0927094D0928
ENCODING -1
SWIDTH 814 0
DWIDTH 23 0
BBX 25 19 -1 -1
BITMAP
5FFFFFFF000CFFFFFFFFFFFF20
1448F743000244444445F74300
000D8000000000000002F40000
000F6000000000000002F40000
000D7000000000000002F40000
0008E410000000000002F40000
00009FFFB00000000003F40000
0005F84320003CFFFFFFF40000
000CA0000000CC433335F40000
000E60000001F4000002F40000
000E60000002F3000002F40000
000C90000003F4000002F40000
0006F610015DF8000002F40000
00008EFFFFF87A000002F40000
00000033331000000002F40000
00000000000000000002F40000
00000000000000000002F40000
00000000000000000002F40000
00000000000000000000300000
ENDCHAR
STARTCHAR uni0928094D0928
ENCODING -1
SWIDTH 738 0
DWIDTH 21 0
BBX 23 19 -1 -1
BITMAP
5FFFFFFFFFFFFFFFFFFFFF10
144444444444444447F54300
000000000000000004F10000
000000000000000004F10000
000000000000000004F10000
000000000000000004F10000
000000000000000004F10000
0009EFFFFFFFFFFFFFF10000
007F633334FA433336F10000
00AA000004F1000004F10000
00AA000004F1000004F10000
007D000001F4000004F10000
001500000042000004F10000
000000000000000004F10000
000000000000000004F10000
000000000000000004F10000
000000000000000004F10000
000000000000000004F10000
000000000000000000300000
ENDCHAR
STARTCHAR uni092A094D0928
ENCODING -1
SWIDTH 782 0
DWIDTH 22 0
BBX 24 19 -1 -1
BITMAP
5FFFFFFFFFFFFFFFFFFFFFF4
144CB44444444444444F8431
000BA00000000000000F5000
000BA00000000000000F5000
000BA00000000000000F5000
000BA00000000000000F5000
000BA00000000000001F5000
000BA0000002CFFFFFFF5000
000AA000000CC433334F5000
0008D000001F5000000F5000
0002EA2114DF5000000F5000
00004DFFFFAE7000000F5000
0000002331055000000F5000
0000000000000000000F5000
0000000000000000000F5000
0000000000000000000F5000
0000000000000000000F5000
0000000000000000000F5000
000000000000000000031000
ENDCHAR
STARTCHAR uni092B094D0928
ENCODING -1
SWIDTH 1013 0
DWIDTH 28 0
BBX 30 19 -1 -1
BITMAP
5FFFFFFFFFFFFFFFFFFFFFFFFFFFFB
144CB444446F6444444444444AD442
000BA000002F30000000000008C000
000BA000002F30000000000008C000
000BA000002F5BFFE910000008C000
000BA000002FE8436DC0000008C000
000BA000002F800002F4000008C000
000BA000002F400000DFFFFFFFC000
000AA000003F300006F633333AC000
0008D000006F300009C0000008C000
0003F92115EF300007D0000008C000
00004DFFFE6F300003D1000008C000
00000023202F30000000000008C000
00000000002F30000000000008C000
00000000002F30000000000008C000
00000000002F30000000000008C000
00000000002F30000000000008C000
00000000002F30000000000008C000
000000000003000000000000012000
ENDCHAR
STARTCHAR uni092C094D0928
ENCODING -1
SWIDTH 810 0
DWIDTH 23 0
BBX 25 19 -1 -1
BITMAP
5FFFFFFFFFFFFFFFFFFFFFFF10
14444444444444444447F54300
00000000000000000004F20000
00000000000000000004F20000
00007DFFB00000000004F20000
0007F843200000000004F20000
000EE900000000000004F20000
003F3C8000005DFFFFFFF20000
003F21C80001EA433336F20000
003F201C8004F2000004F20000
003F2001D703F2000004F20000
003F20002D70E5000004F20000
001F600002E610000004F20000
0009E51016F600000004F20000
00019FFFFE7000000004F20000
00000133200000000004F20000
00000000000000000004F20000
00000000000000000003F20000
00000000000000000000300000
ENDCHAR
STARTCHAR uni092D094D0928
ENCODING -1
SWIDTH 757 0
DWIDTH 21 0
BBX 23 19 -1 -1
BITMAP
5EC40001FFFFFFFFFFFFFF80
14AE20003444444444CB4420
000E70000000000000B90000
000C90000000000000B90000
000C90000000000000B90000
000C90000000000000B90000
000C90000000000000B90000
000C9000001AEFFFFFF90000
000CFFFFFFFE533333C90000
000CA33333C9000000B90000
000C900000AA000000B90000
000C9000007C000000B90000
000970000003000000B90000
000000000000000000B90000
000000000000000000B90000
000000000000000000B90000
000000000000000000B90000
000000000000000000B90000
000000000000000000220000
ENDCHAR
ENDFONT
